<?xml version="1.0" encoding="utf-8"?>
<!-- Generator: Adobe Illustrator 25.2.3, SVG Export Plug-In . SVG Version: 6.00 Build 0)  -->
<svg version="1.1" id="Ebene_1" xmlns="http://www.w3.org/2000/svg" xmlns:xlink="http://www.w3.org/1999/xlink" x="0px" y="0px"
	 viewBox="0 0 489 157" style="enable-background:new 0 0 489 157;" xml:space="preserve">
<style type="text/css">
	.st0{fill:#F45B51;}
</style>
<g id="Ebene_1_1_">
</g>
<g id="Layer_1">
	<g>
		<path class="st0" d="M266.2,144.3c0.3,1.1,1.9,0.3,2.9,0.2c1.1-0.5,3.5,1.1,3.5-0.8c0-1.3-2.1-1-3.3-1
			C267.7,142.7,265.9,143.2,266.2,144.3z"/>
		<path class="st0" d="M487,61.7c-1.5,0.2-3.1,0.4-4.6,0.6C484,62.8,485.5,63.1,487,61.7z"/>
		<path class="st0" d="M468.7,85.3c0.9,0.8,2.2,0.1,3.6-0.8c-1.1-0.1-1.6-0.2-2.1-0.2C469.4,84.5,467.4,84.2,468.7,85.3z"/>
		<path class="st0" d="M471.1,101.3c2.4-0.5,3.9-0.8,6.4-1.4C474.8,99.8,472.9,99.3,471.1,101.3z"/>
		<path class="st0" d="M274.5,143.5c-0.2,0.4,0.3,0.5,1,0.7c0.4-0.1,1.3-0.2,1.5-0.4c0.3-0.4-0.2-0.8-1-0.8
			C275.4,143,274.8,143,274.5,143.5z"/>
		<path class="st0" d="M282.5,143c-0.3,0.4,0.3,0.5,0.8,0.5c0.9-0.1,1.7-0.2,1.8-0.9c0-0.1-0.8-0.4-1.1-0.4
			C283.5,142.4,282.8,142.7,282.5,143z"/>
		<path class="st0" d="M480.1,102.6c-1.8,0-3.7,0-5.5,0.1c-3.6-0.5-7,0-10.4,0.7c-1.8-0.2-3.6-0.2-5.2,0.5c-0.4-0.5-0.7-1-1.1-1.5
			l0,0c3.7,0.3,7-0.5,10.3-1.3c-3.9,0-7.8-0.4-11.4,0.8c-0.1,0,0-0.1-0.1-0.1c0,0,0,0,0,0.1c-1-0.3-2-0.5-3-0.8
			c0.3-0.4,0.6-0.9,1-1.3c2.1-1.2,4.7-1.5,7.1-2.2c1.4,0.1,2.7-0.1,3.7-1c-1.4-0.6-2.4,0.1-3.4,0.4c0.1-0.4-1.9-0.9,0.2-1.3
			c3-0.6,1-1-0.2-1.4c-2.1-0.7-4.2-1.4-6.3-2.1c-1-0.2-2.3,0.2-3-0.6c4.2-0.9,6.9-2.6,6.5-5.7c2.9-0.3,2.2-3.7,6.1-3.1
			c-1.1-0.3-2.1-0.6-3.2-0.9c1-0.3,2-0.6,3-0.9c1.7,0,3.5,0.2,4.6-1.1c-2.6-0.3-5.2-1.2-7.8-0.1c-0.9-0.2-2.1,0.2-2.6-0.7
			c2.5-0.5,5.2-1,7.4-2c0.6-0.1,1.1-0.1,1.7-0.2c2.4-1,6.4,0,7.3-2.7c0-0.2,0-0.5,0-0.7c0.5-0.4,0.9-0.9,1.4-1.3
			c0.3-0.2,0.6-0.5,0.9-0.7c3.3-0.5,1.7-1.7,1-2.8c-2.2-2.6-6.3-1.6-9.6-2.1c-0.3,0.1-0.1,0.3,0,0.5l0,0c0-0.2,0-0.3,0-0.5
			c-0.4-0.5-0.8-0.9-1.2-1.4c0.1-0.6,0.1-1.2-0.7-1.7c1.4-1.2,0.9-1.8-1.3-1.9c0-0.4,0.1-0.8,0.1-1.2l0,0l0,0
			c0.6-0.2,2.3-0.2,0.8-0.8c-1.2-0.5-3.1-0.2-4.4,0.5c0.2,0,0.4,0.1,0.6,0.1l0,0c-0.2,0-0.3-0.3-0.6-0.1c-0.6,0.1-1.3,0.1-1.9,0.2
			c-0.7-0.1-1.3-0.1-2-0.2c0.7-0.4,1.4-0.9,2.1-1.3c2.2,0.1,4.1-0.7,6-1.3c0.7-0.2,1.9-0.1,2-0.8c0.1-1.3,0.4-1.3,1.7-2
			c1.5-0.8,3.8-0.6,4.7-1.8c-0.2-1.6-4,0.4-3.5-1.7c1.2-0.5,2-1.2,2.1-2.2c1.2-0.4,1.2-0.9,0.3-1.5c0.2-1.3,0.4-2.7,0.4-4
			s0.2-2.9-2.9-2.9c-0.3-0.2-0.6-0.2-0.9-0.1c-4-2.4-8-0.9-12,0c-1.5-1.4-1.5-1.4,0.6-1.9c1.9-0.4,4.3-0.2,4.9-2
			c2.8-0.8,6.2-0.5,8.5-2.1c2.2-0.6,4.5-1.1,7.3-1.8c-2.4-1.5-4.6-2.5-7.1-3.2c-0.1-0.9-0.5-1.6-2.3-1.4c-2.5-0.6-3.7-1.5-3-3.6
			c1-2.9-3.1-6-7.8-6.8c-1.8,0.1-3.8-0.2-5.4,0.7l0,0l0,0c-2.8,0-5.7,0-8.4,0.8c-0.6,0-1.3,0-1.9,0c-0.2-1.9-3.5-0.7-5-1.9
			c7-1.8,14.6-1.1,22.2-4.3c-4.4,0-7.3,0.1-10.2,0c-4.2-0.1-8.6,1.4-12.5-0.6l0,0l0,0c-0.4,0-0.7,0-1.1,0c-1.7,0-3.5-0.1-5.2-0.1
			c-0.3-0.1-0.5-0.1-0.8-0.1c-3.5-1-7.1-1.3-10.9-1.3c-4.1-1.1-8.4-1.4-12.7-1.4C399.2,7.8,390,7.8,380.8,8c-2.7-0.4-5.4-0.4-8,0
			c-0.8,0-1.7,0-2.5,0l0,0c-1.5-0.8-3.3-0.6-5-0.6c-10.1,0-20.2,0-30.3,0c-9.7-0.3-19.5-0.2-29.2,0.1c-4.4,0.2-8.9-0.8-13.2,0.6
			c-0.3,0.2-0.6,0.4-0.9,0.6c-4.1-1.9-8.6-1.6-13.1-0.7c0.1,0.1,0.2,0.2,0.4,0.3c-0.1,0-0.1,0-0.2,0c0.3,0.2,0.6,0.4,1,0.6l0,0
			c-0.2-0.3-0.5-0.5-1-0.6L278.6,8c-0.7,0.1-1.4,0.1-2.1,0.1c-3.1-1-6.3-0.3-9.5-0.1l0,0c-1.7,0-3.3,0-5,0c-1.7-0.1-3.5-0.3-5.2-0.3
			c-15.3-0.1-30.7-0.2-46-0.1c-5.8,0-11.6-0.4-17.4,0.5c-8.7,0-17.4,0.3-26.1,0.9c-3.3,0.1-6.7-0.3-9.9,0.5c3.2,0,6.5,0,9.7,0.1l0,0
			c-3.2-0.5-6.4-0.4-9.7-0.1c-2,0.1-4.1,0.1-6.1,0.2c-2.6,0-5.3-0.3-7.8,0.5l0,0c-2,0-3.9,0.1-5.9,0.1c-3.3,0.1-6.6-0.3-9.8,0.5
			c-1.7,0.1-3.3,0.1-5,0.2c-3.6,0-7.3-0.3-10.8,0.6c-0.6,0-1.3,0.1-1.9,0.1c-2.9,0.1-5.9-0.3-8.7,0.6c-0.3-0.1-0.6,0-0.9,0.1
			c-3.3,0-6.6-0.2-9.8,0.6c-1,0.1-1.9,0.1-2.9,0.2c-0.4,0-0.7,0-1.1,0c-1.8-0.1-3.7-0.1-5.4,0.5c-0.1,0-0.2,0-0.3,0
			c-3.2,0-6.4-0.3-9.5,0.8l0,0c-4.7,0-9.4,0.2-13.8,1.3l0,0c-1,0.1-1.9,0.1-2.9,0.2c-1.9,0.4-3.7,0.8-5.6,1.2
			c0.1,0.1,0.3,0.2,0.4,0.3c0.1,0.1,0.1,0.2,0.2,0.3c-0.2,0-0.5,0.1-0.7,0.1c0.1-0.2,0.3-0.4,0.2-0.7c-5.7,0.7-11.4,1.5-16.8,2.9
			c-0.3-0.1-0.6,0-0.9,0.1c-0.8-0.1-1.7-0.1-2.3,0.4c-4.4,0.7-8.8,1.6-13.3,2.2c-3.1,0.4-4.1,1.5-3.9,3.4l0,0
			c-1.3,0.8-0.8,1.9-0.9,2.9l0,0l0,0c-0.9,1.8-0.9,3.7-0.8,5.6l0,0l0,0l0,0l0,0c-0.3,1.6-0.5,3.3,0,4.9c-0.4,1.2-0.2,2.4,0.7,3.5
			c-0.4,1.1-0.7,2.3,0,3.4c-2,1.9,1,4.5-2.1,6.1c-0.2-0.3,0-0.3,0-0.2c0,0,0,0-0.1,0l-0.2-0.2c-1.3,0.2-2.6,0.4-3,1.5
			c-1.2,0.8-0.8,1.9-0.9,2.9c0,0.5,0,0.9-0.1,1.4c-1.7,3.7,0,7.4,0.1,11.1c0.3,0.2,0.7,0,1,0l0,0c-0.3,0-0.7,0-1,0
			c0.4,1.6,0.7,3.2,1.1,4.8l0,0c0.3,1.2,0.7,2.3,1,3.5c0,0.9,0.6,1.6,1.7,2.1c0,0.6,0,1.3,0,1.9c-1.6,1.4-3,2.8,1.5,2.9
			c0-0.2-0.1-0.4-0.1-0.6c0.1,0,0.1,0,0.2,0c-0.1,0.2-0.3,0.4-0.1,0.6c1.9,0.9,5.5-1.3,6.4,1.5c0.7,0.1,0.8-0.3,1.1-0.5l0,0
			c0.3-0.1,0.6-0.1,0.9-0.2l0,0l0,0l0,0c0,0.1-0.2,0.1-0.2,0.2c-0.2-0.1-0.5-0.2-0.7-0.1c-0.4,0.2-0.8,0.4-1.1,0.5
			c-0.7,0-1.4,0.1-2.1,0.1c-2.6-0.1-5.2-0.3-7.8,0.4c-1.2,0-2.2,0.4-2.3,1.1c-0.1,0.8,1.2,0.6,2,0.7c3.3,0.2,6.6,0.4,9.9,0.5
			c0,0.4,0,0.9,0.1,1.3c-2.5,0-4.9,0-7.8,0c1.9,2.5,5.5-0.3,6.9,1.9c0.1,0.1,0.3,0,0.4,0.1c-0.1,0.1-0.1,0.3-0.3,0.4l0,0l0,0
			c-0.1-0.2-0.2-0.3,0-0.5c-1.7,0.1-3.4,0.3-5.1,0.4c-1.4,0-3.1-0.5-3.9,0.6c-0.3,0.4,0.9,0.5,1.5,0.6l0,0c2.9-0.5,4.7,1.5,7.4,1.5
			c-0.3,5.4-1.7,10.7,1.4,16c0,0.2,0.1,0.5,0.1,0.7c0,0.7,0,1.4-0.1,2.1c-0.1,0.4-0.2,0.8-0.3,1.2c0.1,0.3,0.2,0.9,0.3,1.2
			c-0.1,0,0,0.1-0.1,0.1c0.7-0.5,0.4-1-0.2-1.4c-0.9,1.4-1.4,2.8-0.7,4.3c-2.7,3-0.7,6.7-3.4,9.8c-0.4,0.7-1.3,1.4-0.3,2.1
			c-0.2,0.7-0.4,1.4-0.6,2.2l0,0l0,0c-0.1,0.9-0.1,1.8-0.2,2.7c0,0.8-0.3,1.6,1.2,2.1c0.3,0,0.6,0,0.9,0.1c-0.7,0.4-1.4,0.8-2.1,1.2
			l0,0c-0.2,1.4,0,2.4,2.9,2.3c4.7-0.2,9.4-0.2,14.2-0.3c3.9,0.1,7.9,0.5,11.7-0.5l0.3,0.1l0.3-0.1c3.2,1,6.6,1,10,1.2
			c5.8,1.5,12.1,0.9,18.1,1.3c7.1,0.3,14.1,1.2,21.2,0.8c0.4,0,0.7,0,1.1,0c3,1.3,6.4,0.3,9.6,0.6c2.1,0,4.2,0,6.3,0
			c-0.3-0.2-0.7-0.4-1-0.6h0.1c0.2,0.2,0.5,0.5,0.9,0.6c1.1,0,2.2,0,3.3,0.1c4.2,0.1,8.4,0.2,12.6,0.2c3.8,1.3,7.8-0.1,11.7,0.3
			c0.7,0.2,1,0,1.1-0.4l0,0c1.8-0.2,3.9,0.5,5.2-0.9c0.4,0,0.8,0.1,1.2,0.1c3.2,1.6,6.5,2.9,9.7,0c0.4-0.2,0.7-0.4,1.1-0.6l0,0l0,0
			c0.3,0,0.6-0.1,0.9-0.1c0.7,0.2,1.3,0.5,2,0.7c0.3,0.8,0.8,1.2,2.3,1.4c3.6,0.3,7.1-0.1,10.5-0.6c0.2-0.3,0-0.5-0.1-0.8
			c0.1,0,0.1,0,0.2,0c0,0.2-0.1,0.5-0.1,0.7c1,1.4,2.9,0.1,4.2,0.5c2.6,0,5.1,0,7.7,0c1.1,0,2.4,0.5,3.1-0.5l0,0l0,0
			c4.2,1.5,8.4,0.3,12.5,0c1.9,0.2,3.7,0,5.3-0.7c1.5,1.2,3,2.5,5.6,0.8c0.5-0.4,0.3-0.7-0.2-1l0,0c0.1,0.3,0.1,0.7,0.2,1
			c1.4-0.9,2.9,1.4,4.2-0.1c0.3,0,0.6,0,0.9-0.1c3.6-0.8,7.1,2,10.6,0c0.7,0,1.4,0.1,2,0.1c1.8,0.1,3.6,0.6,5.3-0.1
			c1.4,0.1,2.8,0.2,4.2,0.2c1.4-0.5,6.2,0.5,2.2-2.3c1.1,0,2.2,0,3.2,0c3.5,0.6,6.8,2,10.7,1.4c1.4,0.6,2.9,0,4.3,0
			c0.6,0,1.2,0,1.8,0c0.8,0.6,1.7,0.8,2.5,0c1.2-0.6,2.8-1,1-2.2c0-0.2,0-0.3,0-0.5c1.4-0.1,2.8-0.2,4.2-0.3c3-0.1,6.1,0.4,8.7-1.1
			c0.9-0.1,1.9-0.1,2.8-0.2c0.7,0.3,1.4,0.6,2.2,0.7c0.8,0.2,1.8,1,2.6,0.2c0.7-0.8-1.1-0.9-1.4-1.5l-0.1-0.1
			c3.2,0.1,6.4,0.1,9.5,0.2v0.2v0.2c-0.8,0.1-1.6,0.3-2.4,0.4c0.4,0.8,1.3,1.3,2.5,1.7c-1.2,2.2,0.7,2.4,3.3,2.1
			c0.7-0.2,1.4-0.4,2.1-0.6c1.1,0,2.4,0.2,3.1-0.7c2.7-0.2,5.5,1.3,8-0.3c-1.1-1.3-3.7-0.6-4.9-1.7c2.7,0.1,4.2-1.5,6.5-2
			c0.7,0,1.4,0,2,0c-0.1,1.3,0.8,2,3,2s2.4-1,2.4-2c1-0.1,2.1-0.2,3.1-0.2c0.2-0.2-0.1-0.4-0.2-0.5h0.1l0,0l0,0c0,0.2,0,0.3,0,0.5
			c0.3,0.1,0.7,0.2,1,0.2c0.4,0.6-1.6,1.7,0.7,1.9c2.3,0.3,2.6-0.8,2.6-1.9c0.3-0.2,0.6-0.2,1,0c0.4,0.7,0.8,1.3,1.1,2
			c0,0.2-0.1,0.4-0.1,0.5c-1.2,0.4-3.2-0.4-4.1,1.4c2.6-0.3,4.8-0.7,6.8,0.7c0.9,0.6,2.7,0.2,3.8-0.4c2.4-0.1,4.9,1,7.3-0.1
			c1.1,0,2.2,0.2,2.9-0.6c1.6-0.4,1.2-1.3,1.4-2.1c0.7-0.1,1.4-0.1,2.2-0.2c1,0.2,2,0.1,2.7-0.5c0.2-0.1,0.5-0.2,0.7-0.3l0,0
			c-0.2,0.1-0.6,0.1-0.7,0.3c2,1.1,4.3-0.1,6.4-0.1c0.8,0.1,1.6,0,2.2,0.6c1.6,1.3-2.2,0.5-1.2,1.7c2.2-0.1,5,0.3,4.7-2.3
			c2.8,0.2,5.1,2.7,8.3,0.7c1.5,0.2,3,1.3,4.6,0.1c1-0.1,1.9-0.2,2.9-0.2c0.4,0,0.7,0,1.1,0.1c2.7,0,5.7,0.9,7.5-1.4
			c0-0.5,0-0.9,0-1.4c0.1,0,0.1,0,0.2,0c-0.5,0.4-0.7,0.9-0.2,1.4c2.3,0.7,4.8,1.9,6.4-0.6c0.2-0.3,0-0.5-0.2-0.7c0.1,0,0.1,0,0.2,0
			c0,0.2,0,0.5,0,0.7c1.8,0.5,3.6,1.1,5.5,0.1c1.7,0,3.4-0.1,5.1-0.1c1.6,0.2,3-0.2,4.3-0.7c1,0,2.1,0,3.1,0
			c1.8-0.7,3.5-1.4,5.3-2.1c2.1-0.5,4.2,1.6,6.4,0c-0.4-0.5-0.7-0.9-1.1-1.4c0-0.2,0-0.5,0-0.7c1.2-0.5,2.9-0.6,3.5-1.7
			c-1.4-0.9-2.4,0.1-3.5,0.3c-0.3,0-0.7,0-1,0c0-0.4,0-0.9,0-1.3c0.7-0.3,1.5-0.5,2.2-0.8l0,0c2.4-0.7,5.2,0.7,7.4-0.7l0,0l0,0
			c1.8-1.1,5.2,0,6.2-2c2.2,0.5,4.1,0.2,6.4-0.7c-2.5,0-4.4,0-6.3,0c0.4-0.6,1.2-0.7,2.1-0.7c1.1-0.3,2.2-0.6,4.2-1.2
			c-2.2-0.2-3.4-0.3-4.2,0.6c-0.3,0-0.7,0-1,0c0.1-1.1,2.5-2.2,0.1-3.3c1.4-0.1,2.7-0.1,4.1-0.2c0.8,0.5,0.2,2,1.3,1.7
			c1.8-0.4,0.1-1.5,0-2.3l0,0c4.7-0.5,9.4-1.2,14.5-2.5c-4.3-0.8-7.7,2-11.4,0.3c2.8-0.8,5.9-0.8,8.4-2c2.4-0.4,5.7,0.3,6.6-2.1l0,0
			c0.6-0.1,1.3-0.2,1.1-0.7c1.3,0,2.6,0.1,3.9,0.1c2.5,1.4,4.4-0.1,6.6-0.6c-2.4,0.2-4.4-1-6.7-0.8c-1.5-0.1-3.1-0.3-4.2,0.7
			c-1.4,0-2.7,0-4.1,0c-0.4-0.2-0.7-0.4-1.1-0.7c0.8-0.1,1.7-0.1,2.1-0.7c5-0.2,9.4-1.6,13.8-2.8c0.7,0,1.4-0.1,2.1-0.1l0,0l0,0
			c1.2-0.6,2.1-1.4,2.5-2.4c-1.5-0.6-2.4,0.3-3.5,0.5c-0.4,0-0.8,0-1.2,0c-1.5-0.2-2.8,0.1-4,0.6c-1.7,0-3.5,0.1-5.2,0.1
			c-1-0.4-1.8-1.1-3.2-0.9c0.4-0.4,0.8-0.8,1.2-1.3l0,0c2.4-1.5,5.9,0.2,8.3-1.4c2.7-0.1,5.4-0.1,8.2-0.2c2.3,0.5,4.3-0.7,6.5-0.7
			c1-0.6,3,0.3,3.8-1C482.2,101.7,481,101.7,480.1,102.6L480.1,102.6z M38,136.8c-0.1-0.1-0.3-0.1-0.4-0.2c0.1,0,0.2,0,0.4,0
			C38,136.7,38.1,136.7,38,136.8z M7,66.4C7,66.4,6.9,66.3,7,66.4C6.9,66.3,7,66.3,7,66.4L7,66.4z M371.9,137.9L371.9,137.9
			L371.9,137.9C371.9,137.9,371.8,137.9,371.9,137.9z M367.7,135.4c0-0.1,0-0.1-0.1-0.2c0,0,0,0,0.1,0
			C367.7,135.3,367.7,135.3,367.7,135.4z M21.5,131.1c0.1,0,0.2,0,0.3,0h-0.1C21.6,131.1,21.5,131.1,21.5,131.1z M289.1,9.9
			L289.1,9.9c0-0.1,0-0.2,0-0.3l0,0C289.1,9.7,289.1,9.8,289.1,9.9z M39.8,131.8C39.8,131.8,39.7,131.8,39.8,131.8
			c-0.1-0.1,0-0.1,0.1-0.1C39.9,131.8,39.8,131.8,39.8,131.8z M28.9,79.6L28.9,79.6c0.1-0.1,0.1-0.1,0.2-0.1
			C29.1,79.6,29,79.5,28.9,79.6z M361.8,17.4c-0.6-0.1-1.1,0.1-1.7,0.1h0.1C360.8,17.5,361.3,17.3,361.8,17.4z M450.4,69.1
			c0,0-0.1,0-0.1-0.1C450.3,69.1,450.4,69.1,450.4,69.1c0.4,0.1,0.8,0,1.1-0.1l0,0C451.1,69.1,450.8,69.1,450.4,69.1L450.4,69.1z
			 M46.1,109.5c-0.2,0-0.4,0-0.6,0c0.1,0,0.1,0,0.2-0.1C45.8,109.5,46,109.4,46.1,109.5z M434,45.4c-0.2,0-0.3,0-0.5,0
			c0.2-0.2,0.4-0.2,0.6-0.4C434,45.2,434,45.2,434,45.4z M390.1,131.6c0,0,0.1,0,0.2,0c0.2,0.1,0.4,0.2,0.7,0.2l0,0
			C390.7,131.6,390.5,131.5,390.1,131.6z M146.9,131.1L146.9,131.1L146.9,131.1L146.9,131.1z M33.1,104.3c0.2,0,0.3,0.1,0.5,0.1
			c-0.3,0-0.5,0.1-0.8,0.1C33,104.4,33.1,104.4,33.1,104.3z M243.3,16.5c-0.9,0.2-1.9,0.1-3,0c0.4,0,0.8,0,1.2-0.1
			C242,16.5,242.7,16.4,243.3,16.5z M324.2,19L324.2,19L324.2,19L324.2,19z M426,65.6C426,65.6,426.1,65.6,426,65.6
			c0.1,0.1,0.2,0.2,0.3,0.3C426.2,65.9,426.2,65.7,426,65.6L426,65.6L426,65.6L426,65.6z M287,119.9
			C287.1,119.9,287,119.8,287,119.9C287,119.9,287,119.9,287,119.9L287,119.9z M67.4,126.9L67.4,126.9L67.4,126.9L67.4,126.9
			c0.1-0.1,0.2-0.1,0.4-0.2c0,0.1-0.1,0.1-0.1,0.2C67.5,126.9,67.4,126.9,67.4,126.9z M334.6,116.9c0.4-0.1,0.9,0,1.3,0.1l0,0
			C335.5,116.9,335.1,116.9,334.6,116.9z M59.9,124.2C59.8,124.1,59.9,124.1,59.9,124.2C59.9,124.1,59.9,124.1,59.9,124.2
			L59.9,124.2z M63.4,96.5c0.3,0,0.7,0,1,0l0,0C64.1,96.6,63.8,96.6,63.4,96.5z M40.7,72c-0.1,0-0.2,0-0.3,0l0,0c0.1,0,0.3,0,0.4,0
			C40.8,72,40.7,71.9,40.7,72z M152,125.3c-0.1-0.1-0.1-0.3-0.3-0.4c0.2-0.1,0.3,0,0.5-0.1C152.1,124.9,152.2,125.1,152,125.3z
			 M80.1,33.6c-0.3,0-0.7,0-1.1,0c0.1-0.1,0.2-0.1,0.3-0.2C79.6,33.5,79.9,33.4,80.1,33.6z M177.7,25.1
			C177.8,25.2,177.8,25.2,177.7,25.1L177.7,25.1L177.7,25.1z M341.6,22.1c-0.2,0-0.4,0-0.6,0l0,0C341.2,22.1,341.4,22.1,341.6,22.1z
			 M89.6,99L89.6,99L89.6,99L89.6,99z M198.9,23.6C199,23.6,199,23.6,198.9,23.6c0.1,0.1,0,0.2,0.1,0.3h-0.1
			C198.9,23.7,198.9,23.6,198.9,23.6z M70.5,39.1C70.6,39.1,70.6,39.2,70.5,39.1C70.6,39.2,70.6,39.2,70.5,39.1
			C70.6,39.2,70.6,39.2,70.5,39.1C70.6,39.2,70.5,39.1,70.5,39.1L70.5,39.1L70.5,39.1z M233.9,24.5c-0.1-0.1-0.1,0-0.1,0
			C233.8,24.5,233.8,24.5,233.9,24.5C233.8,24.5,233.8,24.5,233.9,24.5z M310.1,32c-0.3-0.1-0.6,0-1,0c0.1,0,0.2-0.1,0.3-0.1
			C309.7,32,309.9,32,310.1,32z M382.8,34.1L382.8,34.1c-0.6-0.2-1.2-0.3-1.8-0.3C381.6,33.7,382.2,33.9,382.8,34.1z M194.8,29.4
			c0.1,0,0.2-0.1,0.3-0.1l0,0C195.1,29.4,194.9,29.3,194.8,29.4L194.8,29.4z M248.3,30.4c0,0.1,0.2,0,0.1,0.1c-0.1,0-0.2,0-0.3,0
			C248.2,30.6,248.2,30.5,248.3,30.4z M331.6,44L331.6,44C331.6,44.1,331.6,44.1,331.6,44L331.6,44z M65.5,51L65.5,51
			c0,0.1-0.1,0.2-0.2,0.3c-0.1-0.1,0-0.1-0.1-0.2C65.4,51,65.4,51,65.5,51z M365.3,63c-0.2,0-0.4,0-0.6,0l0,0
			C364.9,63,365.1,63,365.3,63z M185.9,107.5c-0.1,0-0.1,0-0.2-0.1c0.1,0,0.3,0,0.4,0C186.1,107.4,186,107.4,185.9,107.5z
			 M351.8,63.6L351.8,63.6h0.1C351.8,63.5,351.8,63.5,351.8,63.6z M183.5,106.9c0.2,0,0.5,0.1,0.7,0.1l0,0
			C183.9,107,183.6,107,183.5,106.9z M117.2,51c-0.1,0-0.2,0-0.3,0l0.1-0.1C117.1,50.9,117.2,50.9,117.2,51z M134.2,53.1L134.2,53.1
			L134.2,53.1L134.2,53.1z M220.2,52.4L220.2,52.4c0.3,0.3,0.8,0.3,1.3,0.4l0,0C221,52.7,220.6,52.5,220.2,52.4z M110.5,52.6
			c0.2,0,0.4,0,0.6,0.1H111C110.8,52.6,110.5,52.7,110.5,52.6z M242.4,95.6C242.4,95.5,242.4,95.5,242.4,95.6
			C242.5,95.5,242.5,95.5,242.4,95.6C242.5,95.6,242.5,95.6,242.4,95.6z M166,61.4h0.1l0,0C166.2,61.4,166.1,61.4,166,61.4z
			 M212,60.7c-0.1,0-0.2,0-0.3,0C211.8,60.7,211.9,60.7,212,60.7L212,60.7z M239.3,53.7c0.1,0,0.1,0,0.2,0
			C239.4,53.7,239.4,53.7,239.3,53.7C239.4,53.8,239.3,53.7,239.3,53.7z M270,53L270,53C270.1,53,270,53.1,270,53L270,53z
			 M253.3,60.7c-0.1,0-0.1,0-0.2,0C253.1,60.6,253.2,60.7,253.3,60.7C253.2,60.7,253.2,60.7,253.3,60.7z M264.7,53.8
			c-0.2,0-0.3-0.1-0.5-0.1c0.1,0,0.1,0,0.2-0.1C264.5,53.7,264.7,53.7,264.7,53.8z M271.1,81.6L271.1,81.6L271.1,81.6L271.1,81.6z
			 M275.3,74.7c0.1,0,0.2,0,0.3,0C275.6,74.7,275.5,74.7,275.3,74.7C275.4,74.7,275.4,74.7,275.3,74.7z M247.4,87.9
			c0.1,0,0.3,0,0.4,0l0,0l0,0l0,0C247.6,87.9,247.5,88,247.4,87.9C247.4,88,247.4,87.9,247.4,87.9z M257.2,51
			C257.2,50.9,257.1,50.9,257.2,51c0-0.1,0.1,0,0.1,0C257.2,51,257.2,51,257.2,51z M141.6,55.9L141.6,55.9L141.6,55.9
			C141.7,55.8,141.7,55.9,141.6,55.9c0.1,0,0.1,0,0.1,0C141.7,55.9,141.7,55.9,141.6,55.9z M141.6,59.3c0.7-0.3,0.6-0.7,0.7-1
			c0,0.3-0.2,0.5-0.6,0.8l0,0l0,0C141.7,59.2,141.7,59.3,141.6,59.3L141.6,59.3C141.6,59.4,141.6,59.4,141.6,59.3
			c0,0.2,0,0.3-0.1,0.4C141.6,59.6,141.6,59.5,141.6,59.3c-0.1,0.1-0.1,0-0.2,0C141.5,59.3,141.6,59.3,141.6,59.3z M167.4,61.9
			c0.2,0,0.3,0,0.5,0.1c-0.4,0-0.6,0-1,0C167.1,61.9,167.3,61.9,167.4,61.9z M243.6,78.7c0.1-0.1,0.3,0,0.4-0.1c0.1,0,0.2,0,0.3,0.1
			C244.1,78.7,243.8,78.7,243.6,78.7z M264.8,49.5c0-0.1,0-0.1,0-0.2c0,0.1,0.1,0.1,0.1,0.2C264.8,49.5,264.8,49.5,264.8,49.5z
			 M112.7,53.1c0.1,0,0.3,0,0.3,0c-0.1,0-0.1,0-0.2,0H112.7z M188.7,94.8l0.1,0.1c-0.1,0-0.2,0-0.3,0c0,0,0,0-0.1,0
			C188.5,94.8,188.6,94.8,188.7,94.8z M294.5,90.7h-0.1c0.1,0,0.2,0,0.2,0S294.6,90.7,294.5,90.7z M295.5,53.8c0.1,0,0.1,0,0.2-0.1
			c0,0.1-0.1,0-0.1,0.1C295.6,53.8,295.6,53.8,295.5,53.8z M264.7,49.1L264.7,49.1c0.1-0.1,0.2-0.1,0.3-0.1
			C264.9,49,264.8,49,264.7,49.1z M160.8,69.1C160.8,69.1,160.9,69.1,160.8,69.1L160.8,69.1C160.7,69.1,160.8,69.1,160.8,69.1z
			 M241.4,99.7L241.4,99.7c-0.4-0.5-1-0.1-1.5-0.2C240.3,99.5,240.9,99.7,241.4,99.7z M311.4,57.3c0.2,0,0.4,0,0.6,0
			C311.8,57.4,311.6,57.3,311.4,57.3C311.4,57.4,311.4,57.3,311.4,57.3z M345.4,51L345.4,51L345.4,51L345.4,51z M287.4,51.1
			c-0.2,0-0.3-0.1-0.4-0.1c0.1,0,0.2,0,0.3,0C287.4,51,287.4,51,287.4,51.1z M124.7,50.3c-0.1,0-0.1,0-0.2,0
			C124.5,50.2,124.6,50.2,124.7,50.3C124.7,50.2,124.7,50.3,124.7,50.3L124.7,50.3z M91.8,53.8L91.8,53.8L91.8,53.8
			C91.7,53.8,91.7,53.8,91.8,53.8z M120.4,62.1C120.4,62.1,120.4,62.2,120.4,62.1C120.4,62.2,120.4,62.1,120.4,62.1L120.4,62.1z
			 M156.5,67.7L156.5,67.7L156.5,67.7L156.5,67.7L156.5,67.7z M177.7,108.1c-0.1,0-0.2,0-0.3,0c0,0,0-0.1,0.1-0.1
			C177.5,108.1,177.7,108,177.7,108.1z M311.7,59.3c-0.1,0-0.2,0-0.2,0c0-0.5,0-0.9,0-1.4c0-0.1,0-0.1,0-0.1c0,0.1,0.1,0.1,0.1,0.1
			h-0.1C310.9,58.5,311.2,58.9,311.7,59.3z M374,49.2c0,0.2-0.1,0.3-0.1,0.5c-0.1,0-0.1,0-0.2,0C373.8,49.6,373.9,49.4,374,49.2
			C373.9,49.2,373.9,49.2,374,49.2z M287,48.8c0.1,0,0.1,0,0.2-0.1c0,0,0,0,0,0.1C287.1,48.8,287,48.8,287,48.8z M279.6,45.4
			L279.6,45.4L279.6,45.4L279.6,45.4z M105.5,48.2L105.5,48.2L105.5,48.2C105.6,48.1,105.6,48.2,105.5,48.2L105.5,48.2z M84.3,53.8
			L84.3,53.8L84.3,53.8L84.3,53.8z M70.5,56.6c-0.1,0.1-0.2,0.1-0.3,0.2c0-0.1,0.1-0.1,0-0.2C70.3,56.6,70.4,56.6,70.5,56.6z
			 M117.2,64.9C117.2,64.9,117.3,64.9,117.2,64.9C117.3,64.9,117.3,64.9,117.2,64.9C117.3,64.9,117.2,64.9,117.2,64.9z M226,104
			c-0.1,0-0.1,0.1-0.2,0.2c-0.1-0.1-0.3,0-0.3-0.2C225.6,103.9,225.8,104,226,104z M312.5,89.4C312.5,89.4,312.5,89.3,312.5,89.4
			C312.5,89.3,312.5,89.3,312.5,89.4C312.5,89.3,312.6,89.3,312.5,89.4z M334.8,59.4C334.7,59.4,334.7,59.4,334.8,59.4
			C334.7,59.4,334.7,59.4,334.8,59.4L334.8,59.4L334.8,59.4L334.8,59.4z M348.4,55.6c0.1-0.1,0.2-0.1,0.3-0.1c0,0.1,0.1,0.1,0.2,0.1
			C348.7,55.6,348.5,55.6,348.4,55.6z M373.1,48.3l-0.1-0.1c0.1-0.1,0.3-0.1,0.4-0.2C373.3,48.1,373.1,48.2,373.1,48.3z M329.5,48.6
			v0.2l0,0l0,0c-0.1,0-0.1,0-0.2,0C329.4,48.7,329.4,48.6,329.5,48.6C329.5,48.6,329.5,48.5,329.5,48.6z M229.7,37.8L229.7,37.8
			L229.7,37.8L229.7,37.8z M95,47.5c-0.1,0-0.2,0-0.3,0c0-0.1-0.1-0.1-0.2-0.1C94.6,47.5,94.8,47.5,95,47.5z M104.5,67L104.5,67
			C104.6,67,104.6,67,104.5,67L104.5,67z M182,78.2L182,78.2c-0.1,0.1-0.1,0.1-0.2,0.1C181.8,78.2,181.9,78.2,182,78.2z
			 M192.6,107.4c0.1,0,0.1,0,0.2,0C192.8,107.4,192.8,107.5,192.6,107.4C192.7,107.4,192.6,107.4,192.6,107.4z M204.9,107.1
			c0.1,0.1,0.3,0.1,0.4,0.2c-0.1,0-0.2,0-0.3,0C205,107.3,204.9,107.2,204.9,107.1z M290.8,99.1c0.2,0,0.2,0.2,0.5,0.1
			C291.1,99.2,291,99.2,290.8,99.1C290.9,99.2,290.8,99.1,290.8,99.1z M290.2,97.7L290.2,97.7c4.5,0.5,9.1,0.2,13.6,0l0,0
			C299.3,96.8,294.7,96.8,290.2,97.7z M373.9,64.1c0.1-0.1,0.2-0.1,0.4-0.2c0,0.1,0.1,0.1,0.1,0.1C374.2,64.1,374,64.1,373.9,64.1z
			 M353.9,59.3L353.9,59.3L353.9,59.3L353.9,59.3z M295.8,38.4l0.1,0.1C295.8,38.4,295.8,38.4,295.8,38.4
			C295.7,38.4,295.7,38.4,295.8,38.4C295.7,38.4,295.7,38.4,295.8,38.4z M209.5,49.9c0,0.1,0,0.3,0.1,0.4h-0.1
			C209.5,50.2,209.5,50.1,209.5,49.9L209.5,49.9z M204.4,50.3c0.3,0,0.4-0.2,0.6-0.2l0,0C204.8,50.2,204.5,50.2,204.4,50.3
			L204.4,50.3z M75.8,63.5L75.8,63.5L75.8,63.5L75.8,63.5z M102.1,67c0.1,0,0.2,0,0.3,0c0,0.1,0,0.2,0,0.3c-0.1,0-0.1-0.1-0.2-0.1
			C102.2,67.2,102.2,67.1,102.1,67z M148,73.3c0,0.1,0,0.3,0,0.4l0,0C148,73.5,148,73.4,148,73.3L148,73.3z M191.5,77.5
			c-0.4,0-0.5,0.3-0.8,0.3C190.9,77.6,191.3,77.6,191.5,77.5C191.4,77.4,191.5,77.4,191.5,77.5z M179.7,78.7
			C179.8,78.8,179.8,78.8,179.7,78.7c0,0.1,0,0.1-0.1,0.1C179.7,78.8,179.7,78.8,179.7,78.7z M163.9,90L163.9,90L163.9,90L163.9,90z
			 M359.2,58.6c0.3-0.2,0.7-0.1,1-0.2c0,0.1,0,0.1,0.1,0.2C359.9,58.6,359.5,58.6,359.2,58.6z M98.2,40.6
			C98.2,40.6,98.1,40.6,98.2,40.6C98.2,40.5,98.2,40.5,98.2,40.6C98.3,40.5,98.2,40.6,98.2,40.6z M66.3,63.4c0.1,0,0.2,0,0.3,0
			c-0.1,0.1-0.2,0.1-0.2,0.2v0.1c-0.1-0.1-0.2,0-0.2-0.1c0.1,0,0.1,0,0.2,0L66.3,63.4z M66.3,64.8L66.3,64.8c0-0.2,0.2-0.4,0-0.6
			c-0.1,0-0.1,0-0.2,0c0.1-0.1,0.2-0.2,0.2-0.3v0.3C66.3,64.4,66.3,64.6,66.3,64.8z M66.4,66.2L66.4,66.2
			C66.3,66.3,66.3,66.3,66.4,66.2C66.3,66.2,66.3,66.2,66.4,66.2z M103.5,69.4L103.5,69.4c-0.1-0.1-0.1-0.2-0.1-0.3h0.1
			C103.5,69.2,103.5,69.3,103.5,69.4z M141.6,94.2C141.6,94.2,141.5,94.1,141.6,94.2C141.6,94.1,141.6,94.1,141.6,94.2L141.6,94.2z
			 M237.6,111.6c0-0.1,0-0.2,0-0.3c0.2,0.1,0.3,0.3,0.6,0.3l0,0C238,111.6,237.8,111.6,237.6,111.6z M383.6,64.2L383.6,64.2
			C383.6,64.2,383.6,64.3,383.6,64.2C383.6,64.3,383.6,64.2,383.6,64.2z M373,58.7c0.3,0,0.7,0,1,0c-0.3,0.1-0.6,0.1-0.9,0.2
			C373.1,58.8,373,58.7,373,58.7z M393.1,52.5C393.1,52.4,393.2,52.4,393.1,52.5C393.2,52.4,393.2,52.4,393.1,52.5
			C393.2,52.4,393.2,52.4,393.1,52.5z M388,52.3c-0.1-0.2-0.1-0.4-0.2-0.6l0,0C387.8,51.9,387.9,52.1,388,52.3L388,52.3z
			 M254.3,31.4c0,0.1,0.1,0.1,0.2,0.2c-0.1-0.1-0.2-0.1-0.3-0.2C254.2,31.5,254.2,31.5,254.3,31.4z M204.1,46c0.1,0,0.2,0,0.2,0.1
			c-0.2,0.1-0.4,0-0.5,0.1C203.9,46.1,204,46.1,204.1,46z M102.5,40.7c0-0.1-0.1-0.1-0.1-0.2l0,0l0,0c0.1,0,0.1,0,0.2,0
			C102.5,40.6,102.6,40.7,102.5,40.7z M102.3,39.1C102.3,39.1,102.2,39.1,102.3,39.1L102.3,39.1L102.3,39.1z M63.1,65L63.1,65
			C63.2,65,63.2,65,63.1,65L63.1,65L63.1,65z M120.5,78.8C120.4,78.8,120.4,78.8,120.5,78.8c0-0.1,0-0.2,0-0.3l0,0
			C120.4,78.7,120.4,78.8,120.5,78.8z M114.2,96.7C114.2,96.6,114.1,96.5,114.2,96.7c0.5-0.1,1-0.1,1.4-0.1
			C115.2,96.6,114.7,96.6,114.2,96.7z M118.3,97L118.3,97c-0.5-0.1-1,0-1.5,0C117.3,97,117.8,97,118.3,97z M119.5,100.1L119.5,100.1
			L119.5,100.1C119.4,100.1,119.5,100.1,119.5,100.1z M104.4,111.6C104.4,111.6,104.5,111.6,104.4,111.6
			C104.5,111.6,104.4,111.6,104.4,111.6L104.4,111.6z M150,114.2c0,0,0.1,0.1,0.2,0.1c-0.1,0-0.2,0-0.3,0
			C149.8,114.3,150,114.3,150,114.2z M196.3,114.5c0.1,0,0.2,0,0.3,0c0,0,0,0,0-0.1c0.1,0,0.1,0,0.2,0c-0.1,0-0.1,0-0.2,0
			c0.2-0.1,0.1-0.2,0.1-0.4h0.1c0,0.1,0,0.2,0,0.3c0.2,0,0.3,0.1,0.5,0.1c-0.3,0-0.6-0.1-0.8,0c-0.2,0-0.3,0-0.5,0
			C196.1,114.5,196.2,114.5,196.3,114.5z M356,83.8C356,83.8,356,83.7,356,83.8C356,83.7,356,83.7,356,83.8
			C356.1,83.7,356,83.7,356,83.8z M251,28.8c0,0-0.1,0-0.1-0.1l0,0C251,28.7,251,28.7,251,28.8C251,28.7,251.1,28.7,251,28.8z
			 M191.1,40.8c-0.2,0.1-0.4,0-0.6,0c-0.2,0-0.4,0-0.6,0C190.3,40.7,190.6,40.8,191.1,40.8C190.7,40.3,191.8,40.7,191.1,40.8z
			 M104.5,40.5L104.5,40.5L104.5,40.5L104.5,40.5L104.5,40.5z M106.5,35.7C106.5,35.6,106.5,35.6,106.5,35.7
			C106.5,35.6,106.6,35.7,106.5,35.7L106.5,35.7L106.5,35.7z M51.3,62.2L51.3,62.2L51.3,62.2L51.3,62.2L51.3,62.2z M109.6,88.4
			c0,0.1,0.1,0.1,0.2,0.2c-0.1,0-0.1,0-0.2,0C109.7,88.5,109.6,88.5,109.6,88.4z M107,90c-0.3,0.1-0.6,0.1-0.8,0.3
			c-0.4-0.2-0.8-0.1-1.2-0.2C105.6,90.1,106.3,90.1,107,90z M118.3,97.4c0,0.1,0,0.1,0,0.2h-0.1C118.2,97.6,118.3,97.5,118.3,97.4z
			 M161.8,117.8L161.8,117.8L161.8,117.8L161.8,117.8L161.8,117.8L161.8,117.8C161.8,117.9,161.8,117.8,161.8,117.8
			c0,0.2,0.1,0.3,0.1,0.5c-0.1-0.2-0.3-0.3-0.5-0.5C161.6,117.8,161.7,117.8,161.8,117.8z M161.8,117.2L161.8,117.2
			C161.8,117.1,161.8,117.1,161.8,117.2L161.8,117.2z M386.8,92.8L386.8,92.8L386.8,92.8L386.8,92.8z M391,60.1c0.1,0,0.1,0,0.2,0
			v0.1C391.1,60.1,391,60.1,391,60.1z M388.9,41.9L388.9,41.9L388.9,41.9L388.9,41.9z M194.7,30.1L194.7,30.1L194.7,30.1L194.7,30.1
			z M134.2,32.9L134.2,32.9c-0.1,0-0.1,0-0.1,0C134.1,32.9,134.2,32.9,134.2,32.9z M111.9,38.4C111.9,38.4,112,38.4,111.9,38.4
			L111.9,38.4L111.9,38.4z M32.3,42.6L32.3,42.6L32.3,42.6L32.3,42.6L32.3,42.6z M99.9,79c0-0.1,0.1-0.1,0.1-0.2c0.1,0,0.2,0,0.2,0
			C100.1,78.9,100,78.9,99.9,79z M97.5,88.3c-0.2,0.1-0.2,0.1-0.3,0.1c-0.1-0.2-0.3-0.1-0.4-0.2C97,88.3,97.2,88.3,97.5,88.3z
			 M180.9,118.5L180.9,118.5L180.9,118.5L180.9,118.5z M306.1,108.1c0.3,0,0.7,0,1,0l0,0C306.8,108,306.5,108,306.1,108.1
			L306.1,108.1z M375.1,87.2c0.1-0.1,0.3,0,0.4-0.1c0.2,0.1,0.4,0.1,0.5,0.1C375.7,87.2,375.4,87.2,375.1,87.2z M392.1,61.4
			L392.1,61.4c0.1-0.1-0.1-0.1,0-0.2l0,0V61.4z M401.7,35C401.7,35,401.6,35,401.7,35C401.6,35,401.7,35,401.7,35L401.7,35z
			 M320.9,33.6C320.9,33.6,321,33.5,320.9,33.6C321,33.5,321,33.6,320.9,33.6C321,33.6,320.9,33.6,320.9,33.6z M232.9,25.2
			c-0.4-0.1-0.4,0.2-0.6,0.3c-0.1-0.1-0.3-0.1-0.4-0.2C232.2,25.2,232.5,25.2,232.9,25.2L232.9,25.2L232.9,25.2L232.9,25.2z
			 M179.9,30.1L179.9,30.1c-0.2,0.1-0.3,0.2-0.5,0.3l0,0C179.5,30.3,179.7,30.2,179.9,30.1z M187.3,37.1L187.3,37.1L187.3,37.1
			L187.3,37.1C187.3,37.1,187.3,37,187.3,37.1C187.4,37,187.4,37.1,187.3,37.1z M139.5,38.5c-0.2,0-0.4,0-0.6-0.1
			c0.2-0.1,0.4,0,0.6-0.1C139.5,38.3,139.5,38.4,139.5,38.5z M127.9,31.5c-0.1,0-0.2,0.1-0.3,0.1c-0.1,0-0.2-0.1-0.2-0.1
			C127.6,31.5,127.7,31.5,127.9,31.5z M100.3,34.3L100.3,34.3L100.3,34.3L100.3,34.3z M84.2,36.4C84.2,36.3,84.3,36.3,84.2,36.4
			C84.3,36.4,84.3,36.4,84.2,36.4C84.3,36.4,84.2,36.4,84.2,36.4z M39.8,39.2c-0.2,0-0.3,0.1-0.5,0.1c0.1-0.1,0.3-0.1,0.4-0.2
			C39.7,39.1,39.8,39.1,39.8,39.2z M54.6,69.1c-0.2,0-0.3,0-0.5,0c0,0,0-0.1,0.1-0.1C54.3,69.1,54.5,69,54.6,69.1z M111.6,118
			c0.1,0.2,0.3,0.3,0.4,0.5c-0.1,0-0.2,0-0.3,0C111.7,118.3,111.5,118.2,111.6,118z M130,120.6L130,120.6L130,120.6L130,120.6
			c-0.1,0.1,0,0.2-0.1,0.2c0-0.1,0-0.2-0.1-0.2C129.9,120.6,129.9,120.6,130,120.6z M183,120.6L183,120.6L183,120.6L183,120.6z
			 M251.4,124.1c0.2,0,0.4,0,0.6,0l-0.1,0.1C251.7,124.1,251.6,124.1,251.4,124.1L251.4,124.1z M309.6,113.3
			c0.1,0.1,0.1,0.3,0.2,0.4c-0.2,0-0.4,0-0.5,0C309.4,113.5,309.5,113.4,309.6,113.3z M372.9,101.9c0.2,0.1,0.3,0,0.5,0.1
			c-0.1,0-0.1,0.1-0.2,0.1C373.1,102,373,102.1,372.9,101.9z M411.3,63.8c0.1-0.1,0.1-0.2,0.1-0.3c0.3,0,0.6,0,0.8,0
			C412,63.8,411.6,63.7,411.3,63.8z M408.9,37.7c-0.1-0.1-0.2-0.1-0.3-0.1c0,0,0,0-0.1,0c-0.2,0-0.4,0-0.3-0.3
			C408.5,37.5,408.7,37.6,408.9,37.7L408.9,37.7z M393.2,34.9L393.2,34.9C393.2,34.9,393.1,34.9,393.2,34.9
			C393.1,34.9,393.2,34.9,393.2,34.9z M311.9,31c0.6,0.1,1,0,1.6,0c-0.2,0.1-0.3,0.2-0.5,0.4C312.7,31.2,312.4,31.3,311.9,31z
			 M184.1,23.8c-0.1,0-0.1,0-0.2,0c0,0-0.1,0-0.1-0.1C183.9,23.8,184,23.9,184.1,23.8z M202.1,32.2L202.1,32.2l-0.1,0.1
			c-0.2-0.1-0.5,0-0.7-0.1C201.6,32.2,201.9,32.2,202.1,32.2z M99.2,34.3L99.2,34.3c0.2-0.6-0.2-1-1-1.3l0,0
			C98.5,33.4,98.9,33.9,99.2,34.3z M69.5,72.6C69.5,72.6,69.4,72.6,69.5,72.6C69.4,72.6,69.4,72.6,69.5,72.6
			C69.4,72.6,69.5,72.6,69.5,72.6z M128.6,124.8c0.2-0.1,0.2-0.3,0.3-0.4c0,0.1,0,0.3,0,0.4C128.8,124.8,128.7,124.8,128.6,124.8z
			 M398.3,80.1c-0.1-0.1-0.1-0.1-0.1-0.2s0.1-0.1,0.1-0.2v0.1C398.9,79.6,398.4,80.4,398.3,80.1z M354.8,31.4
			C354.8,31.4,354.9,31.4,354.8,31.4C354.9,31.4,354.9,31.5,354.8,31.4L354.8,31.4C354.9,31.5,354.8,31.5,354.8,31.4
			C354.8,31.5,354.8,31.4,354.8,31.4z M318.9,28.7l-0.1,0.1C318.9,28.8,318.9,28.7,318.9,28.7L318.9,28.7z M151.1,28L151.1,28
			c-0.6,0-1.2,0-1.8,0l0,0C149.9,28.1,150.5,28,151.1,28z M143.9,26.3L143.9,26.3L143.9,26.3L143.9,26.3z M56.9,35.6L56.9,35.6
			c0.7,0,1.1-0.3,1.6-0.5C57.9,35.3,57.3,35.4,56.9,35.6z M50.4,38.5c0-0.1,0-0.1,0-0.2C50.4,38.4,50.5,38.4,50.4,38.5
			C50.5,38.5,50.5,38.5,50.4,38.5z M50.4,37.9C50.4,37.9,50.4,37.8,50.4,37.9c0.1-0.1,0.2-0.1,0.3-0.1
			C50.6,37.8,50.5,37.8,50.4,37.9z M29.2,59.4L29.2,59.4v0.2c0-0.1-0.1-0.1-0.1-0.2C29.1,59.4,29.1,59.4,29.2,59.4z M25,64.2
			L25,64.2C25,64.2,25,64.3,25,64.2C25,64.3,25,64.2,25,64.2L25,64.2z M26,67L26,67L26,67L26,67z M72.4,113.5c0.1,0,0.2,0.1,0.3,0.1
			C72.6,113.6,72.5,113.6,72.4,113.5C72.4,113.6,72.4,113.6,72.4,113.5z M317.2,115.5c-0.1,0.1-0.2,0.1-0.2,0.2
			c-0.2-0.1-0.5,0-0.7-0.2C316.6,115.5,316.9,115.5,317.2,115.5z M415.7,62.4c-0.1-0.1-0.2-0.1-0.3-0.2c0.1,0,0.2,0,0.4,0
			C415.7,62.2,415.8,62.3,415.7,62.4z M418.7,42.5c0.1,0,0.2,0.1,0.2,0.1C418.8,42.6,418.7,42.6,418.7,42.5
			C418.6,42.6,418.7,42.6,418.7,42.5z M408,33.6c0.1-0.1,0.1-0.2,0.1-0.2c0.1,0.1,0.1,0.1,0.1,0.2C408.1,33.6,408.1,33.6,408,33.6z
			 M380.4,30.1L380.4,30.1C380.4,30.1,380.5,30.1,380.4,30.1L380.4,30.1z M379.3,30.1c-0.1,0-0.2,0-0.3,0l0,0
			C379.1,30.1,379.2,30.1,379.3,30.1z M353.9,27.3L353.9,27.3L353.9,27.3L353.9,27.3z M249.9,23.8c-0.1-0.1-0.2-0.2-0.3-0.3
			C249.8,23.6,249.8,23.8,249.9,23.8L249.9,23.8z M71.6,26.6L71.6,26.6c0.1,0,0.3,0,0.4,0C71.9,26.6,71.8,26.6,71.6,26.6z
			 M49.3,116.4L49.3,116.4c0-0.1,0-0.2,0-0.3C49.3,116.2,49.3,116.3,49.3,116.4z M58.8,125.5L58.8,125.5
			C58.9,125.5,58.9,125.5,58.8,125.5C58.8,125.6,58.8,125.6,58.8,125.5C58.8,125.6,58.8,125.5,58.8,125.5z M180.5,128
			c0,0.2-0.2,0.3-0.4,0.5H180C180.1,128.3,180.3,128.1,180.5,128z M412.2,80.9c0.1-0.1,0.1-0.1,0.2-0.2c0,0.1,0,0.1,0,0.2
			C412.4,80.9,412.3,80.9,412.2,80.9z M426,77.4L426,77.4L426,77.4L426,77.4z M353.9,22.4c0,0,0.1,0,0.1-0.1c0,0,0,0,0,0.1H353.9z
			 M284.4,18.5c-0.1,0-0.3,0-0.4-0.1c0.4,0,0.7,0,1.1-0.1C284.9,18.4,284.8,18.5,284.4,18.5z M238.5,18.3c-0.1,0-0.2,0-0.3-0.1
			C238.3,18.2,238.4,18.3,238.5,18.3L238.5,18.3z M236.2,16.9C236.2,16.9,236.1,16.9,236.2,16.9c0.7,0.1,1.5-0.2,2.3-0.2
			C237.7,16.7,236.9,16.7,236.2,16.9z M188.4,20.4C188.4,20.4,188.3,20.4,188.4,20.4c0-0.1,0.1-0.1,0.1-0.1
			C188.4,20.4,188.4,20.4,188.4,20.4z M130.8,24.8c0.1,0,0.1,0,0.2,0C130.9,24.8,130.9,24.8,130.8,24.8L130.8,24.8z M87.2,30.1
			L87.2,30.1c0.1,0,0.2,0,0.3,0C87.4,30.1,87.3,30.1,87.2,30.1z M34.3,74c0.1,0,0.1,0,0.2,0l0,0l0,0C34.4,74,34.4,74,34.3,74
			L34.3,74z M44.8,81.6c0.1,0,0.2,0,0.2,0C45,81.7,44.9,81.6,44.8,81.6C44.9,81.7,44.8,81.6,44.8,81.6z M38.7,85.9L38.7,85.9
			c-0.1,0.2,0.1,0.3,0.1,0.5l0,0C38.7,86.2,38.7,86,38.7,85.9z M71.6,87.9L71.6,87.9L71.6,87.9L71.6,87.9c-0.1,0.1-0.3,0.2-0.4,0.3
			c0-0.1,0.1-0.2,0.1-0.3C71.4,87.9,71.5,87.9,71.6,87.9z M64.2,91.4L64.2,91.4L64.2,91.4C64.1,91.4,64.1,91.4,64.2,91.4L64.2,91.4z
			 M42.9,100.2L42.9,100.2c0,0.1,0,0.2,0,0.3l0,0C43,100.3,42.9,100.2,42.9,100.2z M43.9,119c0.1,0.1,0,0.1,0.1,0.2
			c0.4,0,0.7,0,1.1,0c-0.2,0.1-0.4,0.1-0.7,0.2c-0.2,0-0.2-0.2-0.4-0.2c-0.1,0-0.1,0-0.2,0C43.9,119.1,43.9,119.1,43.9,119z
			 M47.9,127.3c0.1,0,0.2,0,0.3,0c-0.3,0.1-0.5,0.1-0.8,0.3C47.6,127.5,47.8,127.4,47.9,127.3z M248.8,131.1L248.8,131.1
			c-0.1,0.2-0.3,0.4-0.4,0.5l0,0C248.5,131.4,248.9,131.3,248.8,131.1z M424.2,63.5c-0.1,0-0.2,0-0.3,0
			C424,63.5,424,63.5,424.2,63.5C424.1,63.5,424.1,63.5,424.2,63.5z M46.2,32.9C46.1,32.9,46.1,32.9,46.2,32.9
			C46.1,32.9,46.2,32.8,46.2,32.9C46.1,32.8,46.1,32.8,46.2,32.9z M16.4,58L16.4,58L16.4,58L16.4,58z M16.4,58L16.4,58L16.4,58
			L16.4,58L16.4,58z M43.8,76.1c0.1,0,0.1,0,0.2,0C44,76.1,43.9,76.1,43.8,76.1L43.8,76.1z M30,101.1L30,101.1
			c-0.2-0.1-0.5-0.1-0.8-0.2l0,0C29.5,100.9,29.7,101.1,30,101.1z M42.6,116.3c-0.6,0-1.3-0.1-1.9,0.1c0,0,0,0,0-0.1
			C41.4,116.2,42,116.3,42.6,116.3z M99.4,130.5L99.4,130.5c0,0-0.1,0-0.2,0C99.4,130.5,99.4,130.5,99.4,130.5z M322.1,125.2
			c-0.2,0-0.5,0-0.6,0.1C321.6,125.3,321.8,125.2,322.1,125.2z M391,125.5c0,0,0.1,0,0.1-0.1c0,0,0,0,0,0.1
			C391.1,125.5,391.1,125.5,391,125.5z M409.1,23.2C409.1,23.1,409.1,23.2,409.1,23.2C409.1,23.1,409.1,23.1,409.1,23.2L409.1,23.2z
			 M232.9,14.8L232.9,14.8L232.9,14.8L232.9,14.8z M219,14.8L219,14.8C219.1,14.8,219.1,14.8,219,14.8
			C219.1,14.8,219.1,14.8,219,14.8z M98.1,25.1c0-0.1,0-0.3,0-0.4h0.1C98.1,24.8,98.1,24.9,98.1,25.1z M31.6,28.7
			c0,0.1,0.1,0.1,0,0.1s-0.2-0.1-0.3-0.1C31.4,28.7,31.5,28.7,31.6,28.7z M17.7,76.2c0.4,0.2,0.6,0.4,0.5,0.6
			C18.1,76.6,17.9,76.4,17.7,76.2C17.7,76.3,17.7,76.2,17.7,76.2z M36,121.3L36,121.3c0.2,0,0.4,0,0.6,0l0,0
			C36.4,121.3,36.2,121.3,36,121.3z M36.6,129L36.6,129L36.6,129L36.6,129z M141.6,135.3L141.6,135.3L141.6,135.3L141.6,135.3z
			 M212.8,138.3L212.8,138.3L212.8,138.3C212.7,138.3,212.8,138.3,212.8,138.3z M259.3,137.2l0.1,0.1c-0.2,0-0.3,0-0.4,0
			C259.1,137.3,259.2,137.3,259.3,137.2z M272.9,132.4L272.9,132.4c0.1,0,0.2,0,0.3,0C273.1,132.4,273.1,132.5,272.9,132.4z
			 M283,136.1C283,136.1,282.9,136.1,283,136.1C282.9,136.1,282.9,136.1,283,136.1C282.9,136.1,282.9,136.1,283,136.1z M295.5,133.9
			L295.5,133.9c0.1,0.1,0.1,0.2,0.1,0.2s0,0-0.1,0C295.5,134,295.5,133.9,295.5,133.9z M295.5,131.1c0.1,0,0.2-0.1,0.2-0.1
			c0.2,0.1,0.4,0.1,0.6,0.3C296.1,131.1,295.8,131.2,295.5,131.1z M330.4,135.9L330.4,135.9C330.4,135.9,330.4,135.8,330.4,135.9
			L330.4,135.9L330.4,135.9z M332.6,135.7L332.6,135.7c-0.2-0.1-0.4,0.1-0.7,0C332.2,135.8,332.4,135.8,332.6,135.7z M398.4,124.8
			C398.5,124.8,398.5,124.8,398.4,124.8c0.1,0,0.1,0,0.1,0S398.5,124.8,398.4,124.8z M419.7,81.6c0.1-0.1,0.3-0.1,0.5-0.1v0.1
			C420,81.6,419.8,81.6,419.7,81.6z M431.5,65.7l-0.1-0.1C431.4,65.6,431.4,65.6,431.5,65.7L431.5,65.7z M285.6,10.1
			c-0.1,0-0.1-0.1-0.2-0.1c0.2,0,0.5,0,0.7,0C285.9,10.1,285.7,10,285.6,10.1z M256.3,14.8v0.1C256.3,14.8,256.3,14.8,256.3,14.8
			L256.3,14.8z M152.6,18c0.1-0.1,0.2-0.1,0.3-0.2c0,0.1-0.1,0.2,0,0.2C152.7,18.1,152.7,18,152.6,18z M52.4,22.8
			c-0.3,0-0.5,0-0.8-0.1c0.4,0,0.5,0,0.8-0.1C52.4,22.7,52.3,22.8,52.4,22.8z M35.6,91.4L35.6,91.4c0.7,0.2,1.4,0.4,2,0.7
			c-0.1,0.1-0.2,0-0.3,0.1C37,91.7,36.6,91.3,35.6,91.4z M146.2,135.9c-0.1,0-0.2,0-0.4,0C146,135.9,146.1,135.9,146.2,135.9
			L146.2,135.9z M281.5,135.7L281.5,135.7L281.5,135.7C281.6,135.7,281.6,135.7,281.5,135.7C281.6,135.7,281.5,135.7,281.5,135.7z
			 M332.7,135.8L332.7,135.8C332.7,135.8,332.7,135.9,332.7,135.8C332.7,135.9,332.7,135.9,332.7,135.8z M348.3,136.6
			C348.3,136.6,348.3,136.7,348.3,136.6C348.2,136.6,348.3,136.6,348.3,136.6L348.3,136.6z M388,134.4L388,134.4
			c0,0.1-0.1,0.1-0.1,0C387.9,134.4,387.9,134.4,388,134.4z M391,134.3l-0.1-0.2l0.1-0.1C391,134.1,391,134.2,391,134.3l0.1,0.2l0,0
			c-0.1-0.1-0.2-0.1-0.3-0.2C390.9,134.3,391,134.3,391,134.3z M426.7,115.4c0-0.2-0.1-0.5-0.5-0.8l0,0
			C426.5,114.9,426.7,115.2,426.7,115.4z M427.1,101.1L427.1,101.1L427.1,101.1L427.1,101.1z M440.9,76.1c0.1,0,0.2,0,0.3-0.1
			c0,0,0,0,0,0.1C441,76,441,76.1,440.9,76.1z M450.5,71.2L450.5,71.2L450.5,71.2L450.5,71.2z M446.3,62.8c-0.1,0-0.1,0.1-0.1,0.1
			v-0.1C446.3,62.8,446.3,62.8,446.3,62.8z M435.6,38.5L435.6,38.5L435.6,38.5L435.6,38.5z M430.3,21.1L430.3,21.1L430.3,21.1
			C430.2,21,430.2,21,430.3,21.1z M275.3,10.8C275.3,10.8,275.2,10.8,275.3,10.8C275.3,10.7,275.3,10.7,275.3,10.8
			C275.3,10.7,275.3,10.8,275.3,10.8z M78,17.6l0.1-0.1L78,17.6C78,17.6,78,17.6,78,17.6z M75.8,17.8L75.8,17.8
			c-0.3,0.4-0.3,0.8,0,1.2l0,0C75.8,18.6,75.8,18.2,75.8,17.8z M26,26.6L26,26.6L26,26.6L26,26.6L26,26.6L26,26.6L26,26.6z
			 M35.5,110.2L35.5,110.2L35.5,110.2L35.5,110.2L35.5,110.2L35.5,110.2z M30,115c0.1,0,0.2,0.1,0.3,0.1l0,0l0,0h-0.1
			C30.1,115,30,115,30,115z M37.6,135.9c0.1,0,0.2,0,0.3,0c-0.2,0.2-0.5,0.4-0.3,0.7l0,0C37.6,136.4,37.6,136.2,37.6,135.9z
			 M67.5,132.4C67.5,132.4,67.4,132.5,67.5,132.4c-0.1,0.1-0.1,0.1-0.1,0.1S67.4,132.4,67.5,132.4z M145.9,140.1l-0.1,0.1
			C145.8,140.2,145.8,140.1,145.9,140.1C145.8,140.1,145.9,140.1,145.9,140.1z M315.8,134.6L315.8,134.6c-0.1,0.1-0.1,0-0.1,0
			C315.7,134.6,315.8,134.6,315.8,134.6z M327.3,137.3C327.3,137.3,327.3,137.4,327.3,137.3C327.3,137.4,327.3,137.3,327.3,137.3
			L327.3,137.3z M361.5,135.5c-0.1-0.1-0.2-0.1-0.3-0.1c0.1,0,0.2,0,0.3,0V135.5z M401.6,134.5c0.1,0,0.1,0,0.2,0
			C401.7,134.5,401.7,134.5,401.6,134.5L401.6,134.5z M441.9,113.6l-0.1-0.1c0.1,0,0.2,0,0.3,0C442.1,113.5,441.9,113.6,441.9,113.6
			z M452.6,102.5L452.6,102.5L452.6,102.5L452.6,102.5z M456.8,86.4L456.8,86.4C456.8,86.5,456.8,86.5,456.8,86.4
			c0,0.1,0,0.1-0.1,0.1C456.8,86.4,456.8,86.4,456.8,86.4z M440.9,62.1L440.9,62.1C440.9,62.1,441,62.1,440.9,62.1L440.9,62.1z
			 M437.2,36.6l-0.1-0.1c0.1,0,0.2,0,0.3,0C437.3,36.6,437.2,36.6,437.2,36.6z M429.4,18.3c0,0.1,0,0.1,0,0.2
			c-0.1-0.1-0.1-0.1-0.2-0.2C429.3,18.3,429.3,18.3,429.4,18.3z M366.7,17.3v-0.1c0.1,0,0.3,0.1,0.4,0.1
			C366.9,17.3,366.8,17.3,366.7,17.3z M363.2,9.8C363.2,9.8,363.1,9.8,363.2,9.8C363.1,9.8,363.2,9.8,363.2,9.8L363.2,9.8z
			 M309.2,9.8c0.1-0.1,0.3-0.1,0.4-0.2c0,0.1,0,0.1,0,0.2C309.5,9.8,309.3,9.8,309.2,9.8z M167.1,9.9L167.1,9.9L167.1,9.9L167.1,9.9
			z M25.3,24c-0.5-0.1-0.9-0.3-1.2-0.7l0,0C24.3,23.7,24.8,23.7,25.3,24z M14.7,71.3L14.7,71.3c-0.4-0.2-1-0.4-1-0.4
			c0-0.3-0.3-0.3-0.3-0.5C13.9,70.7,14.2,71,14.7,71.3z M23.9,138L23.9,138L23.9,138L23.9,138z M24.9,136.6c0.1-0.1,0.3-0.1,0.4-0.2
			c0.5,0.5,1.2,0.7,2,0.7c0,0,0,0-0.1,0.1C26.5,137,25.7,136.8,24.9,136.6z M173.5,142.2c0.1,0,0.2,0,0.3,0c-0.1,0-0.1,0-0.2,0
			H173.5C173.6,142.2,173.5,142.2,173.5,142.2z M190.5,141.6L190.5,141.6L190.5,141.6L190.5,141.6z M207.2,141.8
			c-0.1-0.1-0.2-0.2-0.4-0.2C207,141.6,207,141.7,207.2,141.8z M305.9,136.7c0.1,0,0.1,0,0.2,0c0,0.3-0.1,0.7-0.1,1l0,0
			C306.5,137.4,306.1,137,305.9,136.7z M338,139.1c0-0.1-0.1-0.2-0.2-0.3c0.1,0,0.1,0,0.2,0l-0.1-0.2c0.1,0,0.1,0,0.2,0
			c0,0.1-0.1,0.2-0.1,0.2C338,138.9,338,139,338,139.1z M367.7,136.7L367.7,136.7C367.6,136.7,367.6,136.7,367.7,136.7
			C367.6,136.7,367.6,136.7,367.7,136.7z M376,136.6L376,136.6L376,136.6c0.1,0,0.2,0,0.3,0v0.1c-0.1,0-0.1,0.1-0.2,0.1
			C376.1,136.8,376,136.7,376,136.6z M381.7,137.1L381.7,137.1L381.7,137.1C381.8,137.1,381.7,137.1,381.7,137.1L381.7,137.1
			L381.7,137.1z M382.4,135.2h0.1c0,0.2,0,0.4,0,0.5l0,0C382.6,135.6,382.6,135.4,382.4,135.2z M422,124.9
			C421.9,124.9,421.9,124.9,422,124.9C421.9,124.9,421.9,124.9,422,124.9z M446.3,111.7h0.1c0,0,0,0,0,0.1
			C446.5,111.7,446.4,111.7,446.3,111.7z M453.8,104.5C453.8,104.5,453.7,104.5,453.8,104.5C453.7,104.5,453.8,104.5,453.8,104.5
			L453.8,104.5L453.8,104.5C453.9,104.5,453.8,104.5,453.8,104.5L453.8,104.5z M453.5,89.4h0.1c-0.1,0-0.1,0.2-0.3,0.2
			C453.4,89.6,453.4,89.5,453.5,89.4z M279.6,8.9c0,0.1,0,0.1,0,0.2l0,0l0,0l0,0C279.5,9.1,279.6,9,279.6,8.9z M131.8,11
			c0.4,0,0.9-0.1,1.3,0C132.6,10.9,132.2,11,131.8,11C131.8,11,131.8,11,131.8,11z M95.5,12.6c-0.2-0.4,0.2,0-0.1,0.2
			c-0.1,0-0.1,0-0.2,0C95.5,12.8,95.6,12.7,95.5,12.6z M25.1,22.3v0.1c-0.1,0-0.1,0-0.2,0C25,22.4,25.1,22.4,25.1,22.3z M12.2,25.9
			L12.2,25.9l-0.4-0.2C11.9,25.8,12.1,25.8,12.2,25.9z M12.1,33.6L12.1,33.6L12.1,33.6L12.1,33.6L12.1,33.6L12.1,33.6z M12.2,40.9
			c0,0.1,0,0.2,0,0.3c-0.1-0.1-0.1-0.1-0.2-0.2C12.1,41,12.1,40.9,12.2,40.9z M19.6,119.2c-0.1,0.1,0,0.1,0,0.2
			c0-0.1-0.1-0.1-0.1-0.2H19.6z M127.8,144.9C127.9,144.9,127.9,144.9,127.8,144.9C127.9,144.9,127.9,145,127.8,144.9
			C127.9,145,127.9,145,127.8,144.9C127.8,145,127.8,145,127.8,144.9z M146.7,144.3c0.1-0.2,0.2-0.3,0.2-0.5c0,0,0,0,0.1,0
			c0,0.2,0,0.3,0,0.5C146.9,144.3,146.8,144.3,146.7,144.3z"/>
		<path class="st0" d="M419.7,133.9c0.6,0.3,1,0.5,1.3,0.5s0.6-0.3,1-0.4c-0.3-0.2-0.6-0.5-1-0.6
			C420.7,133.4,420.3,133.7,419.7,133.9z"/>
		<path class="st0" d="M309.8,142.5c-0.2,0.6,0.5,0.7,1.5,0.8c0.4-0.2,1.3-0.4,1.3-0.7c0-0.6-0.9-0.5-1.5-0.5
			C310.6,142.1,309.9,142.3,309.8,142.5z"/>
		<path class="st0" d="M432.9,131.8c2.2-0.6,3.1-0.8,3.9-1.1C435.7,130.2,434.7,130.2,432.9,131.8z"/>
		<path class="st0" d="M438.7,137.5c0.2,0.5,1.3,0.6,2.8,0.3c-0.7-0.3-1-0.6-1.5-0.7C439.4,136.9,438.2,136.4,438.7,137.5z"/>
		<path class="st0" d="M483,99.5c0.3,0.2,0.6,0.5,1,0.8c0.4-0.2,0.7-0.4,1-0.6c-0.3-0.2-0.6-0.5-0.9-0.6
			C483.8,99.1,483.4,99.4,483,99.5z"/>
		<path class="st0" d="M70.5,39.2L70.5,39.2L70.5,39.2L70.5,39.2L70.5,39.2z"/>
	</g>
</g>
</svg>
