<?xml version="1.0" encoding="utf-8"?>
<!-- Generator: Adobe Illustrator 25.2.3, SVG Export Plug-In . SVG Version: 6.00 Build 0)  -->
<svg version="1.1" id="Ebene_1" xmlns="http://www.w3.org/2000/svg" xmlns:xlink="http://www.w3.org/1999/xlink" x="0px" y="0px"
	 viewBox="0 0 489 157" style="enable-background:new 0 0 489 157;" xml:space="preserve">
<style type="text/css">
	.st0{fill:#00A999;}
</style>
<g id="Ebene_1_1_">
</g>
<g id="Layer_1">
	<g>
		<path class="st0" d="M475.6,72.9c1.7,0,3.4,0,5.7,0c-3.8-2.5-7.4-0.5-10.8-0.8c-1.8-1.1-3.4-2.7-6.1-2.2l0,0
			c-1.6-0.5-3.1-0.3-4.7-0.2c-0.4-0.6-1-1.3-1.3-1.9c-0.2-0.5-0.8-0.9-1.2-1.3c-1.1-0.7-2.3-1.4-3.4-2.1c0.6-0.5,1.2-0.9,1.7-1.4
			c1.4-0.2,2.7-0.6,3.7-1.4l0,0c1.2-0.7,2.4-1.4,2.3-2.9v-0.3v-0.3c1.8-0.2,3.8-0.2,4.2-2.2c-0.2-0.7-0.4-1.4-0.7-2.1l0,0
			c1.4,0.1,2.7,0.6,3.6-1c0.8-1.5,2.1-2.7,3.3-4.1c1.2-0.7,2.3-1.4,3.5-2.1c-0.1-2,0.9-3.6,2.6-5c1-0.1,2.4,0.4,2.9-0.5
			c0.5-0.7-0.6-0.7-1.2-0.9c-1.5-0.2-2.9-0.5-4.4-0.7c0-0.7,0-1.4,0-2.1c0.3-0.5,0.6-0.9,0.9-1.4c0-0.2,0-0.5,0-0.7
			c1-0.3,1.9,1,2.9,0.2c-0.4-0.8-1.2-1.3-2.1-1.6c-0.5-1-1.5-1.6-2.6-2.1c0.5-1.5-2.6-1.9-1.8-3.5c1.2,0.2,1.6,1.6,3.4,1.6
			c-0.4-1.2-1.4-1.8-2.5-2.3c-0.6-0.7-0.9-1.6-2.3-1.5c0.2,0.5,0.4,1,0.5,1.5c-1.2,0-2.3,0-3.5,0c-0.9-0.5-1.7-0.9-2.6-1.4
			c0-0.3-0.3-0.4-0.4-0.6c0.8-0.2,1.5-0.5,2.3-0.7c2-0.3-0.1-1.6,0.7-2.2l0,0c1.7-0.1,2.6-1.1,3.6-2c1.6-0.4,3.6,0.4,5.5-1.2
			c-2.3,0.1-4,0.2-5.7,0.3c-0.2-0.5-0.3-0.9-0.5-1.4c0.8-0.9,2.7-0.8,3-2.2c-0.2,0-0.4-0.1-0.6-0.1c-2.3-1.3-4.8-0.5-7.1-0.5
			c-2.6,0-5.3,0-7.9,0c-1.8-0.3-3.5-0.6-5.3-0.9c-0.2-0.2-0.5-0.2-0.7-0.1l0,0l0,0c-0.9-0.9-4.2-0.2-2.6-2.7
			c-3.8-2.7-8.5-3.2-13.3-3.5c-1.1-0.1-2.2-0.1-3.2-0.2c-4.2-0.4-8.1-2.5-12.5-1.3c-2-0.2-3.9-1.5-6.1-0.7c-1.3-0.1-2.6-0.6-3.5,0.6
			c-0.3,0-0.6,0-0.8,0.1c-1.6-1-3.4-1-5.2-0.7c-0.5,0-1.1,0-1.6-0.1c-3.7-1.2-7.8-0.4-11.5-1.2c-1.7-0.4-3.5-0.3-5.2,0
			c-2.1,0-4.1,0-6.2-0.1c-0.3,0-0.6,0-0.8,0c-2,0.1-3.9,0.3-5.9,0.3c-5.9,0-11.7-0.3-17.5-0.3c-0.3,0-0.6,0-0.9,0
			c-1.8,0-3.6-0.1-5.4,0c-0.2,0.3,0,0.5,0.2,0.7c-0.1,0-0.1,0-0.2,0c0-0.2,0-0.4,0-0.7c-0.4,0-0.8,0-1.2,0c-1.2-0.7-2.6-0.8-4-0.7
			c-7.3,0-14.6,0-21.9,0c-0.4,0.2-0.4,0.4,0,0.6c7.3,0,14.6,0,21.9,0.1c0,0,0,0,0.1,0c-10.3-0.2-20.5-0.3-30.8,0.1
			c-0.1,0.2,0.1,0.4,0.2,0.6c-0.1,0-0.2,0-0.2,0c0,0.2,0,0.5,0,0.7h-0.1c0.2-0.2,0.3-0.5,0.1-0.7c0-0.2,0-0.4,0-0.6
			c-0.9,0-1.8,0-2.7,0c-3.9,0.2-7.9-0.5-11.8,0.5l0,0l0,0c-0.1,0-0.2-0.1-0.3-0.1c-0.2,0-0.4,0.1-0.6,0.1c-1.7-0.4-3.5-0.4-5.2,0
			C284.5,5.6,275.2,5,266,6.1l0,0c-2.8,0-5.6,0-8.4,0.1c-0.6-0.2-1.1,0-1.7-0.1c0.9-0.3,1.8-0.6,2.7-0.9c-1.4-0.3-2.7-0.8-3.7,0.3
			c-1.7,0-3.5,0-5.2,0.1c-1,0-2.1-0.1-2.7,0.8l0,0c-4,0.2-8.1-0.7-12.1,0.4c-0.2,0-0.3,0-0.4,0c-8.7,0.2-17.4,0.2-26,0.3
			c-0.6,0-1.2,0-1.9,0c-7.9,0-15.8,0-23.7,0.1c-4.9,0.2-9.8,0.4-14.7,0.6c-0.6,0-1.2,0-1.8,0c-2.6,0-5.2,0-7.8,0c-3.2,0-6.4,0-9.7,0
			l0,0c-1.4,0-2.9,0-4.3,0c-1.8,0-3.5,0-5.3,0c-0.6,0-1.2,0-1.8,0c-2.5-0.1-5.1-0.1-7.6-0.2l0,0c-3-0.7-6-0.6-9-0.5
			C118.5,7,116.3,7,114,6.9c-2.1-0.8-4.3-0.6-6.4-0.5c-0.8,0-1.7-0.1-2.5-0.1c-4-1.1-8.2-0.5-12.3-0.7c-2.4-1.2-5.2-0.4-7.7-0.8l0,0
			c-1.3-0.7-2.5-1.1-2.9,0.7c-1.6,1.7-1.3,4.1-3.2,5.7c-1.8,1.6-1.8,3.4-0.6,5.2c0,0.2,0.1,0.4,0.4,0.5c0.9,1.2,1.7,2.3,2.6,3.5
			c-2.9-0.2-4.6,1.3-6.4,2.8c-0.8,0.3-1.3,0.8-1.6,1.4l0,0c-0.7,0-1.3,0.2-1.6,0.8c-1.4,0.4-3.6-0.7-4.4,1.2c-0.1,0-0.2,0-0.2,0
			c-1.3,0-2.7,0-4-0.1c-1.2-0.7-2.6-1-4.6-0.9c1.5,1.2,2.9,1.6,4.5,1.8c0.5,0.3,1,0.5,1.5,0.8c-0.2,1.9-0.5,3.7-0.7,5.6
			c0.1,0.2,0.4,0.4,0.6,0.6c-0.1,0-0.1,0-0.2,0.1l0,0c-0.4,0-0.7,0-1.1,0c-0.9,0-1.7,0.1-2.6,0.1l0,0c-1.2,0.2-2.4,0.4-3.5,0.7l0,0
			l0,0c-3.7,0.8-7.7,1.1-10.5,3.5c-2.6,0.4-4,2.3-6.6,3.1c1.7,0.8,2.7-0.4,4-0.3c0.3,0.3,0.7,0.5,1,0.8l0,0l0,0
			c-0.6,0.7-1.3,1.3-1.9,2c-2.5,0.5-3.8,2.1-5.3,3.6c-1,0.5-1.7,1.2-1.5,2.2c0.5,2.7-3.7,3.6-3.9,6.5c1.2-0.6,2-1.1,2.9-1.5
			c0,0.2,0,0.5,0.1,0.7c-0.6,0.7-1.2,1.4-1.8,2.1c0.9,1.3,0.4,2.5-0.9,3.4c-0.9,0.5-1.7,1.1-2.6,1.6c-0.7-0.1-1.4,0.1-1.8,0.6
			c-3.9,1.9-3.8,2.2,0.6,4.4l0,0c0.1,0.4,0.1,0.7,0.2,1c-3.4,0.1-6.3,1.4-9.3,2.5c-1.7,0.6-0.9,1.2,0.4,1.3
			c-0.6,1.9-2.8,1.9-4.4,2.7c-1,0.7-1.9,1.3-3.1,2.1c1.7,0.1,2.9,0.2,4.2,0.2c0.6,0.8,0.4,1.3-0.9,1.2c-1.7,0-3.4,0-5.7,0
			c3.8,2.5,7.4,0.5,10.8,0.8l0,0l0,0c1.8,1.1,3.4,2.7,6.1,2.2c1.6,0.5,3.1,0.3,4.7,0.2c0.4,0.6,1,1.3,1.3,1.9
			c0.2,0.5,0.8,0.9,1.2,1.3c1.1,0.7,2.3,1.4,3.4,2.1c-0.6,0.5-1.2,0.9-1.7,1.4c-1.4,0.2-2.7,0.6-3.7,1.4l0,0
			c-1.2,0.7-2.4,1.4-2.3,2.9v0.3v0.3C28.3,94,26.3,94,25.9,96c0.2,0.7,0.4,1.4,0.7,2.1l0,0c-1.4-0.1-2.7-0.6-3.6,1
			c-0.8,1.5-2.1,2.7-3.3,4.1l0,0l0,0c-1.2,0.7-2.3,1.4-3.5,2.1l0,0c0.1,2-0.9,3.6-2.6,5c-1,0.1-2.4-0.4-2.9,0.5
			c-0.5,0.7,0.6,0.7,1.2,0.9c1.5,0.2,2.9,0.5,4.4,0.7c0,0.7,0,1.4,0,2.1c-0.3,0.5-0.6,0.9-0.9,1.4c0,0.2,0,0.5,0,0.7
			c-1,0.3-1.9-1-2.9-0.2c0.4,0.8,1.2,1.3,2.1,1.6c0.5,1,1.5,1.6,2.6,2.1c-0.5,1.5,2.6,1.9,1.8,3.5c-1.2-0.2-1.6-1.6-3.4-1.6
			c0.4,1.2,1.4,1.8,2.5,2.3c0.6,0.7,0.9,1.6,2.3,1.5c-0.2-0.5-0.4-1-0.5-1.5c1.2,0,2.3,0,3.5,0c0.9,0.5,1.7,0.9,2.6,1.4l0,0
			c0,0.3,0.3,0.4,0.4,0.6c-0.8,0.2-1.5,0.5-2.3,0.7c-2,0.3,0.1,1.6-0.7,2.2l0,0c-1.7,0.1-2.6,1.1-3.6,2c-1.6,0.4-3.6-0.4-5.5,1.2
			c2.3-0.1,4-0.2,5.7-0.3c0.2,0.5,0.3,0.9,0.5,1.4c0.4,0.3,0.8,0.5,1.2,0.8l0,0c0.1-0.7-0.2-1.1-1.2-0.8c-0.8,0.9-2.7,0.8-3,2.2
			c0.2,0,0.4,0.1,0.6,0.1c2.3,1.3,4.8,0.5,7.1,0.5c2.6,0,5.3,0,7.9,0c1.8,0.3,3.5,0.6,5.3,0.9c0.2,0.2,0.5,0.2,0.7,0.1l0,0
			c0.9,0.9,4.2,0.2,2.6,2.7c3.8,2.7,8.5,3.2,13.3,3.5c1.1,0.1,2.2,0.1,3.2,0.2l0,0l0,0c4.2,0.4,8.1,2.5,12.5,1.3
			c2,0.2,3.9,1.5,6.1,0.7c1.3,0.1,2.6,0.6,3.5-0.6c0.3,0,0.6,0,0.8-0.1c1.6,1,3.4,1,5.2,0.7c0.5,0,1.1,0,1.6,0.1
			c3.7,1.2,7.8,0.4,11.5,1.2c1.7,0.4,3.5,0.3,5.2,0c2.1,0,4.1,0,6.2,0.1c0.3,0,0.6,0,0.8,0c2-0.1,3.9-0.3,5.9-0.3
			c5.8,0,11.7,0.3,17.5,0.3c0.3,0,0.6,0,0.9,0c1.8,0,3.6,0.1,5.4,0c0.2-0.3,0-0.5-0.2-0.7c0.1,0,0.1,0,0.2,0c0,0.2,0,0.4,0,0.7
			c0.4,0,0.8,0,1.2,0c1.2,0.7,2.6,0.8,4,0.7l0,0c7.3,0,14.6,0,21.9,0c0.4-0.2,0.4-0.4,0-0.6c-7.3,0-14.6,0-21.9-0.1c0,0,0,0-0.1,0
			c10.3,0.2,20.5,0.3,30.8-0.1c0.1-0.2-0.1-0.4-0.2-0.6c0.1,0,0.2,0,0.2,0c0-0.2,0-0.5,0-0.7h0.1c-0.2,0.2-0.3,0.5-0.1,0.7
			c0,0.2,0,0.4,0,0.6c0.9,0,1.8,0,2.7,0c3.9-0.2,7.9,0.5,11.8-0.5l0,0c0.1,0.1,0.2,0.2,0.3,0.1c0.2,0,0.4-0.1,0.6-0.1
			c1.7,0.4,3.5,0.4,5.2,0c9.3-0.2,18.6,0.4,27.8-0.7c2.8,0,5.6,0,8.4-0.1c0.6,0.2,1.1,0,1.7,0.1c-0.9,0.3-1.8,0.6-2.7,0.9
			c1.4,0.3,2.7,0.8,3.7-0.3c1.7,0,3.5,0,5.2-0.1c0.3-0.2,0.3-0.4,0-0.6l0,0c0,0.2,0,0.4,0,0.6c1,0,2.1,0.1,2.7-0.8l0,0
			c4.2-0.2,8.4,0.8,12.5-0.5c8.6-0.1,17.3-0.2,25.9-0.2c0.6,0,1.2,0,1.9,0c7.9,0,15.8,0,23.7-0.1c4.9-0.2,9.8-0.4,14.7-0.6
			c0.6,0,1.2,0,1.8,0c2.6,0,5.2,0,7.8,0c3.2,0,6.4,0,9.7,0c1.4,0,2.9,0,4.3,0c1.8,0,3.5,0,5.3,0c0.6,0,1.2,0,1.8,0
			c2.5,0.1,5.1,0.1,7.6,0.2h0.1c2.9,0.6,5.9,0.6,8.9,0.5c2.2,0.1,4.5,0.1,6.7,0.2c2.1,0.8,4.3,0.6,6.4,0.5c0.8,0,1.7,0.1,2.5,0.1
			c4,1.1,8.2,0.5,12.3,0.7c2.4,1.2,5.2,0.4,7.7,0.8c1.3,0.7,2.5,1.1,2.9-0.7c1.6-1.7,1.3-4.1,3.2-5.7c1.8-1.6,1.8-3.4,0.6-5.2
			c0-0.2-0.1-0.4-0.4-0.5c-0.9-1.2-1.7-2.3-2.6-3.5c2.9,0.3,4.6-1.3,6.4-2.8c0.8-0.3,1.3-0.8,1.6-1.4l0,0c0.7,0,1.3-0.2,1.6-0.8
			c1.4-0.4,3.6,0.7,4.4-1.2c0.1,0,0.2,0,0.2,0c1.3,0,2.7,0,4,0.1c1.2,0.7,2.6,1,4.6,0.9c-1.5-1.2-2.9-1.6-4.5-1.8
			c-0.5-0.3-1-0.6-1.5-0.8c0.2-1.9,0.5-3.7,0.7-5.6c-0.1-0.2-0.4-0.4-0.6-0.6c0.1,0,0.1,0,0.2-0.1l0,0c0.4,0,0.7,0,1.1,0
			c0.9,0,1.7-0.1,2.6-0.1c1.2-0.2,2.4-0.4,3.5-0.7c3.7-0.8,7.7-1.1,10.5-3.5c2.6-0.4,4-2.3,6.6-3.1c-1.7-0.8-2.7,0.4-4,0.3
			c-0.3-0.3-0.7-0.5-1-0.8c0.6-0.7,1.3-1.3,1.9-2c2.5-0.5,3.8-2.1,5.3-3.6l0,0c1-0.5,1.7-1.2,1.5-2.2c-0.5-2.7,3.7-3.6,3.9-6.5
			c-1.2,0.6-2,1.1-2.9,1.5l0,0c0-0.2,0-0.5-0.1-0.7c0.6-0.7,1.2-1.4,1.8-2.1c-0.9-1.3-0.4-2.5,0.9-3.4c0.9-0.5,1.7-1.1,2.6-1.6
			c0.7,0.1,1.4-0.1,1.8-0.6l0,0c3.9-1.9,3.8-2.2-0.6-4.4c-0.1-0.4-0.1-0.7-0.2-1l0,0l0,0c3.4-0.1,6.3-1.3,9.3-2.5
			c1.7-0.6,0.9-1.2-0.4-1.3c0.6-1.9,2.8-1.9,4.4-2.7c1-0.7,1.9-1.3,3.1-2.1c-1.7-0.1-2.9-0.2-4.2-0.2
			C474.1,73.4,474.4,72.9,475.6,72.9z M307.3,143.1l-0.1-0.1c0.1,0,0.2,0,0.3,0C307.4,143.1,307.3,143.1,307.3,143.1z M21,135.2
			c-0.1,0-0.3,0-0.4,0l0,0C20.7,135.2,20.8,135.3,21,135.2L21,135.2z M184.1,9l0.1,0.1c-0.1,0-0.2,0-0.3,0
			C183.9,9.1,184,9.1,184.1,9z M407.9,124.9C407.9,124.9,407.8,124.8,407.9,124.9C407.8,124.8,407.9,124.8,407.9,124.9
			C407.7,124.5,407.9,124.7,407.9,124.9z M389.8,141.7C389.7,141.7,389.7,141.6,389.8,141.7C389.8,141.6,389.8,141.6,389.8,141.7
			L389.8,141.7z M83.5,27.3L83.5,27.3C83.5,27.4,83.4,27.3,83.5,27.3C83.6,27.7,83.5,27.5,83.5,27.3z M101.6,10.5L101.6,10.5
			L101.6,10.5C101.5,10.5,101.6,10.5,101.6,10.5z M55.6,140.2L55.6,140.2C55.6,140.2,55.7,140.2,55.6,140.2L55.6,140.2L55.6,140.2z
			 M435.7,12L435.7,12L435.7,12L435.7,12L435.7,12z M306,68.5C306,68.5,306,68.4,306,68.5C306.1,68.4,306.1,68.4,306,68.5
			C306.1,68.5,306.1,68.5,306,68.5z M185.3,83.7L185.3,83.7L185.3,83.7L185.3,83.7z M107.9,22.7c-0.2-0.1-0.4-0.2-0.6-0.3
			C107.5,22.5,107.7,22.7,107.9,22.7z M383.4,129.4c0.2,0.1,0.4,0.2,0.6,0.3C383.9,129.6,383.7,129.5,383.4,129.4z M143.6,16.9
			c0.2,0,0.4,0,0.7,0c-0.1,0-0.2,0-0.3,0.1C143.9,17,143.7,17,143.6,16.9z M148.3,16.3L148.3,16.3c-0.1,0,0.1,0,0-0.1
			C148.1,15.8,148.9,16.2,148.3,16.3z M127.8,16.9L127.8,16.9L127.8,16.9L127.8,16.9C127.8,16.9,127.7,16.9,127.8,16.9L127.8,16.9z
			 M112.4,16.6c-0.1,0-0.1,0.1-0.1,0.1c-0.1-0.1-0.2-0.1-0.3-0.1C112.1,16.6,112.3,16.6,112.4,16.6z M104.9,16.3v-0.1
			C105,16.2,105,16.2,104.9,16.3C105,16.2,105,16.3,104.9,16.3z M42,70.8L42,70.8c-0.1,0-0.3,0-0.4,0h0.1C41.9,70.8,42,70.8,42,70.8
			z M347.8,135.2c-0.2,0-0.4,0-0.7,0c0.1,0,0.2,0,0.3-0.1C347.5,135.2,347.7,135.1,347.8,135.2z M343,135.8
			C343,135.8,343.1,135.9,343,135.8c0.1,0-0.1,0,0,0.1C343.2,136.4,342.5,135.9,343,135.8z M363.5,135.2
			C363.5,135.2,363.6,135.2,363.5,135.2C363.6,135.3,363.6,135.3,363.5,135.2C363.6,135.3,363.6,135.3,363.5,135.2z M378.9,135.5
			c0.1,0,0.1-0.1,0.1-0.1c0.1,0.1,0.2,0.1,0.3,0.1C379.2,135.5,379.1,135.5,378.9,135.5z M386.4,135.9v0.1V135.9L386.4,135.9z
			 M449.3,81.4L449.3,81.4c0.1,0,0.3,0,0.4,0h-0.1C449.4,81.4,449.4,81.4,449.3,81.4z M454.8,39.6c-0.1,0-0.1-0.1-0.2-0.1h0.1
			C454.8,39.6,454.8,39.6,454.8,39.6C454.9,39.6,454.8,39.6,454.8,39.6z M103.3,26.1L103.3,26.1L103.3,26.1L103.3,26.1z M47.3,62.3
			L47.3,62.3L47.3,62.3L47.3,62.3L47.3,62.3L47.3,62.3c-0.1,0-0.1,0-0.2,0c0.1-0.1,0.1-0.2,0.2-0.2S47.2,62.1,47.3,62.3z M36.8,69.3
			C36.8,69.3,36.9,69.3,36.8,69.3C36.9,69.3,36.8,69.3,36.8,69.3L36.8,69.3z M36.5,112.5c0.1,0,0.1,0.1,0.2,0
			C36.7,112.6,36.6,112.6,36.5,112.5C36.6,112.6,36.5,112.6,36.5,112.5L36.5,112.5z M388.1,126L388.1,126L388.1,126L388.1,126z
			 M444,89.9L444,89.9L444,89.9L444,89.9L444,89.9L444,89.9c0.1,0,0.1,0,0.2,0c-0.1,0.1-0.1,0.2-0.2,0.2C444,90,444.1,90,444,89.9z
			 M454.5,82.8L454.5,82.8L454.5,82.8L454.5,82.8z M124.3,13.6c0-0.1,0-0.2,0-0.3c0.2,0,0.3,0,0.5,0
			C124.6,13.5,124.4,13.5,124.3,13.6z M103.3,26.8L103.3,26.8L103.3,26.8L103.3,26.8z M367,138.5c0,0.1,0,0.2,0,0.3
			c-0.2,0-0.3,0-0.5,0C366.7,138.7,366.9,138.7,367,138.5z M388.1,125.4C388.1,125.4,388.1,125.3,388.1,125.4
			C388.1,125.3,388.1,125.3,388.1,125.4C388.1,125.3,388.1,125.4,388.1,125.4z M444.4,60.1c-0.1,0-0.2,0.1-0.3,0
			c0-0.1,0.1-0.1,0.2-0.2C444.3,60,444.4,60.1,444.4,60.1z M458.9,19.7L458.9,19.7L458.9,19.7L458.9,19.7z M402.9,11.1
			c-0.4-0.3-0.8,0-1.2,0.1l0,0c0.3-0.1,0.7-0.1,1-0.2C402.8,11.1,402.9,11.1,402.9,11.1z M384.1,8.7L384.1,8.7
			c0.3,0.3,0.6,0.4,0.9,0.5C384.6,9.2,384.4,8.9,384.1,8.7z M383.6,9.8L383.6,9.8L383.6,9.8L383.6,9.8L383.6,9.8z M113.1,10.7
			L113.1,10.7C113.1,10.7,113,10.6,113.1,10.7C113.2,10.7,113.1,10.7,113.1,10.7z M103.3,13.2c0,0.1,0,0.1,0,0.2h-0.1
			C103.2,13.3,103.2,13.2,103.3,13.2z M46.9,92c0.1,0,0.2-0.1,0.3,0c0,0.1-0.1,0.1-0.2,0.2C47,92.2,47,92.1,46.9,92z M32.4,132.4
			L32.4,132.4C32.4,132.5,32.5,132.5,32.4,132.4C32.5,132.4,32.4,132.5,32.4,132.4L32.4,132.4L32.4,132.4z M88.4,141
			c0.4,0.3,0.8,0,1.2-0.1l0,0c-0.3,0.1-0.7,0.1-1,0.2C88.6,141.1,88.5,141.1,88.4,141z M107.3,143.4L107.3,143.4
			c-0.3-0.3-0.6-0.4-0.9-0.5C106.7,143,107,143.2,107.3,143.4z M107.8,142.3L107.8,142.3L107.8,142.3L107.8,142.3L107.8,142.3z
			 M364.4,140.2L364.4,140.2L364.4,140.2L364.4,140.2z M378.2,141.5L378.2,141.5C378.2,141.5,378.3,141.5,378.2,141.5L378.2,141.5z
			 M388.1,139c0-0.1,0-0.1,0-0.2h0.1C388.1,138.9,388.1,138.9,388.1,139z M445.6,66.6l-0.1-0.1c0.1,0,0.3,0,0.4,0
			C445.8,66.6,445.7,66.6,445.6,66.6z M448.5,56.6L448.5,56.6h0.1H448.5z M342.4,8.4c0,0,0.1-0.1,0.2-0.1c0.1,0.1,0.2,0,0.3,0.1
			C342.7,8.4,342.6,8.4,342.4,8.4z M179.8,10.6c0,0.1,0.1,0.1,0.1,0.2c-0.1-0.1-0.3-0.1-0.4-0.2C179.6,10.5,179.7,10.6,179.8,10.6z
			 M126.9,12L126.9,12L126.9,12L126.9,12z M80.4,32.5L80.4,32.5c-0.3,0-0.6,0-0.9,0l0,0C79.7,32.6,80,32.5,80.4,32.5z M45.4,85.6
			c0.1-0.1,0.2,0,0.3-0.1l0.1,0.1C45.7,85.6,45.6,85.6,45.4,85.6L45.4,85.6L45.4,85.6z M42.9,95.5C42.9,95.5,42.9,95.6,42.9,95.5
			L42.9,95.5L42.9,95.5L42.9,95.5C42.8,95.5,42.8,95.6,42.9,95.5z M148.9,143.7c0,0-0.1,0.1-0.2,0.1c-0.1-0.1-0.2,0-0.3-0.1
			C148.6,143.7,148.8,143.7,148.9,143.7z M361.7,143C361.7,143,361.8,143,361.7,143C361.8,143,361.8,143,361.7,143L361.7,143z
			 M460.8,53.1L460.8,53.1C460.8,53,460.8,53,460.8,53.1C460.8,53,460.9,53.1,460.8,53.1C460.9,53.1,460.8,53.1,460.8,53.1z
			 M271.1,7.6C271.2,7.6,271.2,7.6,271.1,7.6L271.1,7.6C271.2,7.6,271.2,7.6,271.1,7.6C271.2,7.6,271.1,7.6,271.1,7.6z M129.6,9.2
			L129.6,9.2C129.6,9.1,129.6,9.1,129.6,9.2L129.6,9.2z M121,7.8c-0.1,0-0.1,0-0.2-0.1c0.1,0,0.2,0,0.3,0C121.1,7.7,121,7.8,121,7.8
			z M39.5,63.7L39.5,63.7C39.4,63.7,39.4,63.7,39.5,63.7C39.4,63.7,39.4,63.7,39.5,63.7z M30.6,99.1L30.6,99.1L30.6,99.1L30.6,99.1
			C30.6,99.1,30.5,99.1,30.6,99.1C30.5,99.1,30.5,99.1,30.6,99.1C30.5,99.1,30.5,99.1,30.6,99.1z M220.2,144.6
			C220.2,144.5,220.1,144.6,220.2,144.6L220.2,144.6C220.1,144.5,220.2,144.5,220.2,144.6C220.2,144.5,220.2,144.5,220.2,144.6z
			 M311.5,141.6c0-0.1-0.1-0.1-0.1-0.2c0.1,0.1,0.3,0.1,0.5,0.2C311.7,141.6,311.6,141.6,311.5,141.6z M370.3,144.4
			c0.1,0,0.1,0,0.2,0.1c-0.1,0-0.2,0-0.3,0C370.3,144.4,370.3,144.4,370.3,144.4z M451.9,88.5L451.9,88.5
			C451.9,88.5,451.9,88.4,451.9,88.5L451.9,88.5z M470.1,72.2c-0.1,0.1,0,0.3,0,0.4c0,0,0,0-0.1,0l0,0c-0.1-0.1-0.1-0.3-0.2-0.4l0,0
			l0,0C469.9,72.2,470,72.2,470.1,72.2z M465.1,16.9c-0.1,0-0.1,0-0.2,0l0,0C464.9,16.9,465,16.8,465.1,16.9z M245.3,8.2
			c0,0.1,0,0.1,0,0.2h-0.1l0,0l0,0C245.2,8.4,245.3,8.3,245.3,8.2z M236.5,8.4C236.5,8.4,236.4,8.4,236.5,8.4
			c-0.1-0.2-0.1-0.5-0.1-0.7c-0.1,0-0.2,0-0.3,0c0-0.1,0-0.1,0-0.1c0.1,0,0.2,0.1,0.3,0.1C236.2,7.9,236.3,8.2,236.5,8.4z
			 M221.4,7.8L221.4,7.8c0-0.1,0-0.1,0.1-0.1C221.5,7.8,221.5,7.8,221.4,7.8z M178.3,8.4c-0.1,0-0.2,0-0.2,0.1
			c-0.1-0.1-0.2,0-0.3-0.1C178,8.4,178.1,8.4,178.3,8.4z M175.6,8.7c0-0.1,0.1-0.1,0.1-0.2c0.1,0,0.2,0,0.2,0
			C175.9,8.6,175.7,8.5,175.6,8.7z M102.6,6.6C102.5,6.6,102.5,6.6,102.6,6.6c-0.1,0-0.2,0-0.2,0S102.5,6.5,102.6,6.6z M21.3,80
			c0.1-0.1,0-0.3,0-0.4c0,0,0,0,0.1,0l0,0c0.1,0.1,0.1,0.3,0.2,0.4l0,0l0,0C21.4,80,21.3,80,21.3,80z M26.3,135.3c0.1,0,0.1,0,0.2,0
			l0,0C26.4,135.3,26.3,135.3,26.3,135.3z M246,143.9c0-0.1,0-0.1,0-0.2h0.1C246.1,143.8,246.1,143.9,246,143.9z M255,144.5
			c0.2-0.3,0.1-0.5-0.1-0.7l0,0l0,0l0,0C254.9,144,254.9,144.2,255,144.5c0.1,0,0.2,0,0.3,0c0,0.1,0,0.1,0,0.1
			C255.1,144.6,255,144.5,255,144.5z M269.9,144.4C270,144.4,270,144.4,269.9,144.4c0,0.1,0,0.1-0.1,0.1
			C269.9,144.4,269.9,144.4,269.9,144.4z M313.5,143.7c-0.2,0-0.3,0-0.5,0c0.1,0,0.2,0,0.2-0.1C313.4,143.7,313.5,143.6,313.5,143.7
			c0.6,0,1.2,0,1.8,0c0.1-0.2,0.3-0.1,0.4-0.2c0,0.1-0.1,0.1-0.1,0.2c-0.1,0-0.2,0-0.2,0C314.8,143.3,314.2,143.3,313.5,143.7z
			 M388.8,145.6L388.8,145.6c0.1,0,0.2,0,0.2,0H388.8z"/>
		<path class="st0" d="M463.5,96c-2.2,1-4.3,2-5.1,3.7C460,98.5,461.8,97.2,463.5,96z"/>
		<path class="st0" d="M471.2,63.5c0,0,0.3-0.4,0.5-0.8c0.2-0.5-0.2-0.9-0.8-0.8c-0.4,0.1-0.8,0.6-1,0.9
			C469.6,63.2,470,63.4,471.2,63.5z"/>
		<path class="st0" d="M191.1,148c1.9-0.1,3,0.4,4.8-0.6C194.1,147.4,192.9,147,191.1,148z"/>
		<path class="st0" d="M168.1,148c1.8,0,3.5,0,5.3,0c1.7,0,3.4,0,5.2,0c0-0.2,0-0.4,0-0.6c-1.7,0-3.4,0-5.2,0s-3.5,0-5.3,0v0.3V148z
			"/>
		<path class="st0" d="M474.7,16.2C474.7,16.2,474.6,16.2,474.7,16.2C474.6,16.2,474.6,16.2,474.7,16.2
			C474.6,16.3,474.6,16.3,474.7,16.2C474.7,16.3,474.7,16.2,474.7,16.2z"/>
		<path class="st0" d="M476.2,15c-1.2-0.2-1.4,0.5-1.6,1.2c0.8-0.1,1.7,0.2,2.2-0.5C477,15.6,476.5,15.1,476.2,15z"/>
		<path class="st0" d="M27.8,56.2c2.2-1,4.3-2,5.1-3.7C31.3,53.6,29.6,54.9,27.8,56.2z"/>
		<path class="st0" d="M20.2,88.7c0,0-0.3,0.4-0.5,0.8c-0.2,0.5,0.2,0.9,0.8,0.8c0.4-0.1,0.8-0.6,1-0.9C21.7,89,21.4,88.8,20.2,88.7
			z"/>
		<path class="st0" d="M318,4.8c1.8,0,3.5,0,5.3,0V4.5V4.2c-1.8,0-3.5,0-5.3,0c-1.7,0-3.4,0-5.2,0c0,0.2,0,0.4,0,0.7
			C314.5,4.8,316.2,4.8,318,4.8z"/>
		<path class="st0" d="M300.3,4.2c-1.9,0.1-3-0.4-4.8,0.6C297.2,4.8,298.4,5.1,300.3,4.2z"/>
		<path class="st0" d="M16.7,135.9L16.7,135.9C16.7,135.9,16.8,135.9,16.7,135.9L16.7,135.9L16.7,135.9z"/>
		<path class="st0" d="M15.1,137.1c1.2,0.2,1.4-0.5,1.6-1.2c-0.8,0.1-1.7-0.2-2.2,0.5C14.4,136.6,14.8,137.1,15.1,137.1z"/>
	</g>
</g>
</svg>
