<?xml version="1.0" encoding="utf-8"?>
<!-- Generator: Adobe Illustrator 25.2.3, SVG Export Plug-In . SVG Version: 6.00 Build 0)  -->
<svg version="1.1" id="Ebene_1" xmlns="http://www.w3.org/2000/svg" xmlns:xlink="http://www.w3.org/1999/xlink" x="0px" y="0px"
	 viewBox="0 0 489 157" style="enable-background:new 0 0 489 157;" xml:space="preserve">
<style type="text/css">
	.st0{fill:#00A999;}
</style>
<g id="Ebene_1_1_">
</g>
<g id="Layer_1">
	<g>
		<path class="st0" d="M373.6,145c0.4,1.4,1.2,2.5,3.3,2.5c-0.1-1.1,2.2,0.3,1.8-1.7c-0.4-1.9-2-1.9-3.6-2.2
			C373.9,143.5,373.2,143.8,373.6,145z"/>
		<path class="st0" d="M388.4,131.2c3.6,1.5,6.6-0.3,9.8-1.1C394.7,129.1,391.5,129.5,388.4,131.2z"/>
		<path class="st0" d="M167.7,21.3c2.5,0.9,4.5,0.6,7-1.3C172,19.9,169.6,18.5,167.7,21.3z"/>
		<path class="st0" d="M277.1,146.5c3.2,0,6.5,0,9.8,0C283.6,144.8,280.4,146.2,277.1,146.5z"/>
		<path class="st0" d="M388.4,10.7c0.6,0,1.3,0,1.9,0l0,0c5.8,0,11.6,0,17.3,0c2.6,0,5.1,0,7.7,0c2.4,0,4.8,0.4,7.1-0.9
			c-3.3-0.2-6.6-1.8-9.8,0c-1.6,0-3.2-0.1-4.8-0.1l0,0l0,0l0,0l0,0c-5.5,0-11,0-16.5,0.1c-1.7-1.4-3.8-0.8-5.7-0.8
			c-2,0.8-4.2-0.6-6.9,0.8C382.3,11.3,385.4,10.8,388.4,10.7z"/>
		<path class="st0" d="M319.9,149.1c2.6,0,5.1,0,8.5,0C324.9,146.3,322.4,149.2,319.9,149.1z"/>
		<path class="st0" d="M345.2,149.3c2.2,0,3.8,0,6.1,0C349,147.7,347.5,145.3,345.2,149.3z"/>
		<path class="st0" d="M316.7,143c-0.7,0.3-1.4,0.6-2.2,0.9l0,0l0,0c-1.5-1.2-1.6,0.9-2.6,1c-2.3-3-5.3,0.1-7.8-0.9
			c-1-0.1-2.3,0.2-2.1,1c0.4,1.3,1.9,0.6,3,0.7c1.9,2.1,3.9-0.7,5.8,0c1.3,0,2.6-0.1,3.9-0.1c0.6,0,1.2,0,1.8,0
			c2.3,0.4,4-0.6,3.5-2.7C319.8,141.5,317.9,142,316.7,143z"/>
		<path class="st0" d="M475.4,24.2c0-0.2,0-0.3,0-0.5c-2.6,0-5.1,0-7.7,0c-1.5,0.1-3.2-0.6-4.2,1.5c1.2,0.1,2.2,0.2,3.3,0.2
			C469.6,25,472.5,24.6,475.4,24.2z"/>
		<path class="st0" d="M263.6,15.4c0.7-0.1,1.4-0.3,2.1-0.4c-0.4-0.4-0.7-0.9-1.2-1.3c-1.1-1-1.5,0-2,0.7c-1.7,0-3.4,0-5,0
			C259.3,16.2,261.3,17.1,263.6,15.4z"/>
		<path class="st0" d="M292.4,146.1c1.1,1.1,2.6,0.6,4.5,0.3c-1.3-1.2-1.8-2.9-3.7-2.2C292.5,144.6,291.9,145.7,292.4,146.1z"/>
		<path class="st0" d="M382.1,145.9c2.2-0.1,4.5-0.3,6.7-0.1C386.6,144.8,384.3,144.4,382.1,145.9z"/>
		<path class="st0" d="M297.1,10.9c-1.4-0.9-2.6-2.1-4.1-1c-0.4,0.3-0.3,1.9-0.1,2C294.4,12.3,295.2,9.9,297.1,10.9z"/>
		<path class="st0" d="M460.7,81.4c1.7-0.6,3.7,1.6,5.6-0.9C464.1,80.1,462.3,79.7,460.7,81.4z"/>
		<path class="st0" d="M359.5,137.5c2.4-0.9,4.9-0.8,7.4-1.1C362,135.6,362,135.6,359.5,137.5z"/>
		<path class="st0" d="M81.4,27.2c-0.3-0.7-0.5-1.5-1.6-1.2c-0.7,0.2-1.6,0.4-1.3,1.5c0.2,0.7,0.4,1.6,1.5,1.3
			C80.7,28.6,81.3,28.1,81.4,27.2z"/>
		<path class="st0" d="M382.8,132.2c2.3-0.4,4.1,0.6,5.5-1C386.6,130.5,384.8,129.4,382.8,132.2z"/>
		<path class="st0" d="M388.3,131.2L388.3,131.2C388.4,131.2,388.4,131.2,388.3,131.2C388.4,131.2,388.4,131.2,388.3,131.2
			L388.3,131.2z"/>
		<path class="st0" d="M54.3,29c0.4,2.6,2.5,1.6,4.1,1.9c0.5,0.7,1.4,2,1.9,1.4c0.8-1,0.3-2.4-0.9-3.2c-0.6,0-1.3-0.1-1.9-0.1
			c-0.7-0.6-1.3-1.2-2-1.7c-0.9-0.7-1.4,0-1.9,0.6C52.8,28.6,53.2,29,54.3,29L54.3,29z"/>
		<path class="st0" d="M8.9,135.5c2.6,0.2,4,0.5,5.9-0.4C12.5,133.4,11.3,134.4,8.9,135.5z"/>
		<path class="st0" d="M21.8,140.5c0,0.2,0,0.3,0,0.5c2.1,0,4.3,0,6.4,0c0-0.2,0-0.3,0-0.5C26.1,140.5,24,140.5,21.8,140.5z"/>
		<path class="st0" d="M290.6,15.9c-1.3-0.3-2.6-2-4.7-0.4C287.5,16.7,289,16.3,290.6,15.9z"/>
		<path class="st0" d="M199.7,19.9c1.6,0,3.2,0,5.3,0c-1.6-1.7-2.9-1.8-4.4-1.7c-0.5-2.9-2.7-0.1-3.9-1c-0.8-1-1.9-0.9-2.1,0.1
			c-0.2,1.4,1.3,0.6,2.1,0.9C197.7,18.7,198.7,19.3,199.7,19.9z"/>
		<path class="st0" d="M328.6,143.8c1.3,1.6,2.5,1.1,4.4,0.8C331.3,142.8,330.1,142.8,328.6,143.8z"/>
		<path class="st0" d="M366.9,145.2c-2.2,0-4.3,0-6.5,0c0,0.2,0,0.3,0,0.5c2.1,0,4.3,0,6.4,0C366.9,145.5,366.9,145.3,366.9,145.2z"
			/>
		<path class="st0" d="M63.2,28.2c0.9,0,1.6-0.2,1.3-1.2c-0.3-0.6,0.1-1.7-1-1.7c-0.9,0-1.1,0.9-1.4,1.6
			C61.7,27.9,62.3,28.1,63.2,28.2z"/>
		<path class="st0" d="M305.8,151.5c-2.7-0.4-4.1,0.4-6.4,1.5C302.3,153.2,303.7,152.5,305.8,151.5z"/>
		<path class="st0" d="M365.2,147.2c2.8,0.5,4.7,0.6,7.8-0.2C369.9,146.7,368,146.5,365.2,147.2z"/>
		<path class="st0" d="M87.1,29.9c0.7,0.1,1.6,0.2,2-0.8c0.1-0.9-0.7-0.9-1.3-1c-0.8-0.1-1.7-0.2-1.9,0.8
			C85.7,29.8,86.6,29.9,87.1,29.9z"/>
		<path class="st0" d="M123.9,145.5c1.5,0.3,2.9,0.8,4.3-0.3C126.7,143.9,125.3,143.9,123.9,145.5z"/>
		<path class="st0" d="M373.9,131.9c0,0.4,0,0.8,0,1.2c1.5-0.2,3.2,0.4,4.1-1.4C376.5,130.6,375.2,131.7,373.9,131.9z"/>
		<path class="st0" d="M317.1,11.7c-0.2-0.5-0.4-1.2-1.2-1.1c-0.6,0.3-1,0.8-0.8,1.4c0.2,0.6,0.6,1.1,1.3,1
			C317.1,12.9,317.4,12.3,317.1,11.7z"/>
		<path class="st0" d="M354.8,140.5c1.8-0.2,2.8-0.4,3.9-0.5c-0.2-0.4-0.2-0.9-0.5-1.1C357,138.3,356.1,138.9,354.8,140.5z"/>
		<path class="st0" d="M360.2,139.5c1.8,0,3.2,0,5.5,0C363.3,138.3,362,138.1,360.2,139.5z"/>
		<path class="st0" d="M125.3,141.2c-2.1-1.4-4.5-0.7-6.8-0.8c0.9-2.9-1.7-1.5-2.7-2c-1.6-1.2-3.3-0.9-6.2-0.3
			c2.5,0.6,3.8,1,5.1,1.3c1.1,1,1.9,2.6,3.9,1.8c1.9,0,3.7,0.1,5.6,0.1C124.5,141.7,124.9,141.6,125.3,141.2z"/>
		<path class="st0" d="M340.9,140.4c-2.1-0.9-2.1,1.9-3.8,1.8c-0.8-0.2-2-1.4-2.4-0.2c-0.5,1.6,1.1,1.8,2.4,1.9c1.3,0,2.6,0,3.9,0
			c1.4-0.1,3.1,0.9,4.1-0.7c0.1-0.1-0.8-0.8-1.2-1.2C344.5,138.9,341.9,140.9,340.9,140.4z"/>
		<path class="st0" d="M469.2,47.2c-0.1,0.2,0.1,0.6,0.3,0.7c1.2,0.6,2.1-0.2,3-0.6c2.5,0,5.1,0,7.6,0c0-0.3,0-0.6,0-0.9
			c-2.5,0-5,0-7.6,0C471.4,46.6,470,45.9,469.2,47.2z"/>
		<path class="st0" d="M171.1,24.6c0.1,0.7,0.9,0.8,1.5,0.6c0.5-0.2,1-0.6,2.1-1.2c-1.2-0.2-1.8-0.4-2.3-0.4
			C171.7,23.7,170.9,23.8,171.1,24.6z"/>
		<path class="st0" d="M439.7,21c-2.4-0.7-3.7,0-5.9,0.5C436.2,21.8,437.5,22.1,439.7,21z"/>
		<path class="st0" d="M164.3,20.6c-1.4-0.9-2.3-0.1-3.4,0.2c-1.6-1.7-2.9-0.9-4,0.6c1.3-0.2,2.7-0.4,4-0.6
			C162.4,23.7,163.1,21.3,164.3,20.6z"/>
		<path class="st0" d="M112.4,20.4c-1.5-0.3-2.6,0.2-3.6,1.1C109.9,21.5,111.4,22.4,112.4,20.4z"/>
		<path class="st0" d="M422.4,17.5c-2.9,0-4.4,0-5.9,0C418.1,18.3,419.6,18.3,422.4,17.5z"/>
		<path class="st0" d="M80.7,30.8c-1.3-0.8-2.2,0.3-3.4,0.7c1.3,0.4,2.3,0.6,3.4,0.1C80.8,31.5,80.9,30.9,80.7,30.8z"/>
		<path class="st0" d="M50.6,31.6L50.6,31.6c1.2-0.2,2.1,1.4,3.3,0.5c0.1-0.1-0.7-1.4-1.1-2.2c-1,0-1.9,0-2.9,0.1
			c-0.7,0-1.2,0.4-0.9,1.1C49.3,31.9,50,31.6,50.6,31.6L50.6,31.6z"/>
		<path class="st0" d="M41,32.7c0.7,0,1.3,0,2,0c1.1-0.8,2.8-0.5,3.5-1.9c-1.3-1.1-2.4,0.4-3.5,0.3c-1.8-2.2-2.8-0.1-4,0.6
			c-0.5,0.2-1.6,0.2-1.2,0.9C38.6,34,39.9,33.1,41,32.7z"/>
		<path class="st0" d="M208.4,22c-2.1,0-3.1,0-5.4,0C205.5,23.5,206.4,22.8,208.4,22z"/>
		<path class="st0" d="M391.2,144.7c-0.1,0.1,0.1,0.8,0.3,0.9c0.8,0.3,1.4,0,1.9-0.7c0.3-0.6-0.2-0.9-0.6-0.8
			C392.2,144.2,391.7,144.4,391.2,144.7z"/>
		<path class="st0" d="M167.6,17.9c1.5,0.4,2.5-0.3,3.8-1.4C169.3,16.2,168.3,16.7,167.6,17.9z"/>
		<path class="st0" d="M418.3,16c1.3,0.4,2.5,0.4,4.7-0.4C420.8,15.5,419.6,14.9,418.3,16z"/>
		<path class="st0" d="M336.8,11.1c-1-0.1-1.4-0.3-1.8-0.2c-0.7,0.1-1.9,0.3-1.1,1.2C334.6,12.9,335.5,12,336.8,11.1z"/>
		<path class="st0" d="M367.9,9.6c1.3,0.6,2.5,0.4,3.9-0.2C370.6,9.4,369.3,8.5,367.9,9.6z"/>
		<path class="st0" d="M216.3,21.8c0.8,0,1.8-0.2,0.7-1.1c-0.6-0.6-1.4,0.1-2.6,0.8C215.4,21.6,215.9,21.8,216.3,21.8z"/>
		<path class="st0" d="M459,56.5c-1.9,0.7-4.3-0.6-6.5,1.7c3-0.1,5.4,0.8,7.6-0.8c1.3,0,2.5-0.1,3.8-0.1c1.6,0,3.2,0,4.7,0
			c1.8,0,3.8,0.4,5.2-1.8c-2.9,0.3-5.7-0.7-8.2,0.9l0,0c-0.6,0.1-1.2,0.1-1.8,0.2C462.2,56.5,460.6,56.5,459,56.5z"/>
		<path class="st0" d="M255.5,147.3c0.8,0.5,1.7,0.6,2.5,0c-0.6-0.9-1.3-1.2-2.3-0.7C255.6,146.6,255.5,147.2,255.5,147.3z"/>
		<path class="st0" d="M108.2,146.8c0.1,0.3,0.5,0.7,0.9,0.7c0.2,0,0.6-0.4,0.9-0.6c-0.3-0.3-0.6-0.6-1-1
			C108.6,146.2,108.1,146.6,108.2,146.8z"/>
		<path class="st0" d="M179.7,19.2c-0.3-0.6-0.9-0.7-1.5-0.4c-0.4,0.2-0.6,0.5-1,0.8c0.5,0.1,1.1,0.3,1.6,0.4
			C179.3,20,179.8,19.9,179.7,19.2z"/>
		<path class="st0" d="M85.6,145.1c-1.1-0.4-2.1-0.4-3,0.4C83.6,145.3,84.8,146.5,85.6,145.1z"/>
		<path class="st0" d="M215.4,17.3c0.3-0.6-0.1-0.9-0.6-0.7c-0.5,0.2-0.9,0.8-1.2,1.2c0,0.1,0.3,0.4,0.9,1.2
			C214.8,18.4,215.1,17.9,215.4,17.3z"/>
		<path class="st0" d="M125.3,141.2c-0.4,0-0.8,0.1-1.2,0.1c1,1.4,2.5,1.1,4.1,1.3C127.5,140.8,126.3,141.2,125.3,141.2z"/>
		<path class="st0" d="M177.2,16.9c-0.4-0.3-0.9-0.6-1.4-0.9c-0.5-0.2-1,0-0.8,0.5c0.1,0.3,0.6,0.6,1,0.8
			C176.4,17.6,176.9,17.8,177.2,16.9z"/>
		<path class="st0" d="M255.4,14.4c-0.1-0.3-0.6-0.6-1-0.6c-0.4-0.1-1,0.1-0.8,0.7c0.1,0.3,0.6,0.6,0.8,0.7
			C255.2,15.2,255.5,14.8,255.4,14.4z"/>
		<path class="st0" d="M188.5,14.1c0.9,0.5,1.7,0.8,3.5,1.7C190.8,13.8,190,13.3,188.5,14.1z"/>
		<path class="st0" d="M283.1,12.1c-0.8-0.5-1.6-0.6-2.4,0.1c0.7,0.7,1.4,1.2,2.3,0.6C283.1,12.7,283.2,12.2,283.1,12.1z"/>
		<path class="st0" d="M139.7,11.4c-0.2-0.3-0.4-0.6-0.5-0.8c-0.3,0.3-0.8,0.5-0.9,0.8c-0.2,0.4,0.1,0.9,0.6,0.8
			C139.2,12.1,139.4,11.7,139.7,11.4z"/>
		<path class="st0" d="M423.2,43.7l-0.1,0.1c-0.1,0.1-0.2,0.1-0.2,0.2h0.1C423.1,43.8,423.2,43.7,423.2,43.7z"/>
		<polygon class="st0" points="149.4,31.8 149.4,31.8 149.4,31.8 		"/>
		<path class="st0" d="M475.2,96.8L475.2,96.8c1.8,0.2,3.5,0.3,4.4-0.7c1.1,0,2.3,0,3.8,0c-1-0.8-2.1-0.9-3.3-0.9
			c-1-0.1-2-0.3-2.9-0.4c-1.6,0-3-0.7-4.7-0.5c-0.1-0.2-0.5-0.2-0.7-0.4c0.6-0.3,1.3-0.2,1.8-0.9c-0.9-2.3-3.7,0.1-4.8-1.7
			c0.9-0.1,1.8-0.2,2.7-0.3c1,0,2,0,3,0.1c1.4,0.3,2.7-0.2,3.9-0.8c1.6-0.2,3.4,0.5,5-0.4c-1.7-0.9-3.4-0.3-5.1-0.3c-1,0-2,0-2.9,0
			c-2.3,0-4.7-0.6-6.9,0.7c-1,0-1.9,0.1-2.9,0.1h-0.4c-2.1-0.6-4.1-1.2-6.2-1.9c-2.1-1.4-4.4-0.8-6.6-0.7c-0.7-0.2-1.6-0.3-2.4-0.4
			c-0.2-0.1-0.4-0.2-0.5-0.5c5.4-0.2,10.9,0.4,16.2-1.1c1.4,0.1,2.9,0.4,4.3-0.3c-1.4-0.8-2.9-0.4-4.3-0.3c-1.7,0-3.5-0.1-5.2-0.1
			c-2.6,0-5.5,0.7-7.3-1.9c0-0.3,0-0.6,0-0.9c1.4-0.2,3.3,0.8,4.8-1.4c-2,0.2-3.4,0.4-4.7,0.6l0,0c-0.7,0-1.4,0-2.1,0
			c-1.9,0-3.8,0-5.7-0.1c-3.6-0.1-6.9-2.3-10.6-0.9c-0.7-0.3-1.4-0.5-2.2-0.8l0,0c-1.3-0.2-2.6-0.4-3.8-0.6c0.7-0.3,1.3-0.6,2-0.9
			c1-0.1,2.2,0.1,2.9-0.5c0.3,0,0.6,0,0.9-0.1c1-0.2,2-0.4,3-0.5c-0.3-1.1-4.3-0.1-3.8-1.6c0.9-0.1,1.9-0.3,2.8-0.4l-0.2-0.2
			c0.1,0,0.2,0,0.3,0c-0.1,0.1-0.1,0.1-0.2,0.2c2,1.2,4.1,1.9,6.8,0.4c1.9,0,3.8,0,5.8,0c0.6,0.1,1.1,0.2,1.4,0.1
			c1.4,0.1,2.8-0.3,4.7-0.3c-1.7-0.9-3-0.1-4.2-0.2c-1.5-0.3-3-0.6-4.5-1l0,0l0,0c-0.1-0.1-0.1-0.3,0-0.4c0.3-0.1,0.6-0.3,0.9-0.4
			c2-0.1,4.1,0,6-0.2c2-0.3,1.1-0.6-0.2-0.9c0.3-0.1,0.5-0.3,0.8-0.4c1.5,0.1,2.8-0.1,3.8-0.6c0.2,0.1,0.4,0.1,0.7,0.1
			c0.9,0.1,2.3,0.3,2.4-0.1c0.2-0.7-1.2-0.6-2.3-0.6c-0.3,0-0.5,0-0.7-0.1c0.3-0.2,0.7-0.3,1-0.5c1.3,0,2.5,0,3.8,0
			c0.6,0,1.3,0.1,1.9,0.1c1.5,0.6,3.1,0.4,5.6,0.3c-2-0.3-3.4-0.6-4.7-0.8c-1.5-0.2-0.7-2.2-3.8-1c-0.4-0.1-0.8-0.2-1.1-0.3
			c0.4-0.2,0.8-0.4,1.2-0.6l0,0c1.1,0,2.1,0,3.8,0c-2.1-0.6-3.5-0.9-4.9-1.3l0,0c0.1-0.1,0.1-0.3,0.2-0.4c0.7-0.3,1.3-0.6,2-0.9
			c1-0.1,2.1,0.4,3.4-0.2c-1.2-0.3-2.4-0.5-3.5-0.8c-1-0.2-1.9-0.3-2.9-0.5c-1.7-0.7-4-0.5-5.8-0.9c0.3-0.1,0.7-0.3,1-0.4
			c1.2,0,2.6,0.2,3.7-0.3h-0.1c-2.3-1.3-5.7-1-8.6-1.5c-1.3-0.2-2.5-0.3-3.8-0.5c2.4-0.3,4.5-1,5-4c-0.1-0.1-0.2-0.2-0.3-0.4h0.1
			l0.2,0.4c1.1-0.9,4,0.1,3-2.8c0.9,0,1.8,0,2.7,0c1.4,3,2.8-0.2,4.2,0l0.3,0.2l0.3-0.1c1.9-0.4,4.2,0.7,5.9-1.1
			c-1-1.2-2.1-2.3-3.1-3.5c-1.9,0-4-1.4-5.5,0.7l0,0l-0.3-0.2l-0.3,0.2c-0.1-0.8-0.1-1.7-0.2-2.5c1.5-0.1,3-0.2,4.5-0.3
			c1.1,0.1,2.4,0.5,3.4-0.4c-1.1-1.6-2.3-0.7-3.4-0.3c-1.9-0.1-3.9-0.1-5.8-0.2c0.2,0.1,0.2,0.3,0.1,0.4v0.1l0,0v-0.1
			c-0.1,0-0.3,0-0.4,0c0.1-0.1,0.2-0.3,0.4-0.4c-0.9-0.5-1.9-1-2.8-1.5c1.3-0.3,2.7-0.6,4-0.9l0,0c0.5,0,1.1-0.1,1.6-0.1
			c2.6-0.4,5.4,0.7,7.8-0.9l0,0c0.6-1.1,1.8-0.8,2.8-1c2.1,0,4.3,0.6,6.1-1.4c-2.3-0.6-4.2-0.3-6.1,0.7c-1.6,0-3.3,0-4.9,0.1
			c-1-0.2-2.3,0.3-2.8-1c0.3,0,0.6,0,1-0.1c2.4,0.1,4.9,0.6,7.4-1.6c-2.9,0-5.1,0-7.4,0c-0.3-0.3-0.6-0.6-0.9-0.9
			c1.2-0.1,2.4-0.2,3.6-0.3c2.1,0.3,4.2,0,6.7-0.6c-2.9-1.6-5.3-0.9-7.7-0.2c-1.9,0-3.9,0-5.8,0c-0.5,0.2-0.9,0.4-1.4,0.7
			c-0.4-0.5-0.9-1-1.3-1.5c1-0.6,2-1.2,3-1.8c1.3-0.3,2.7,0.6,4.3-0.9c-2.4-0.2-4.4,0-6.3-0.8c-1.2,0-2.5,0-3.7,0
			c-2.3-0.4-4.5,0.2-6.7,0.7l-0.3,0.2c0.1-0.3,0.1-0.6,0-0.8c0.8-1.6,3.1-0.5,4.1-1.8c0.5,0.2,1.1,0.4,1.6,0.6
			c2.3-0.2,4.9,1.2,7-0.8c5-2.3,10.7,0.9,16.4-2.4c-1.8-0.1-2.9-0.2-3.9-0.2c-5.4,0.7-10.9,0.7-16.3,0c-0.7,0-1.3,0-2,0
			c-2.6,0.4-5.5-0.9-7.9,0.9c-0.6,0-1.2,0-1.8,0c-0.8-0.1-1.8-0.1-2-1c-0.2-1.2,1-0.9,1.6-0.9c5.3,0,10.5,0,15.8,0
			c-2.9-1.1-5.7-2.5-8.6-0.9c-1.7-1.8-3.9-0.7-5.9-0.8c-3.2-0.1-6.4-0.2-9.7-0.2c-0.2-0.2-0.4-0.2-0.6,0l0,0
			c-2.3-1.1-4.8-0.2-7.1-0.8c-1.6-1.8-3.7-2-6-1.7l0,0l0,0c-0.3-0.1-0.5-0.2-0.8-0.3c0.1-0.6,1.8-1.1,0.7-1.5
			c-1.3-0.5-3.2-0.7-3.7,1.5c-0.3,0.1-0.6,0.1-0.9,0c-0.5-0.8-1.2-1-2.3-1.2c-5.4-0.7-10.9,0.5-16.1-1.4c2.6,0,5.1,0,7.7,0
			c0.4,0,0.7,0,1.1,0c1.3,0,2.6,0,3.9,0c0-0.2,0.1-0.5,0.1-0.7c-0.7-0.1-1.4-0.2-2.1-0.3c0.9-1.5,3.1,0,4.1-1.6
			c-2.2-2.1-4.9-0.2-7.2-0.9c0-0.3,0-0.6,0.1-0.9c1.6-0.1,3.2-0.1,4.8-0.1c2.9,0,5.7,0,8.6,0c0-0.2,0-0.5,0-0.7c-2.9,0-5.7,0-8.6,0
			c-3.8,0-7.6,0-11.5-0.1l0,0l0,0l0,0l0,0c-2,0-4,0-6.1,0l0,0l0,0c-6.1,0-12.1,0-18.2,0c-5.5-1.4-11-0.9-16.6-0.8
			c-1.5,0-3.6-1.2-3.6,1.6c-1.3,0.3-2.7,0.6-4,0.9c-2.9,0.1-5.7-1.4-8.7-0.8c-0.6-0.1-1.2-0.1-1.8-0.2c0.6-1.1,1.7-0.7,2.7-0.9
			c0.8-0.2,2.1,0.6,2.2-0.7c0-1-1.2-1-2.1-1.1c-1.8,0.3-5.1-1.5-3.9,2.7c-1.6,0-3.1,0.1-4.7,0.1l0,0l0,0c-2,0-3.4,1.3-5.2,1.9
			c-1.6-1.2-3.6-1.1-5.5-1.2c-2.7-2.6-2.7-2.6-5.4-1.5c0.8,1.2,2.8,0.4,3.5,1.8c0.6,0.3,1.2,0.6,1.8,0.9c-2.6,1.8-6-0.4-8.6,1.5
			c-0.6,0.1-1.3,0.2-1.9,0.3c-0.7,0-1.3-0.1-2-0.1c-0.1-0.7,2.1-1,0.5-1.8c-1.9-0.9-4.1-1.5-4.3,1.7c0.1,0.1,0.1,0.2,0.2,0.2
			c-0.1,0-0.2,0-0.3,0l0.1-0.2c-1,0.1-2,0.2-3,0.3c-6.1-0.2-12.3-0.5-18.4,0.7c-0.3,0.3-0.7,0.6-1,0.8l0,0l0,0
			c-0.3,0-0.6,0.1-0.9,0.1c-2-1.8-4.4-0.8-6.7-0.8c-3.2-2.1-6-1.5-8.1,1.4c-1.4,1.9-3.3,2.2-5.5,2.1c-1.1-1.4-2.6-0.7-3.9-0.8
			c0,0.3,0,0.6,0,0.9h-0.1c0.2-0.3,0.3-0.6,0.1-0.9c-0.3-3.5-2.4-3-4.8-2c-1.4-1.2-2.9-1.7-4.8-0.9c-2.4-1.3-3.5-0.9-3,1.9
			c0,0.5,0,1,0,1.6c-0.6,0.1-1.3,0.1-1.9,0.2c0-1.2-0.7-1.8-1.9-1.8c-0.2-1.7,1.1-3.4,0-5.5c-2.7,2.6-5.8,0.7-8.8,1
			c-0.6,0-1.3,0-1.9,0.1c-1.1,0.1-2.8-1-3,0.8c-0.2,1.9,1.7,1.7,3.1,1.8c0.3,0,0.6,0.1,0.9,0.2l0,0l0,0c0,0.3,0,0.5,0,0.8
			c-1.1,1.5-2.7,0.6-4.1,0.9c-1.9,0.2-1.7,1.6-1.7,2.8c-1.2,0.6-2.5,1.2-3.7,1.8l0,0c-1.8-0.3-3.5,0.1-5.1,0.9
			c-1.5-1.2-3,0.2-4.5,0.1c0,0-0.1,0-0.1-0.1l0,0l0,0l0,0h-0.1c-0.5-0.7-1.2-1-2.1-1l0,0l0,0c-1.6-1.5-3.3-1-4.9-0.2
			c-1.2,0.3-2.7-0.2-3.8,0.8c-2.4,1.1-5.5-1.8-7.6,1.1c-3.6-0.7-7.1-1.1-10.6,0.2c-0.3-0.1-0.6-0.2-0.9-0.3c0.5-1.6,0.3-2.9-2-2.6
			c0.1-0.7,1.1-1.4,0.4-1.9c-0.8-0.5-1.9,0.1-2.4,0.8c-0.8,1.1,0.4,1,1,1.2c0.3,0.8,2.1,1.3,0.9,2.6l0.1,0.2
			c-4.5,0.2-9.1-1-13.5,0.9c-3,1.8-3.9-3-6.7-1.9c-2-0.4-4.2-2.2-5.5,0.9c-2.4,0.1-4.8-1.4-7.1,0.1c-1.3,0.3-2.6,0.6-3.9,0.9l0,0
			l0,0c-0.3-1.9,1.1-2.4,2.5-3.1s2.3-1.9-0.2-2.5c-2.8-4-5.9-4.4-12.1-1c4.2-0.1,8-2.1,10.9,1.1c-1.5,0.9-3.2,0.8-4.8,0.9
			c-1,0-2,0-2.9,0c-2,0-3.9,0.1-5.9,0.1l0,0l0,0c-0.3,0-0.5,0-0.8,0c0.3-1.6,0.9-3.4-2.1-2.8l0,0l0,0l0,0l0,0
			c-1.1-0.1-1.9,0.3-2.7,1c-2,0.1-4.1-0.6-5.9,0.7c-1.7,0.3-3.5-0.2-5.1,0.8l0,0c-0.9,0.1-2.2-0.2-2.3,0.9c-0.1,0.6,1,1.3,1.5,1.9
			c-1,0.2-2.2-0.3-2.8,0.9c-1.3,0.4-2.6,0.7-3.8,1.1c-1.6,0-3.2,0.1-4.8,0.1c-0.2,0.2-0.1,0.4,0,0.7h-0.1c0.1-0.2,0.1-0.4,0.1-0.7
			c0-0.3-0.1-0.7-0.1-1c0.9-0.5,2.2,0.1,2.8-1.1c1.1-0.5,2.8,0.5,3.8-1.3c-2.1-0.7-3.9-0.5-5.7,0.5c-4.2,0.3-8.3,1.9-12.6,1.6
			c0-0.3,0-0.5,0-0.8l0,0c0.6-0.5,1.4-1.3-0.1-1.2c-1.2,0-2.3,0.9-2.8,2.1c0.3,0.6,0.5,1.2,0.8,1.7c2.3,1.9,4.6-0.8,6.9,0.1
			c0,0.5-0.1,1.1-0.1,1.6c-4.5,0.1-8.4,1.5-11.5,4.6l0,0c-0.3,0-0.6,0-0.8,0.1c-2-0.3-3.9-1.9-6-0.5c-0.3,0.1-0.5,0.1-0.8,0.3l0,0
			c-0.3,0.1-0.7,0.2-1,0.2c-2,0.3-4.2-0.6-6,0.7c-2.5-0.7-5,0.1-7.4,0.4c-2.3-0.1-4.5-0.1-6.8-0.2c-1.6,0.8-3.7-1.9-5,0.7
			c-0.3,0.1-0.6,0.2-0.8,0.3c-4.9,0.6-9.7,1.2-14.6,1.8l0,0c-1.3,0.3-2.5,0.6-3.8,0.9c-2.9,1-6.4,0.3-8.6,2.9
			c-1.7-0.2-3.3,0-4.9,0.8c-1.3,0.3-2.6,0.6-3.9,0.8c-0.8,0.4-2.1,0.2-2,1.6c1.2,0.3,2.2,0.2,3-0.7c1.3-0.1,2.8,0.4,3.9-0.9
			c1.5-0.1,3.2,0.3,3.9-1.6l0,0c1.1,0.8,2.4,0.5,3.7,0.5c0.3,0.3,0.7,0.6,1,0.9c-1.8,0.9-4.1,0.5-5.8,1.9c-1,0.3-1.9,0.6-2.9,1
			c-1.1,0.5-2.2,1-3.5,1.5c1.3,1.3,2.4,0.1,3.4,0.4c0.7,0.6,1.3,1.2,2,1.8c0.1,0.3,0.1,0.6,0.2,0.9c-1,0.6-2.3,1.2-3.5,1.9
			c-1-0.5-2.4-0.4-3.6-0.5c-2.6,0-5.1,0-7.7,0c0,0.1,0,0.2,0,0.3c2.9,0.2,5.8,0.4,8.6,0.6c0.7,0,1.4-0.1,2.1-0.1
			c-0.3,0.2-0.5,0.3-0.9,0.5c1.7,0,2.7,0,3.8,0c0,0,0,0,0.1,0.1c-3.6,0.1-7.2,0.2-10.7,0c-1.1,0-2.1,0.1-3.9,0.1
			c4.4,1.2,8.7,0.8,12.8,1c-0.9,0.5-0.9,2.3-1.9,2.6c-0.5,0.2-1.3,0.4-1.9,0.6c-1.8-0.2-3.7-0.3-5.9,0.3c1.6,0.2,3,0.2,4.4,0.2
			c-0.5,0.2-0.7,0.2-1.3,0.4c2,0.2,3.5,0.3,4.8-0.3c0.8,0,1.7,0.1,2.5,0.1c-0.3,0.2-0.6,0.3-0.9,0.5c-2.2,0-4.5,0-7.4,0
			c2.5,1.1,5,0.8,7.4,0.8c0.3,0,0.6,0.1,1,0.1c-0.5,0.7-1.8,0.4-2.8,0.5c-1.6,0-3.3,0-4.9,0c-2.4-1.1-4.4-1.3-6.7-1
			c1.7,1,4,0.7,6.1,0.7c1,0.1,2.2-0.1,2.8,0.5c2.4,0.8,5.2,0.3,7.8,0.5c0.5,0,1.1,0,1.6,0l0,0c1.3,0.2,2.7,0.3,4,0.5
			c0.2,0,0.5-0.1,0.7-0.1l0,0c-0.2,0.1-0.5,0-0.7,0.1c-0.9,0.3-1.9,0.5-2.8,0.8c0.1,0.1,0.2,0.1,0.4,0.2c-0.1,0-0.3,0-0.4,0
			c0,0,0,0,0,0.1l0,0c0,0,0,0,0-0.1c-0.1-0.1-0.1-0.2,0.1-0.2c-1.9,0-3.9,0.1-5.8,0.1c-1.1-0.2-2.3-0.6-3.4,0.2
			c1,0.5,2.2,0.3,3.4,0.2c1.5,0.1,3,0.1,4.5,0.2c-0.1,0.4-0.1,0.8-0.2,1.2L24.7,65l-0.3,0.1l0,0c-1.6-1-3.7-0.3-5.5-0.3
			c-1,0.6-2.1,1.2-3.1,1.7c1.7,0.9,3.9,0.3,5.9,0.5l0.3,0.1l0.3-0.1c1.4-0.1,2.8,1.5,4.2,0c0.9-0.2,1.8,0.1,2.7,0.1
			c-0.4,0.7,0.4,0.9,1.3,1C29.6,68,29,68,28.2,68.8c1,0.1,1.9,0.5,2.7,0.8c-2.2-1.1-4.6-0.5-6.5-0.8l0,0c-1.6,0-3.2,0-4.9,0
			c-0.6,0-1.2,0-1.8-0.1c-1,0.1-2,0-2.8,0.4c0.8-0.3,2.1,0,2.8-0.4c-2.5-0.8-5.2-0.3-8.2-0.4c1.5,1.1,3.4,0.9,5.2,0.9l0,0l0,0l0,0
			l0,0c1.6,0,3.2,0,4.7,0c1.3,0,2.5,0,3.8,0.1c2.2,0.8,4.6,0.3,7.6,0.4c0.6,0.2,1.3,0,1.9-0.1c0.2,0.1,0.4,0,0.7-0.1
			c1.3,0.7,3.2,1,5.4,1.1c0.9,0,1.9,0.1,2.8,0.1c0.7,0.1,1.3,0.3,2,0.4c0.6,0.6,1.6,0.7,2.7,0.7c-0.2,0.2-0.5,0.3-0.6,0.7
			c1,0.4,2,0.7,3,1.1c0.3,0.1,0.6,0.2,0.9,0.2c0.7,1.1,1.9,0.6,2.9,0.9c0.7,0.6,1.3,1.3,2,1.9c0,0.1,0,0.2,0,0.4c-1.7,0-3.4,0-5.1,0
			c-1.9,0-3.8,0-5.7,0c0,0.1,0,0.3,0,0.4c1.9,0,3.8,0,5.7,0c1.7,0,3.4,0,5.1,0l0,0c-0.8,0-1.6,0.2-2.1,0.8c-0.3,0.1-0.6,0.1-0.9,0.2
			c-0.8,0.5-2.5,0.4-2.2,1.6c0.1,0.3,0.3,0.3,0.5,0.4c-0.5,0.1-0.9,0.2-1.4,0.2c-3.7-0.7-7.1,0.4-10.6,0.4c-1.9,0-3.8,0-5.7,0
			c-0.7,0-1.4,0-2.1,0l0,0c-1.4-0.1-2.7-0.2-4.7-0.3c1.5,1.1,3.3,0.6,4.8,0.7c0,0.1,0,0.3,0,0.4c-1.9,1.3-4.7,0.9-7.3,1
			c-1.7,0-3.5,0-5.2,0.1l0,0l0,0c-1.4,0-2.9-0.2-4.3,0.2c1.4,0.4,2.9,0.2,4.3,0.2c5.3,0.8,10.8,0.5,16.2,0.6
			c-0.2,0.5-1.2,0.3-1.8,0.5c0,0.1,0.1,0.2,0.2,0.3l0,0c0-0.1,0.1-0.2-0.1-0.3c-2.6,0.1-5.3-0.5-7.8,0.3c-2.1,0.3-4.1,0.6-6.2,0.9
			h-0.4c-1,0-1.9,0-2.9,0l0,0c-2.2-0.6-4.6-0.3-6.9-0.3c-1,0-2,0-2.9,0c-1.7,0-3.4-0.3-5.1,0.2c1.7,0.5,3.4,0.1,5,0.2
			c1.2,0.3,2.4,0.6,3.9,0.4c1,0,2,0,3,0c0.9,0.1,1.8,0.1,2.7,0.2c-1.1,0.9-3.9-0.3-4.8,0.8c1.8,1.4,5,0.7,7.5,1
			c-2.2,0.9-4.9,0.2-7.6,0.6c4.8,0.2,9.1,0.9,13.6,0.7l0,0c-0.3,0.4-0.7,0.8-1,1.2c-1.8-0.4-3.7-0.3-5.6-0.3c-2.3,0-4.7-0.3-7.4,0.2
			c2.1,1,4.4,0.6,6.5,0.6c1.9,0,3.7,0,5.6,0.1l0,0c-1,0.6-2.5,0.3-3.7,0.5c-1.4,0-2.7,0-5.1,0c2.2,0.6,3.4,1.2,5.1,0.4
			c1,0.1,2,0.2,3,0.4c1.8,0,3.6,0.1,5.5,0.1c2.5,0.4,5.1,0.5,7.7,0.6h-0.1c-1.8,0.4-4,1-4.2,3.5h-0.1l0,0c-3.6-0.2-7.1-0.2-9.7,2.6
			c-1.4,0-2.4,0.6-2.6,1.9c-1.3,2.7-4.8,3.5-6,6.3c-1.8-0.5-3.1,1-4.7,1c-1,0.3-2,0.6-2.9,0.9c-1.3,0-2.4,0.4-3.3,1.9
			c1.5,0,2.6,0,3.8,0c0.9,2.1,2.6,1.9,4.4,1.5l0,0c0,1.1-0.2,2.3,1.5,2.2c0.7,0.6,1.5,1.1,2.2,1.7c-0.9,1.9-3.7,1.1-4.7,2.8
			c-1.4,0.4-2.8,0.8-5,1.4c2.3,0.4,3.7,0.9,4.9-0.4c1,0.2,0.9,0.9,0.9,1.6c-0.2,0-0.5,0.1-0.7,0.2c-1.3,0.4-2.7,0.8-4.9,1.5
			c2.3,0.2,3.8,0.8,4.7-0.8c1.6,0.2,3.1,0.3,4.7,0.5l0,0c-0.3,0.5-0.5,1.1-0.8,1.6c-1.9,0.3-3.8,0.6-5.7,1c-1.1,0.4-2.2,0.7-4.1,1.4
			c2.5,0.3,3.9,0.6,5-0.5c2.2,0,4.5-0.1,6.7-0.2c0.3,0,0.6,0.1,1,0.1c0.1,0.8-0.3,1.3-1,1.7c-1.8-0.1-3.7-0.2-5.3,1.6
			c1.5,0.2,2.8,0.3,4.1,0.4c-0.6,1-1.7,0.7-2.6,0.9c-0.8,0.3-1.9,0.3-1.9,1.6c1.1,0.3,2.1,0.2,3-0.6c1.2-0.1,2.5-0.2,3.7-0.3
			c1.3,0.4,1.9,2.1,3.6,1.9l0,0c1.6,1.9,3.5,3,6.2,2.7l0.3,0.2h0.3l0,0c2.2,1.2,4.7,1.4,7.2,1.6c1,0.3,1.9,0.6,2.9,0.9
			c0.7,1.2,1.9,1,3.1,0.9c1.9,0.4,3.6,1.5,5.6,1c1,0.4,1.8,1.1,3,0.8c2.5,0.3,4.9,0.6,7.4,0.9c3.3-1.2,6.6,2.4,9.9,0.2
			c0.6,0,1.2,0,1.9,0c0.8,1,2,0.4,3,0.8c2,1.8,4.5,0.6,6.8,0.9c2.3-0.3,4.5-0.7,6.8-1c1.8-0.9,4.4,0.5,5.7-1.7l0,0
			c1.5-0.7,2.8-2.2,4.8-1.7c2.8,1.5,5.8,0.4,8.7,0.7c-1.3,1.7-4,0.4-5.8,2.6c3.2-0.7,6.8,2.5,8-2.5c0.3,0,0.6,0.1,0.8,0.1l0,0
			c0.8,1,1.9,0.6,2.9,0.7c1-1.1,3.1-1.5,2-3.6c-0.3-0.6-0.6-1.2-1-1.8c1.6-1.1,1-1.7-0.6-1.8s-1.8-0.7-1.3-1.9
			c0.6-0.3,1.2-0.5,1.8-0.8c0.8,0.3,1.8,1.6,2.3,0.3c1.5-3.2,2.5-0.3,3.8,0c-0.5,3.7,3.6,1.4,4.6,3.2c0.8,0.3,1.6,1.3,2.4,0.6
			s0.6-1.8-0.4-2.5l0,0c0-0.3-0.1-0.6-0.1-0.9c0.1-0.3,0.2-0.5,0.1-0.8c0.7-0.7,1.6-1,2.7-0.9c2.1,1.2,4.3,1.9,6.7,1.8
			c-0.3,0.8-2.4,0.7-1.1,2.3c0.8,1,1.3,2.6,3.2,1.3l0.4,0.1h0.4c0.2,1.3,0.9,1.9,2.3,1.7c1.6,0,3.1,0,4.7,0c1,0.3,2,0.7,2.9,1
			c0-0.3,0-0.6,0-1l0,0c-0.2,0.3-0.3,0.6-0.1,1c2.8,1,5.7,1.4,8.7,0.5c2.3,2.2,5.2,0.8,7.8,1.1c0-0.2,0-0.4,0-0.7l0,0l0,0
			c0.1,0,0.1,0,0.2,0c-0.1,0.2-0.3,0.4-0.1,0.7c2.3,0,4.5,0.1,6.8,0.1c2.5,0.1,4.9,0.2,7.4,0.3c8.5,1.3,17-0.1,25.5-0.2
			c2.6,0,5.2-0.1,7.8-0.1c3.5,0,7.1,0.1,10.6,0.1c1.9,0.4,3.9,0.6,5.8,0.1c0-0.3-0.1-0.6-0.1-1h0.1c-0.1,0.3-0.3,0.6-0.1,1
			c5.2-0.1,10.3-0.1,15.5-0.2c1.6,0,3.2,0.1,4.8,0.1c0-0.3,0-0.5,0.1-0.8h0.1c-0.1,0.3-0.4,0.5-0.2,0.8c1.9,0,3.9,0,5.8,0
			c0-0.3,0-0.5,0-0.8l0,0l0,0h0.1c-0.1,0.3-0.3,0.5-0.1,0.8c2.3,0.6,4.5,0.2,6.7-0.1c0.2-0.3-0.1-0.5-0.2-0.8c0.1,0,0.1,0,0.2,0
			c0,0.3,0,0.5,0,0.8c1.6,0,3.2,0,4.8,0c2.2,0,4.4,0.1,6.6-0.3c0.7,0,1.5-0.3,2.2-0.5c0.5,0,1.1,0,1.6,0c1.8,1.3,3.9,0.5,5.9,0.7
			l0,0c3.1,1.3,6.2,2.8,8.9-0.7c0.6-0.1,1.2-0.2,1.9-0.2c2.1,0.1,4.2,0.3,6.1-0.6c1.1,0.2,2.3,0.4,3.4,0.6l0,0
			c1.3,0.5,2.6,1.1,3.9,1.3c1.4,0.3,2.9,0.1,2.1-2c0.6-0.1,1.2-0.2,1.8-0.3c0.7,0.1,1.3,0.2,2,0.3c0.2,1.8,1.6,1.7,3,1.6
			c2.3-0.2,4.7,0.5,6.9-0.8l0,0c1.6-0.1,3.1-0.2,4.6-0.2c0-0.2,0-0.4-0.1-0.7c0.1,0,0.1,0,0.2,0c-0.1,0.2-0.2,0.4-0.1,0.7
			c2.3-0.1,4.8,0.8,7-0.8l0,0l0,0c1-0.3,1.9-0.6,2.9-0.9c1.7,1.6,3.7,0.7,5.6,0.7l0,0c1.3-0.3,2.6-0.6,3.9-0.9c0-0.2,0-0.4,0-0.6
			h0.1c0,0.2-0.2,0.4-0.1,0.6c1.9,0,3.8,0,5.7,0.1c2-0.3,4-0.6,6-0.9c0-0.3-0.1-0.5-0.1-0.8c-1.3,0-2.5,0-3.8,0
			c-0.3-0.3-0.6-0.5-0.9-0.8c1.2-0.1,2.5-0.2,3.7-0.3c-0.3-0.3-0.6-0.5-0.8-0.8c0-0.1,0.1,0,0.2-0.1c0.2,0.3,0.3,0.7,0.7,0.8
			c2.1,0.2,4.2,0.5,6.1-0.6c0.9-0.1,1.7-0.1,2.6-0.2c1.1,0,2.2,0.2,3-0.8c0.7,0,1.3-0.1,2-0.2c1.3-0.3,2.5-0.6,3.8-0.9l0,0l0,0
			c0.7,0.3,1.4,0.6,2.1,0.9c1.1,0.1,2.1,0.1,2.9-0.8c0.5-0.4,0.5-0.8,0-1.2c-0.5-0.7-1.2-0.7-2-0.6c0.9-2.5,3.8,0.1,5-1.8l0,0
			c1.4-0.3,3.4,0.3,3.8-1.8c1.3,0.7,2.5-0.2,3.8-0.2l0,0c2.8,2.6,4.9-1.7,7.5-0.7c2.1,0.9,4.2,0.8,6.3,0c6.3,0,12.5,0,18.8,0
			c3.3,1.2,6.6,0.6,9.9,0.5c2.1,0,4.2,0.2,5.7-1.7l0,0l0,0c1.3-0.3,2.6-0.6,3.9-0.9c0.3,0,0.6,0,1,0.1c1.7,0.2,3.2-0.1,4.2-0.6
			c0.5-2.2-3.8,0.2-2.1-2.9c0.3-0.1,0.5-0.1,0.7-0.2l0,0c1,0,2.1,0,3.5,0c-1-0.7-1.7-1.2-2.3-1.7l0,0c1.6,0,3.3,0,5.7,0
			c-2.3-2.1-3.9-2-5.7-0.9c-1.5-0.3-3-0.4-3.8-1.8c-0.3-0.2-0.6,0-0.9,0.1c0-0.1,0-0.2,0-0.3c0.3,0,0.6,0.1,0.9,0.2
			c2-0.4,4.2,0.2,6-0.9c-0.2,0.1-0.5,0.1-0.7,0c0,0,0-0.1,0.1-0.1l0,0c0.2,0,0.4,0,0.6,0.1c0.9,0,1.8-0.1,2.7-0.1
			c3.1,1,5.1-1.5,8.1-2.3c-3.3-0.4-6.2-0.8-9-1.2c-0.5-0.5-1.1-0.9-1.6-1.3c0.7-0.1,1.5-0.1,2.3-0.2l0,0l0,0c1.2,0,2.4,0.1,3.1-0.5
			c1-0.2,1.9-0.3,2.9-0.5c2.5-0.1,4.9-0.2,7.2-0.8l0,0h0.3l0.3-0.1c2.7,0.2,4.6-0.4,6.2-1.3c1.7,0.1,2.2-0.7,3.6-1
			c1.2,0,2.5,0.1,3.7,0.1c0.8,0.4,1.9,0.4,3,0.3c0-0.6-1.1-0.6-1.9-0.8c-0.9-0.1-2,0-2.6-0.4c1.3-0.1,2.6-0.1,4.1-0.2
			c-1.5-0.9-3.4-0.8-5.3-0.8c-0.7-0.2-1-0.5-1-0.9c0.3,0,0.6,0,1,0c2.2,0,4.5,0,6.7,0.1c1.1,0.6,2.5,0.4,5,0.3c-2-0.3-3-0.5-4.1-0.7
			c-1.9-0.2-3.8-0.3-5.7-0.5c-0.3-0.3-0.5-0.5-0.8-0.8c1.6-0.1,3.1-0.2,4.7-0.3c0.9,0.8,2.4,0.5,4.7,0.4c-2.2-0.3-3.5-0.5-4.9-0.7
			c-0.2,0-0.5-0.1-0.7-0.1c0-0.3-0.1-0.7,0.9-0.8c1.2,0.6,2.6,0.4,4.9,0.2c-2.2-0.3-3.6-0.5-5-0.7c-1-0.9-3.8-0.5-4.7-1.4
			c0.7-0.3,1.5-0.6,2.2-0.9C475.4,97.9,475.2,97.3,475.2,96.8z M418.3,126c0-0.1-0.1-0.1-0.1-0.2h0.1
			C418.3,125.9,418.3,125.9,418.3,126z M337.1,138.6C337,138.5,337,138.5,337.1,138.6C337,138.5,337,138.5,337.1,138.6
			C337.1,138.5,337.1,138.5,337.1,138.6z M324.7,137.8L324.7,137.8L324.7,137.8L324.7,137.8z M244.2,138.5c-0.1-0.1-0.2-0.2-0.4-0.4
			c0.1,0,0.2,0,0.4,0c0-0.4,0-0.8,0-1.2c0.1,0,0.2,0,0.3,0c-0.2,0.4-0.6,0.7-0.3,1.2V138.5c0.3,0,0.5,0,0.8,0
			c-0.1,0.1-0.2,0.1-0.2,0.1C244.6,138.6,244.4,138.6,244.2,138.5z M219.9,139.4L219.9,139.4c0-0.1,0.1-0.1,0.2-0.2v0.1
			C220,139.3,220,139.3,219.9,139.4z M52.6,38.1L52.6,38.1L52.6,38.1L52.6,38.1z M96.1,32.7L96.1,32.7L96.1,32.7L96.1,32.7
			C96.1,32.8,96.1,32.7,96.1,32.7z M367.9,127.4L367.9,127.4C367.9,127.5,367.9,127.5,367.9,127.4L367.9,127.4
			c0.1,0,0.2-0.1,0.3-0.1c0,0.1,0,0.1,0,0.1C368,127.4,368,127.4,367.9,127.4z M94.9,134.4c0.3,0,0.7,0.1,1,0.1
			c-0.1,0-0.2,0-0.4,0.1C95.4,134.5,95.1,134.3,94.9,134.4z M149.1,31.6c0.1,0.1,0.2,0.1,0.2,0.2c0.2,0,0.5,0,0.7,0l0,0
			c-0.3-0.1-0.5-0.2-0.8,0l0,0c0,0-0.1,0-0.2,0C149.2,31.7,149.1,31.7,149.1,31.6z M394.1,17.1L394.1,17.1
			C394.1,17.1,394.2,17.2,394.1,17.1c0.2,0.2,0.3,0.2,0.4,0.3c-0.1,0-0.3,0-0.4,0.1C394.1,17.4,394.1,17.3,394.1,17.1L394.1,17.1z
			 M393.2,20.9L393.2,20.9L393.2,20.9L393.2,20.9z M448.6,45.3L448.6,45.3L448.6,45.3C448.5,45.3,448.6,45.3,448.6,45.3z
			 M446.3,69.7C446.3,69.7,446.2,69.6,446.3,69.7C446.3,69.6,446.3,69.6,446.3,69.7C446.4,69.6,446.3,69.7,446.3,69.7z M353.5,130.3
			c0-0.1,0-0.1,0-0.2c0,0.1,0.1,0.1,0.1,0.2H353.5z M326.4,134.8L326.4,134.8c0.1-0.3,0.3-0.5,0.1-0.8c0-0.1,0-0.3,0-0.4
			c0.1,0.2,0.3,0.3,0.5,0.5c-0.2,0-0.3-0.1-0.4-0.1C326.4,134.3,326.4,134.5,326.4,134.8z M269.3,137.8L269.3,137.8
			C269.3,137.7,269.3,137.7,269.3,137.8L269.3,137.8z M59,40c-0.7,0-1.4,0-2.2,0.1l0,0C57.6,40.4,58.3,40.1,59,40L59,40z
			 M195.8,31.9L195.8,31.9c-0.2-0.2-0.4-0.5-0.7-0.6l0,0C195.4,31.4,195.6,31.6,195.8,31.9z M36.1,102.2L36.1,102.2
			c0.1,0.6,0.1,0.9-0.2,0.9C36.1,102.9,36.1,102.7,36.1,102.2z M281.9,29.9v0.2c0.1,0,0.3,0,0.4,0c-0.1,0.2,0,0.3-0.1,0.5
			c-0.1-0.2-0.3-0.3-0.4-0.5c-0.1-0.1-0.1-0.1-0.2-0.2C281.8,29.9,281.9,29.9,281.9,29.9z M295.9,28.9c0,0,0,0.1,0.1,0.1
			c-0.2,0-0.3,0-0.5,0C295.6,28.9,295.8,29,295.9,28.9z M369,119.7c0,0.2,0,0.3,0,0.5c0,0,0,0-0.1,0
			C369.1,120.1,369,119.9,369,119.7L369,119.7z M152.1,133.1c0,0-0.1,0-0.1-0.1c0.1,0,0.2,0,0.3,0
			C152.2,133.1,152.1,133.1,152.1,133.1z M90,122.6c-0.1,0-0.1,0-0.2,0C89.9,122.6,89.9,122.5,90,122.6
			C89.9,122.5,90,122.5,90,122.6z M319.6,28.2L319.6,28.2L319.6,28.2L319.6,28.2z M308,129.1C308,129.2,308,129.2,308,129.1
			C308,129.2,308,129.2,308,129.1C308,129.2,308,129.2,308,129.1z M313.1,127.7c-0.1,0.1-0.2,0-0.3,0.1c0-0.1-0.1-0.1-0.2-0.2
			C312.8,127.6,312.9,127.6,313.1,127.7c2.2,0,4.4,0,6.6,0l0,0C317.5,127,315.3,126.9,313.1,127.7z M91.3,114.8L91.3,114.8
			L91.3,114.8L91.3,114.8z M182.9,48.2c0.1,0,0.2,0,0.3,0c-0.1,0-0.1,0-0.2,0C183.1,48.6,183,48.4,182.9,48.2z M187.1,114.8
			c0-0.1-0.1-0.1-0.1-0.1c0.1,0.1,0.3-0.1,0.4,0C187.3,114.7,187.2,114.8,187.1,114.8z M78.1,110.8L78.1,110.8L78.1,110.8
			L78.1,110.8z M85.1,112.5c-0.1-0.1-0.2-0.2-0.3-0.3l0,0C84.8,112.4,85,112.4,85.1,112.5L85.1,112.5z M375.7,47.5
			c0-0.1-0.1-0.1-0.1-0.2h0.1C375.8,47.4,375.8,47.4,375.7,47.5z M363.2,44.6L363.2,44.6L363.2,44.6L363.2,44.6z M420.2,84L420.2,84
			L420.2,84C420.2,83.9,420.2,84,420.2,84L420.2,84z M272.2,42.8L272.2,42.8L272.2,42.8L272.2,42.8z M61.3,105.7L61.3,105.7
			L61.3,105.7c-0.1,0-0.1,0-0.2,0C61.2,105.6,61.3,105.7,61.3,105.7z M69.2,110.2C69.2,110.3,69.1,110.2,69.2,110.2
			c-0.2,0-0.2,0-0.3-0.1C69,110.1,69.1,110.2,69.2,110.2z M262.6,112.1c-0.1,0-0.1,0-0.2,0c0,0,0,0,0.1,0
			C262.5,112.1,262.5,112,262.6,112.1z M201.6,47.3C201.6,47.4,201.6,47.4,201.6,47.3L201.6,47.3L201.6,47.3z M383.5,32.8
			L383.5,32.8C383.5,32.7,383.6,32.7,383.5,32.8C383.6,32.8,383.6,32.8,383.5,32.8z M335.1,30.1C335.1,30.1,335.1,30,335.1,30.1
			C335.1,30,335.1,30,335.1,30.1C335.1,30.1,335.1,30,335.1,30.1z M256.5,38.3c0,0,0-0.1,0-0.2c0.1,0,0.3,0,0.4,0
			C256.7,38.3,256.6,38.3,256.5,38.3z M229.8,46.4c-0.1,0-0.2,0-0.4,0C229.6,46.4,229.7,46.4,229.8,46.4z M117.4,46.5
			C117.4,46.5,117.4,46.4,117.4,46.5L117.4,46.5C117.4,46.5,117.4,46.5,117.4,46.5z M185.2,133C185.2,133,185.1,133,185.2,133
			C185.1,132.9,185.2,132.9,185.2,133C185.2,132.9,185.1,132.9,185.2,133z M183.3,114.5c0.3-0.3,0.4-0.4,0.6-0.6c0.1,0,0.2,0,0.3,0
			C183.8,114,183.6,114.3,183.3,114.5z M216.1,117.4C216.2,117.5,216.2,117.5,216.1,117.4C216.2,117.5,216.1,117.5,216.1,117.4
			C216.1,117.5,216.1,117.5,216.1,117.4z M278,128.5L278,128.5L278,128.5L278,128.5z M284.8,122.1
			C284.8,122.1,284.8,122,284.8,122.1C284.9,122,284.9,122.1,284.8,122.1C284.9,122.1,284.8,122.1,284.8,122.1z M422.8,43.9
			C422.4,44.2,422.5,44.1,422.8,43.9c0.1-0.2,0.2-0.2,0.2-0.2s0.1,0,0.1-0.1c0.1,0.1,0.2,0.2,0.2,0.2
			C423.1,43.8,423,43.8,422.8,43.9C422.9,44,422.9,44,422.8,43.9C422.6,44.2,422.5,44.2,422.8,43.9z M396.1,32.7L396.1,32.7
			L396.1,32.7L396.1,32.7z M380.9,27.9c0-0.2-0.1-0.4-0.2-0.6c0.3,0,0.6,0,0.9,0C381.1,27.4,381.2,27.7,380.9,27.9z M235.9,46.1
			c0.1,0,0.1,0,0.2,0C236,46.1,236,46.1,235.9,46.1z M217.4,38c0.1-0.1,0.2-0.3,0.2-0.5C217.6,37.7,217.5,37.9,217.4,38z M206.4,40
			L206.4,40c-0.1,0-0.2,0-0.3,0c0.1,0,0.1-0.1,0.2-0.1C206.3,40,206.4,39.9,206.4,40z M187.1,45.5C187.1,45.5,187,45.5,187.1,45.5
			c-0.1,0-0.2,0-0.2,0C187,45.5,187,45.5,187.1,45.5z M54.4,103.8L54.4,103.8c-0.1,0-0.2,0-0.2,0C54.3,103.8,54.4,103.8,54.4,103.8z
			 M174.7,134c0.6,0.3,1.2,0.4,1.8-0.1h0.1l0,0h-0.1C175.9,133.9,175.3,133.9,174.7,134L174.7,134z M301.3,130.1
			c0-0.4,0-0.9,0.1-1.3c0,0,0,0,0.1,0C301.2,129.2,301,129.6,301.3,130.1L301.3,130.1z M317.8,126.6L317.8,126.6L317.8,126.6
			L317.8,126.6C317.8,126.5,317.8,126.6,317.8,126.6L317.8,126.6z M336.1,128.3c0-0.1,0-0.3,0-0.4l0,0
			C336.1,128.1,336.1,128.2,336.1,128.3L336.1,128.3z M342.9,126.6L342.9,126.6L342.9,126.6L342.9,126.6L342.9,126.6L342.9,126.6z
			 M343,123.8c-0.6-0.6-1.5-2.1,0.2-2.4c-0.3,0.6-0.2,1.5,0,2.7C343,124,343.1,123.9,343,123.8z M398,25.5L398,25.5L398,25.5
			L398,25.5z M388.4,27.1C388.4,27.1,388.5,27.1,388.4,27.1C388.5,27.1,388.4,27.1,388.4,27.1L388.4,27.1z M340.8,28.1l0.1,0.1
			C340.9,28.2,340.9,28.2,340.8,28.1L340.8,28.1z M320.8,28L320.8,28c0.4-0.1,0.6-0.4,0.8-0.8l0,0C321.3,27.5,321.1,27.7,320.8,28z
			 M218.1,35.5c0,0.1,0,0.1,0,0.2c-0.1,0-0.1,0-0.2,0v-0.1C217.9,35.5,218,35.5,218.1,35.5z M174.5,134.6c0,0.1,0,0.2,0,0.3h-0.1
			C174.4,134.8,174.5,134.7,174.5,134.6z M187,126.8C187,126.8,187.1,126.7,187,126.8c0-0.1,0.1-0.1,0.1-0.1l0,0
			C187.1,126.7,187.1,126.7,187,126.8z M204.5,117.5C204.5,117.5,204.5,117.6,204.5,117.5C204.5,117.6,204.5,117.5,204.5,117.5
			L204.5,117.5z M248,119.4L248,119.4L248,119.4C248.1,119.4,248,119.4,248,119.4L248,119.4z M320.9,131.3L320.9,131.3L320.9,131.3
			L320.9,131.3z M317.7,125.7L317.7,125.7L317.7,125.7L317.7,125.7z M349.7,113.9L349.7,113.9L349.7,113.9L349.7,113.9z M400.9,27.4
			C400.9,27.4,401,27.4,400.9,27.4L400.9,27.4C401,27.4,400.9,27.4,400.9,27.4z M385.7,27.2c-0.1,0.1-0.1,0.2-0.2,0.3
			c0,0.1,0,0.2,0,0.3l-0.1,0.1c0-0.1,0-0.3-0.1-0.4c0.1,0,0.2,0,0.2,0v-0.3c0.5-0.5,0.3-1.1,0-1.7h0.1c-0.1,0.6-0.1,1.1-0.2,1.7
			C385.5,27.2,385.6,27.2,385.7,27.2z M345.8,28.2C345.8,28.1,345.8,28.1,345.8,28.2C345.9,28.1,345.8,28.1,345.8,28.2L345.8,28.2z
			 M311.9,27.2L311.9,27.2C311.8,27.2,311.9,27.2,311.9,27.2L311.9,27.2z M259.6,30.9L259.6,30.9c-0.4,0.2-0.8,0.4-1.3,0.6l0,0
			C258.9,31.4,259.3,31.2,259.6,30.9C259.7,30.9,259.7,30.9,259.6,30.9C259.7,30.9,259.7,30.9,259.6,30.9z M123.3,40
			c0-0.1,0.1-0.1,0.2-0.1c0,0.1,0,0.1,0,0.1C123.3,40,123.3,40,123.3,40z M42.5,103.3c0.1,0,0.3,0,0.4,0c-0.7,0.2-1.4,0.4-2,0.7
			C41.4,103.6,42,103.3,42.5,103.3z M33.3,111.2L33.3,111.2L33.3,111.2L33.3,111.2z M141.8,121.6c0.1,0.2,0.1,0.3,0.2,0.5
			c-0.1,0-0.2,0-0.3,0C141.7,122,141.7,121.8,141.8,121.6z M216.1,132.8C216.1,132.8,216,132.8,216.1,132.8
			C216,132.8,216,132.8,216.1,132.8C216,132.8,216.1,132.8,216.1,132.8z M320.4,133.8C320.5,133.8,320.4,133.8,320.4,133.8h0.1
			C320.5,133.8,320.5,133.8,320.4,133.8z M320.7,133.1L320.7,133.1C320.7,133.2,320.6,133.2,320.7,133.1
			C320.6,133.2,320.7,133.2,320.7,133.1z M325.5,129.5C325.4,129.5,325.4,129.5,325.5,129.5C325.4,129.5,325.5,129.5,325.5,129.5
			L325.5,129.5z M339.9,128.3c0.1,0,0.1-0.1,0.2-0.1c0.2,0.3,0.5,0.6,1,0.4l0,0v0.1v-0.1C340.6,128.5,340.2,128.4,339.9,128.3z
			 M388.3,23.6L388.3,23.6C388.4,23.6,388.4,23.6,388.3,23.6C388.4,23.6,388.4,23.6,388.3,23.6z M311.9,26.4L311.9,26.4L311.9,26.4
			L311.9,26.4z M302.1,23.9c-0.4-0.2-0.7-0.2-1.1-0.5c0.6,0.3,0.9,0.3,1.3,0.4C302.3,23.8,302.2,23.9,302.1,23.9z M261.6,29
			c0-0.1,0-0.2,0-0.2l0,0C261.6,28.9,261.6,29,261.6,29L261.6,29z M52.3,44.5c0.1,0,0.2,0,0.3,0.1c-0.1,0.2-0.3,0.1-0.5,0.3
			C52.2,44.7,52.3,44.7,52.3,44.5z M37.5,119.3c-0.1,0.1,0,0.2,0,0.4c-0.3-0.1-0.4-0.2-0.7-0.3C37,119.3,37.3,119.3,37.5,119.3z
			 M340.9,129.4L340.9,129.4C341,129.4,341,129.4,340.9,129.4C341,129.4,341,129.4,340.9,129.4z M343.9,130.7c0,0.2,0,0.4,0.1,0.6
			c-0.1,0-0.1,0-0.2,0C343.8,131.1,343.8,130.9,343.9,130.7L343.9,130.7z M388.5,22.7c-0.1,0.1-0.1,0.2-0.2,0.3c0-0.1,0-0.2,0-0.3
			C388.4,22.7,388.5,22.7,388.5,22.7z M340,19.1L340,19.1h-0.1H340z M239.4,30.8C239.4,30.8,239.3,30.8,239.4,30.8
			c0-0.1,0-0.2,0-0.2l0,0C239.4,30.7,239.3,30.7,239.4,30.8z M226.8,31.7h-0.1C226.7,31.7,226.7,31.6,226.8,31.7
			C226.8,31.6,226.8,31.7,226.8,31.7z M223.8,32.3L223.8,32.3c0.1,0.2,0.1,0.3,0.1,0.5c-0.1,0-0.1,0-0.2,0
			C223.8,32.6,223.8,32.4,223.8,32.3L223.8,32.3z M195.8,33.6c0,0.1,0,0.1,0,0.2h-0.1C195.7,33.7,195.7,33.6,195.8,33.6z
			 M157.1,39.1L157.1,39.1L157.1,39.1L157.1,39.1z M68.1,41.9L68.1,41.9L68.1,41.9L68.1,41.9L68.1,41.9L68.1,41.9
			C68,41.8,68.1,41.8,68.1,41.9z M52.6,82.3c-0.1,0-0.2,0-0.2,0v-0.1C52.4,82.3,52.5,82.3,52.6,82.3z M46.6,83.8L46.6,83.8
			c-0.1,0-0.1,0-0.2,0C46.5,83.8,46.6,83.8,46.6,83.8z M29.4,117.5C29.4,117.5,29.5,117.5,29.4,117.5
			C29.5,117.5,29.4,117.5,29.4,117.5L29.4,117.5z M46.3,134.9L46.3,134.9C46.3,134.8,46.4,134.8,46.3,134.9c0.1-0.1,0.1-0.1,0.1-0.1
			C46.4,134.8,46.4,134.8,46.3,134.9z M78.7,131.2L78.7,131.2L78.7,131.2L78.7,131.2z M81.7,136.8C81.7,136.8,81.6,136.8,81.7,136.8
			C81.6,136.8,81.6,136.8,81.7,136.8C81.6,136.7,81.7,136.7,81.7,136.8L81.7,136.8L81.7,136.8z M161,135.1c0,0.2,0,0.4,0,0.6h-0.1
			C161,135.6,161,135.4,161,135.1z M239.4,136.4v0.1c0,0-0.1-0.1-0.2-0.1C239.3,136.4,239.4,136.4,239.4,136.4z M274.2,136.8
			c0,0.1,0,0.1,0,0.2c-0.1,0-0.1,0.1-0.1,0.1c0-0.1-0.1-0.2-0.1-0.3C274,136.8,274.1,136.8,274.2,136.8z M295.1,134.3
			c-0.2-0.1-0.5-0.1-0.6-0.4c0.2,0,0.4,0,0.5,0C294.9,134.2,295,134.2,295.1,134.3z M342.8,131.2c0.1,0,0.1,0,0.2,0
			c-0.1,0.3-0.1,0.5-0.1,0.8l0,0C343.1,131.7,342.9,131.5,342.8,131.2z M441.5,32.7L441.5,32.7c0.1,0,0.1,0.1,0.1,0.1l0,0
			C441.5,32.8,441.5,32.8,441.5,32.7z M415.5,24.3c0-0.1,0-0.2,0-0.3c0,0.1,0.1,0.2,0.1,0.3C415.5,24.3,415.5,24.3,415.5,24.3z
			 M386.4,20c-0.1,0-0.2,0-0.2,0c0.1-0.1,0.1-0.2,0.1-0.4C386.3,19.8,386.4,19.9,386.4,20z M309,21.8c-1.2,0-1.9,0.6-1.9,1.8l0,0
			C307.9,23.2,308.6,22.6,309,21.8c0.1-0.1,0.2-0.1,0.3-0.1c0,0.1,0.1,0.1,0.1,0.2C309.3,21.8,309.1,21.8,309,21.8z M203.9,32.6
			c0.1,0.2,0.3,0.3,0.6,0.1l0,0C204.3,32.6,204.1,32.6,203.9,32.6L203.9,32.6z M179.3,31.7L179.3,31.7L179.3,31.7L179.3,31.7h-0.1
			c0,0,0,0-0.1-0.1C179.1,31.7,179.2,31.7,179.3,31.7L179.3,31.7z M165.8,32.7h-0.1H165.8c0-0.1,0-0.2,0.1-0.3
			c0,0.1,0.1,0.1,0.2,0.2C166,32.7,165.9,32.7,165.8,32.7L165.8,32.7z M156.1,37.3L156.1,37.3C156.1,37.3,156.1,37.2,156.1,37.3
			c0-0.1,0-0.2,0-0.2C156.2,37.2,156.2,37.2,156.1,37.3L156.1,37.3z M124.8,25.5L124.8,25.5L124.8,25.5L124.8,25.5L124.8,25.5z
			 M132.8,29.7v0.1c0,0-0.1,0-0.1-0.1C132.8,29.7,132.8,29.7,132.8,29.7z M112.6,34.6L112.6,34.6C112.6,34.6,112.7,34.6,112.6,34.6
			L112.6,34.6z M58.4,41.8C58.4,41.8,58.5,41.8,58.4,41.8C58.5,41.8,58.5,41.8,58.4,41.8C58.5,41.8,58.4,41.9,58.4,41.8z M65.2,78.3
			L65.2,78.3C65.1,78.2,65.1,78.3,65.2,78.3C65.1,78.3,65.2,78.2,65.2,78.3z M46.6,84.5c0,0.1,0,0.1,0,0.2c-0.1,0-0.1,0-0.2,0
			C46.5,84.6,46.6,84.6,46.6,84.5z M26.3,87L26.3,87L26.3,87L26.3,87z M31.7,86.5L31.7,86.5C31.7,86.5,31.7,86.6,31.7,86.5
			C31.8,86.5,31.7,86.5,31.7,86.5z M29.3,86.3L29.3,86.3L29.3,86.3L29.3,86.3L29.3,86.3C29.3,86.4,29.3,86.4,29.3,86.3L29.3,86.3z
			 M24.3,86.5C24.3,86.6,24.3,86.6,24.3,86.5c-0.1,0-0.4,0-0.5-0.1C24,86.5,24.2,86.5,24.3,86.5z M144.5,129.4L144.5,129.4
			c-0.1,0-0.1,0-0.1,0C144.5,129.4,144.5,129.4,144.5,129.4z M171.8,138.5c0,0.1-0.1,0.1-0.1,0.2c-0.1,0-0.1,0.1-0.2,0.1
			c0-0.1,0-0.2,0-0.2C171.7,138.5,171.7,138.5,171.8,138.5z M212.2,136.8c0.1,0,0.1,0,0.2,0c0,0.1,0,0.3,0,0.4h-0.1
			C212.2,137.1,212.2,136.9,212.2,136.8z M219.8,136.8L219.8,136.8L219.8,136.8L219.8,136.8z M224.2,138.1c-0.1-0.1-0.3-0.2-0.4-0.3
			c0.1,0,0.3,0,0.4,0C224.2,137.9,224.2,138,224.2,138.1z M273.2,137.7L273.2,137.7c0.1,0.2,0.2,0.3,0.3,0.5l0,0
			C273.5,138,273.4,137.8,273.2,137.7z M326.3,135.9h0.1c0.1,0.2,0.3,0.5,0.4,0.7c0,0,0,0-0.1,0
			C326.7,136.3,326.6,136.1,326.3,135.9z M444.5,86.4c1.1,0.3,2.2,0.1,3.2,0l0,0C446.7,86.3,445.6,86.3,444.5,86.4L444.5,86.4z
			 M425.5,78.4c-0.2,0-0.4-0.1-0.6-0.1l0,0C425,78.4,425.3,78.3,425.5,78.4L425.5,78.4z M439.5,71.9L439.5,71.9L439.5,71.9
			C439.5,72,439.5,71.9,439.5,71.9z M449.2,61.8c-1.4-0.1-2.9-0.2-4.3-0.4l0,0C446.2,61.9,447.5,62.4,449.2,61.8
			c0.5-0.1,1-0.2,1.5-0.3l0,0c-0.6-0.1-1.1,0-1.4,0.3C449.3,61.8,449.2,61.8,449.2,61.8z M446.3,60.9c0-0.1-0.1-0.2-0.2-0.3l0,0
			C446.1,60.7,446.3,60.8,446.3,60.9L446.3,60.9z M433.2,24.9c-0.1-0.1-0.2,0-0.3-0.1c0.1,0,0.2,0,0.2,0
			C433.1,24.8,433.2,24.8,433.2,24.9z M388.6,15.3c-0.1,0-0.1-0.1-0.2-0.1c0.1,0,0.2,0,0.3,0C388.6,15.2,388.6,15.3,388.6,15.3z
			 M330.3,18.1c-0.1,0-0.1,0-0.2,0c0-0.1-0.2-0.2-0.2-0.3C330,17.9,330.2,18,330.3,18.1z M246,24.3v-0.1C246,24.2,246,24.2,246,24.3
			C246,24.2,246,24.2,246,24.3z M169.1,32.7c-0.1,0-0.3,0-0.4,0c0.2-0.2,0.5-0.4,0.7-0.6c0,0,0.1,0,0.1,0.1
			C169.2,32.2,169.1,32.4,169.1,32.7z M151.4,29.2c-0.1,0-0.2,0-0.4,0c0.1-0.1,0.1-0.1,0.2-0.2C151.3,29,151.3,29.1,151.4,29.2
			L151.4,29.2z M118.5,24.3c0,0.1-0.1,0.1-0.1,0.2h-0.1C118.4,24.5,118.5,24.4,118.5,24.3z M131,30.2L131,30.2L131,30.2L131,30.2z
			 M112.6,33.6c0.1-0.2,0.1-0.3,0.2-0.5c0.1,0.1,0.2,0.3,0.3,0.4C112.9,33.5,112.8,33.6,112.6,33.6z M37,40.8L37,40.8
			c0.1-0.2,0.2-0.4,0.1-0.6l0,0C37.1,40.4,37.1,40.6,37,40.8z M32.3,68.2c-0.1,0-0.1,0.1-0.2,0.1l0,0L32.3,68.2L32.3,68.2z
			 M38.8,83.7L38.8,83.7c-1.1-0.1-2.2-0.1-3.2,0l0,0C36.7,83.8,37.8,83.9,38.8,83.7z M26.3,91h0.1C26.4,91,26.4,91.1,26.3,91
			C26.3,91.1,26.3,91,26.3,91z M41.7,88.1c-0.2,0-0.4,0.1-0.6,0.1c0-0.1,0.1-0.1,0.1-0.2C41.4,88.1,41.6,88.1,41.7,88.1z
			 M94.4,136.9C94.3,136.9,94.3,136.9,94.4,136.9C94.3,136.9,94.3,136.9,94.4,136.9C94.3,136.9,94.3,136.9,94.4,136.9z M97.1,135.7
			c0-0.1,0-0.1,0-0.2C97.1,135.6,97.1,135.7,97.1,135.7C97.2,135.7,97.1,135.7,97.1,135.7z M165.9,138.4L165.9,138.4L165.9,138.4
			L165.9,138.4z M220.1,138.6L220.1,138.6C220.1,138.6,220,138.6,220.1,138.6C220,138.6,220.1,138.6,220.1,138.6z M368,128.7
			c0-0.1,0-0.1,0-0.2c0,0,0,0,0.1,0C368,128.6,368.1,128.6,368,128.7z M472.9,96.2L472.9,96.2c0,0-0.1,0-0.2,0.1
			C472.7,96.2,472.8,96.2,472.9,96.2z M439.5,72.4c0-0.1,0-0.1,0-0.2c0.3,0.2,0.6,0.1,0.9,0.2C440,72.4,439.7,72.4,439.5,72.4z
			 M451.3,71.6L451.3,71.6L451.3,71.6L451.3,71.6L451.3,71.6z M400.9,16.2L400.9,16.2C401,16.2,400.9,16.2,400.9,16.2L400.9,16.2z
			 M395.3,14.4c-0.1,0-0.2,0-0.2,0c0-0.1,0-0.2,0-0.3C395.1,14.2,395.2,14.3,395.3,14.4z M387.7,15.1c0.1,0,0.1,0,0.2,0
			c-0.1,0-0.2,0-0.2,0.2C387.5,15.9,387.1,15.1,387.7,15.1z M359.1,12.1c-0.6,0.3-0.7,0.9-0.7,1.4l0,0
			C358.6,13,358.9,12.6,359.1,12.1z M330.3,16.3L330.3,16.3L330.3,16.3L330.3,16.3z M72.9,35.5L72.9,35.5L72.9,35.5L72.9,35.5z
			 M22.4,55c-0.3,0.1-0.5,0.3-0.8,0.4c-0.5-0.4-0.8-0.4-1.2-0.5C21.1,54.9,21.8,54.9,22.4,55z M20,58.2c0.2,0,0.5-0.1,0.7-0.1
			c1.3,0,2.5,0,3.8,0c0.1,0.1,0.3,0.2,0.4,0.4c-0.4-0.1-0.9-0.2-1.3-0.3C22.4,58.2,21.2,58.2,20,58.2z M18,87.4L18,87.4
			c0.1,0.1,0.1,0.1,0.2,0.2l0,0C18.2,87.5,18.1,87.4,18,87.4z M10.7,111.6c-0.1,0-0.2-0.1-0.2-0.2C10.5,111.5,10.6,111.5,10.7,111.6
			z M11.8,130.4L11.8,130.4L11.8,130.4L11.8,130.4z M191,139.9c0,0.1,0.1,0.3,0.2,0.4c-0.1,0-0.1,0-0.2,0
			C191,140.2,191,140,191,139.9z M216.9,140.5c0.1-0.1,0-0.2,0-0.3c0.1,0,0.1,0,0.2,0l0.2,0.3C217.1,140.5,217,140.5,216.9,140.5z
			 M265.5,139.5h0.1H265.5C265.5,139.5,265.5,139.6,265.5,139.5z M297.3,139.5L297.3,139.5c0,0.2-0.1,0.4,0,0.6
			C297.2,139.9,297.2,139.7,297.3,139.5z M302.2,137.7c0.1,0,0.2,0,0.3,0c0,0.1,0,0.1,0,0.2C302.4,137.8,302.3,137.7,302.2,137.7z
			 M339.9,136.9v-0.1c0.1,0,0.1,0,0.2,0c0,0.1,0,0.2,0,0.2C340,137,339.9,137,339.9,136.9z M397.1,125.8L397.1,125.8L397.1,125.8
			L397.1,125.8L397.1,125.8L397.1,125.8z M443,115.8L443,115.8L443,115.8L443,115.8z M471.6,105.7L471.6,105.7L471.6,105.7
			L471.6,105.7z"/>
		<path class="st0" d="M22.7,81.2c-1.6-0.9-3.4-0.7-5.6-0.5C19,82,21,80.9,22.7,81.2z"/>
		<path class="st0" d="M468.6,108c1.9,0.5,3.3,0.3,5.9,0.2C472.1,107.6,470.9,107.2,468.6,108z"/>
		<path class="st0" d="M455.1,110.9c2.1,0,4.3,0,6.4,0c0-0.1,0-0.2,0-0.2c-2.1,0-4.3,0-6.4,0C455.1,110.8,455.1,110.9,455.1,110.9z"
			/>
		<path class="st0" d="M13.9,64.5c0.2,0,0.4-0.3,0.3-0.4c-0.8-0.7-2.2-0.3-3.3-0.4c-2.5,0-5,0-7.6,0c0,0.1,0,0.3,0,0.4
			c2.5,0,5.1,0,7.6,0C11.8,64.4,12.7,64.8,13.9,64.5z"/>
		<path class="st0" d="M462.6,62.4c1,0.6,2.5,0.4,3.9,0.5c0.8,0.4,1.8,0.5,3,0.4c0-0.7-1.2-0.6-2-0.8c-1.3-0.1-2.6-0.3-3.9-0.4
			c-1.5-0.4-3.2-0.5-4.9-0.4h0.1C459.4,62.6,461.1,62.3,462.6,62.4z"/>
	</g>
</g>
</svg>
