<?xml version="1.0" encoding="utf-8"?>
<!-- Generator: Adobe Illustrator 25.2.3, SVG Export Plug-In . SVG Version: 6.00 Build 0)  -->
<svg version="1.1" id="Ebene_1" xmlns="http://www.w3.org/2000/svg" xmlns:xlink="http://www.w3.org/1999/xlink" x="0px" y="0px"
	 viewBox="0 0 489 157" style="enable-background:new 0 0 489 157;" xml:space="preserve">
<style type="text/css">
	.st0{fill:#F45B51;}
</style>
<g id="Ebene_1_1_">
</g>
<g id="Layer_1">
	<g>
		<path class="st0" d="M367.2,12.1c0.3-0.2,0.1-0.9,0.1-1.3c-0.1-0.8-0.6-1.7-1.6-1.3c-1.6,0.6-3.4,0.2-5.2,0.7
			c1.4,1.7,3.8-0.1,4.9,1.5C365.7,12.2,366.5,12.6,367.2,12.1z"/>
		<path class="st0" d="M391.5,13.8c2.2-0.6,4.3-1.1,7.2-1.9c-3.6-1.5-5.5,0-7.6,0.9C391.3,13.2,391.4,13.5,391.5,13.8z"/>
		<path class="st0" d="M374,10.1c-2.6-0.9-4-0.4-4.9,0.9c-0.1,0.2,0.2,0.9,0.4,0.9C371.2,12,372,10.8,374,10.1z"/>
		<path class="st0" d="M423.5,16.1c0.6-0.2,1.2-0.5,1.9-0.7c3.9,0,7.7,0.1,11.6,0.1c4.8,1.2,5.1,1.1,5.8-1.6
			c-0.4-0.5-0.8-0.9-1.3-1.4c-0.2-0.5-0.5-0.9-0.7-1.4c2.9-0.8,2.2-1.7,0.1-2.7l0,0c-0.1-0.6-0.2-1.1-1.1-1.1c-0.6,0-1.2,0-1.9,0
			c-1.8,0-3.6,0-5.3,0c-1.5,0-3.1,0-4.6,0c-2.4,0.1-4.8-1-7.2,0c-2.8-0.1-5.7-0.2-8.5-0.4c-1-0.1-2.3-0.7-2.9,0.1
			c-0.6,0.9,0.2,1.8,1.3,2.4c1.9,1.3,4.2,0.2,6.2,0.8c-0.2,0.3-0.5,0.5-0.8,0.8c-0.4,0.3-1.2,0.5-1.2,0.8c0.1,1,1.3,0.9,2.1,1.2l0,0
			c0.4,0.3,1.9-0.1,0.9,1c-1.5,0-3.7-0.8-3.6,1.4c0,2.1,2.4,1.4,3.8,1.4C420,16.8,421.7,16.3,423.5,16.1c0.3,2.2,2.3,1.2,3.8,1.4
			c0.5-0.4,1.5,0,1.8-0.7C427.3,15.8,425.4,16.1,423.5,16.1z M419.1,11.7v0.1c0-0.1-0.2,0-0.2-0.1C419,11.7,419.1,11.7,419.1,11.7z
			 M425,14.7c0.1,0,0.1,0,0.2-0.1v0.1C425.1,14.7,425,14.7,425,14.7z M438.7,14.7C438.7,14.6,438.8,14.6,438.7,14.7
			c0.1-0.1,0.1-0.1,0.1-0.1C438.8,14.6,438.8,14.6,438.7,14.7z"/>
		<path class="st0" d="M224,135.9c1.4,0.6,2.5,0.8,4.6,0C226.6,135.3,225.4,134.8,224,135.9z"/>
		<path class="st0" d="M247.9,137c0.4,0.2,0.8,0,1.3,0c-0.4,0-0.8,0.5-1.1,0.8c0.4,0.3,0.8,0.7,1.1,0.9c0.9,0,1.4-0.3,1.2-0.9
			c-0.1-0.4-0.7-0.8-1.1-0.9c1,0.1,2,0.2,3,0C250.7,135.7,249.3,135.2,247.9,137z"/>
		<path class="st0" d="M468,84.7c1.5,0.1,3,0.1,4.4,0.2c0.7-0.1,1.6,0.2,1.9-0.6c0.1-0.2-0.7-0.8-1.1-0.9c-1.2-0.1-2.4,0-3.6,0
			c-0.6,0-1.1,0-1.6,0.1l0,0c-1.3-0.1-2.6-0.4-3.9,0.1C465.1,85,466.5,84.9,468,84.7z"/>
		<path class="st0" d="M218.8,137.9c-0.2,0.7,0.5,0.7,1.1,0.8c0.8,0,1.5-0.2,1.6-0.9c0-0.6-0.8-0.5-1.3-0.5
			C219.5,137.2,218.9,137.4,218.8,137.9z"/>
		<path class="st0" d="M391.7,21.3L391.7,21.3L391.7,21.3C391.7,21.4,391.7,21.4,391.7,21.3L391.7,21.3z"/>
		<path class="st0" d="M393.3,20.1c0-0.2-0.7-0.6-0.9-0.6c-1.1,0.3-0.8,1.1-0.7,1.8C392.7,21.2,393.5,21.1,393.3,20.1z"/>
		<path class="st0" d="M392.3,10.9c-0.3-0.2-0.6-0.6-0.9-0.6c-0.6-0.1-1.3,0.2-1.1,0.8c0.1,0.2,0.7,0.3,1.2,0.6
			C391.8,11.4,392.1,11.1,392.3,10.9z"/>
		<path class="st0" d="M402.7,13.6c-1.1-0.3-1.5-0.5-1.8-0.4s-0.5,0.5-0.7,0.7c0.3,0.1,0.7,0.4,1,0.4
			C401.6,14.3,401.9,14,402.7,13.6z"/>
		<path class="st0" d="M7.1,147.5c0.4,0.1,0.8,0.3,1.2,0.2c0.5-0.1,1.5,0.4,1.3-0.5c0-0.1-1.5-0.1-2.3-0.2
			C7.3,147.2,7.2,147.4,7.1,147.5z"/>
		<path class="st0" d="M118.5,140.2c-1.1-0.3-1.9-0.1-2.7,0.6C116.9,141.1,117.8,141.3,118.5,140.2z"/>
		<path class="st0" d="M136.4,138.8c-1.8,0.6-2.6,0.9-3.3,1.1C134,140.5,134.9,140.5,136.4,138.8z"/>
		<path class="st0" d="M404,10.6c-0.3-0.1-0.6-0.3-1-0.4c-0.4,0-1,0.1-0.6,0.6c0.2,0.3,0.6,0.5,1,0.5
			C403.9,11.4,404.2,11.1,404,10.6z"/>
		<path class="st0" d="M64.3,16.8c1.4,0,3.7,0.7,3.8-1.4c0-2.2-2.1-1.4-3.6-1.4c-1-1.1,0.5-0.8,0.9-1l0,0c0.8-0.3,2-0.2,2.1-1.2
			c0-0.2-0.8-0.5-1.2-0.8c-0.3-0.3-0.5-0.5-0.8-0.8c2-0.6,4.4,0.5,6.2-0.8C72.8,8.8,73.6,7.9,73,7s-1.9-0.2-2.9-0.1
			c-2.8,0.2-5.7,0.3-8.5,0.4c-2.4-0.9-4.8,0.1-7.2,0c-1.5,0-3.1,0-4.6,0c-1.8,0-3.6,0-5.4,0c-0.6,0-1.2,0-1.9,0
			c-0.9,0-1,0.5-1.1,1.1c-2.2,0.9-2.9,1.8,0.1,2.7c-0.2,0.5-0.5,0.9-0.7,1.4c-0.4,0.5-0.8,0.9-1.3,1.4c0.7,2.7,1,2.8,5.8,1.6
			c3.9,0,7.7-0.1,11.6-0.1c0.6,0.2,1.2,0.5,1.9,0.7l0,0C60.9,16.3,62.6,16.8,64.3,16.8z M63.7,11.7c0,0.1-0.2,0-0.2,0.1v-0.1
			C63.6,11.7,63.6,11.7,63.7,11.7z M43.8,14.6L43.8,14.6c0.1,0,0.1,0,0.1,0.1C43.9,14.6,43.8,14.6,43.8,14.6z M57.5,14.6
			c0.1,0,0.1,0.1,0.2,0.1c-0.1,0-0.1,0-0.2,0C57.5,14.7,57.5,14.7,57.5,14.6z"/>
		<path class="st0" d="M117.3,11.6c1.1-1.6,3.5,0.2,4.9-1.5c-1.8-0.4-3.6,0-5.2-0.7c-1-0.4-1.6,0.5-1.6,1.3c0,0.5-0.2,1.1,0.1,1.3
			C116.2,12.6,116.9,12.2,117.3,11.6z"/>
		<path class="st0" d="M91.5,12.9c-2.1-1-4-2.4-7.6-0.9c2.9,0.7,5,1.3,7.2,1.9C91.2,13.5,91.4,13.2,91.5,12.9z"/>
		<path class="st0" d="M113.5,10.9c-0.9-1.3-2.2-1.8-4.9-0.9c2,0.7,2.9,1.9,4.4,1.8C113.2,11.9,113.6,11.1,113.5,10.9z"/>
		<path class="st0" d="M59.2,16.1L59.2,16.1c-1.9,0-3.9-0.3-5.6,0.7c0.4,0.7,1.3,0.3,1.8,0.7C56.8,17.3,58.8,18.2,59.2,16.1z"/>
		<path class="st0" d="M254,135.9c2.1,0.8,3.2,0.6,4.6,0C257.2,134.8,256.1,135.3,254,135.9z"/>
		<path class="st0" d="M230.5,137c1,0.2,2,0.1,3,0c-0.4,0.1-1,0.5-1.1,0.9c-0.2,0.5,0.4,0.8,1.2,0.9c0.3-0.3,0.7-0.6,1.1-0.9
			c-0.4-0.3-0.8-0.8-1.1-0.8c0.4,0,0.8,0.2,1.2,0C233.3,135.2,232,135.7,230.5,137z"/>
		<path class="st0" d="M480.7,71.9c-0.2-0.4-0.5-0.4-0.7-0.6c0.4-0.2,0.6-0.5,0.1-1c-0.3-0.3-0.8,0-1.2,0.2
			c-0.4-0.1-0.7-0.2-1.1-0.3c-0.5-0.7-1.3-0.9-2.2-0.9c-1.2-0.6-2.4-1.1-3.7-1.7c-0.2-0.2-0.5-0.3-0.8-0.5c0.2-0.1,0.4-0.1,0.5-0.2
			c3,1.2,6,1.3,9,0c-0.5-0.8-1.7-0.7-2.4-1c-0.3-0.2-0.5-0.4-1-0.4c-0.7-0.2-1.1-0.9-2.1-0.9c-1.1,0.1-2.1,0-3.2,0
			c0.1,0,0.3-0.1,0.3-0.1c0-0.2-0.1-0.4-0.2-0.5c0.1-0.5,0.5-0.6,1-0.7c2.2,0.1,4.4,0.1,6.8-0.8c-2.4-1.2-4.5-0.6-6.5-0.6
			c-0.5,0-1,0-1.5,0c-0.8-0.4-1.7-0.6-1.7-1.6l0,0l0,0l0,0c1-0.2,2.1,0.2,3.1,0c1.2,0,2.5,0,3.6,0c1,0,1.9-0.2,1.7-1.3
			c-0.1-0.8-0.9-0.9-1.7-0.9c-1.2,0-2.3-0.3-3.4-0.5c-0.5-0.3-1-0.5-1.5-0.8c-0.1-0.1-0.2-0.2-0.3-0.3c1.8-0.4,3.9,1.1,5.4-0.7
			c0.1-0.3,0.3-0.6,0.4-0.9c0.1-0.1,0.2-0.2,0.4-0.3c-0.1-0.1-0.1-0.1-0.2-0.2c0-0.1,0.1-0.1,0.1-0.2c0.1-1-0.6-1.3-1.7-1.4l0,0l0,0
			l0,0c0-0.5,0-0.9,0.1-1.4l0,0c2.3-0.2,1-0.9,0.6-1.9c-0.3-0.9-0.8-1.4-1.4-1.5c-0.1-1.1-0.9-2.2-1.7-3.3c4.3-2.8,0-4-1.7-5.7
			c1.7-1.7,3.3,0.3,5.7-0.2c-3.2-2.4-4.3-5.8-8.5-7l0,0c-0.7-0.4-1.4-0.9-2.1-1.3c-1.9-1-3.8-2.4-6.1-0.4c-1.4,1.2-2.1-2-3.7-0.5
			c-2.7,0.4-4.3-2.6-7.2-1.5c-0.1,0-0.1,0-0.3,0c0.2-0.7,0-1.4-1.1-2.1c0-0.6,0.1-1.2,0.1-1.7c1.3-1.7,0.3-2.5-1.6-3.1
			c-1.7-1.2-3.7-0.4-5.6-0.6c0-0.4,0.1-0.8,0.1-1.3c1.3-0.1,2.8,0.2,4.5-0.8c-4.1-2-8-1.3-11.8-1.4l0,0l0,0c-0.7,0-1.4,0-2.1,0
			c-1.1-0.1-2.2-0.1-3.4-0.2c-0.6,0.2-1.2,0.5-1.8,0.7c0.6,0.1,1.1,0.2,1.7,0.3c-0.3,0.4-0.6,0.8-0.9,1.3c-0.6,0.1-1.2,0.2-1.8,0.3
			c-1.3,0.1-2.7-0.8-3.7,0.5l0,0v-0.1l0,0c-1.7,0.1-3.2,1.1-5,0.8c-2.1-0.3-2.7,0.9-3.1,2.3c-0.3,0-0.5-0.1-0.8-0.1
			c-1.1-1.1-0.6-3-2.7-3.6c-2.2,0.1-4.3-0.2-6.4-0.7c-1.6,0-3.1,0-5,0c1,1,2.2,0.5,3.1,0.9c0.9,0.5,1.9,0.9,2.8,1.4
			c-0.2,0.1-0.5,0.1-0.7,0.1c-0.4,0-0.8,0-1.3,0c-1.4,0.5-3.5-1.4-4.4,0.8c1.1,1.7-0.1,2-1.7,2.1c-1-2.2-3.1-0.1-4.5-0.8
			c-0.3-0.5-0.7-1-1-1.4c-3,0.3-2.9-1.3-2.6-3c0.4-0.1,1-0.1,1.2-0.3c0.5-0.6,0.1-0.8-0.6-0.8c-1.1,0-2-0.9-3.2-0.4
			c-1.2,0.7-1.8,2.5-4,1.6l0,0l0,0c-1.7-0.6-3.4-0.7-5.2-0.1c-0.2-0.1-0.4-0.1-0.6-0.1c-1-1.1-2.5-0.7-3.8-0.7
			c-0.1-0.2-0.1-0.4-0.2-0.6c-0.1-0.7,2.5-1.3,0.5-1.9c-2.4-0.7-5.3-2.8-7.7,0.3c-0.3,0.3-0.6,0.6-0.9,0.8c-2.2,0.1-0.9-3.1-3.6-2.5
			c0-1.1-0.1-2.1-1.9-2.2c-0.3-0.9,1.5-2.8-1.7-2.2l0,0c-2.2,0.2-4,0.7-3.7,3c-0.6,0.2-1.2,0.5-1.8,0.7c-1.7-0.9-2.7-3-5.5-2.2l0,0
			c-1.9,0-3.8-0.4-5.4,0.9l0,0c-0.9,0.2-1.7,0.3-2.6,0.5c-3-2.4-3-2.3-5.6-0.7c-0.2,0.1-0.6,0.1-0.9,0.1c-1.2,0-2.4,0-3.6,0
			c-1-0.2-2.1-0.3-2.9,0.4l0,0l0,0c-2.3,0-4.6,0-6.8,0.1l0,0l0,0c-0.1-0.6-2.1-0.2-1.1-1.4c0.7-0.1,1.7-0.1,1.4-0.9
			c-0.6-1.1-1.5-0.6-2.3,0c-0.6,0.3-1.2,0.6-1.8,0.9c-2.2,0.7-4.3,1.4-6.5,2.2c-0.6,0.1-1.1,0.1-1.7,0.2c-0.6,0-1.2,0-1.9,0
			c-2.2,0-4.4,0-6.5-0.1c-1.9-0.1-2.6,0.7-2.6,2.2c-0.5,0-1.1,0-1.6,0c-0.3-0.4-0.6-0.8-0.9-1.2c-1.2-0.2-2.7-1.2-3.4,0.5
			c-0.4,1.2-2.5,0.4-2.8,1.7c-1.5,0.1-1.7,1.1-2,2c-1.2,0.9-2.3-0.1-3.5,0c-2.8-2.6-6.7-1-10-1.8c-0.2-0.1-1.4,0.1-1,0.8
			c0.3,0.4,1.1,0.6,1.8,0.9c-0.9,0.5-1.9,0.4-3,0.2c-1.3-0.3-2.5-0.2-2.4,1.3c0.3,0.7,1.1,0.9,1.9,0.9l0,0c-0.5-0.5-1.1-0.9-1.9-0.9
			c-0.5,0-1,0-1.6,0c-4.5-2.1-6.3-1.9-6.6,0.8c-0.6,0.1-1.1,0.1-1.7,0.2c-3.4-0.6-6.8-0.3-10.3,0c-0.5-1-1.1-1.8-2.6-2.2
			c-1-0.3-1.7,0-2.3,0.3c-0.6-0.3-1.3-0.6-2.3-0.3c-1.5,0.4-2.2,1.3-2.6,2.2c-3.4-0.3-6.8-0.6-10.3,0c-0.6-0.1-1.1-0.1-1.7-0.2
			c-0.3-2.7-2.1-2.9-6.6-0.8c-0.5,0-1.1,0-1.6,0c-0.8,0-1.4,0.4-1.9,0.9l0,0c0.8,0,1.5-0.2,1.9-0.9c0.1-1.5-1.1-1.6-2.4-1.3
			c-1.1,0.3-2,0.4-3-0.2c0.6-0.3,1.5-0.5,1.8-0.9c0.4-0.7-0.8-0.9-1-0.8c-3.3,0.8-7.2-0.8-10,1.8c-1.2-0.1-2.3,1-3.5,0
			c-0.3-0.9-0.5-1.9-2-2c-0.3-1.3-2.4-0.5-2.8-1.7c-0.8-1.8-2.2-0.7-3.4-0.5c-0.3,0.4-0.6,0.8-0.9,1.2c-0.5,0-1.1,0-1.6,0
			c0-1.4-0.7-2.2-2.6-2.2c-2.2,0.1-4.4,0.1-6.5,0.1c-0.6,0-1.2,0-1.9,0c-0.6-0.1-1.1-0.1-1.7-0.2c-2.2-0.7-4.3-1.4-6.5-2.2
			c-0.6-0.3-1.2-0.6-1.8-0.9c-0.8-0.6-1.8-1.1-2.3,0c-0.4,0.8,0.7,0.8,1.4,0.9c1,1.2-1,0.8-1.1,1.4c-2.3,0-4.6,0-6.8-0.1l0,0l0,0
			c-0.8-0.7-1.9-0.6-2.9-0.4c-1.2,0-2.4,0-3.6,0c-0.3,0-0.7,0-0.9-0.1c-2.6-1.7-2.6-1.7-5.6,0.7c-0.9-0.2-1.7-0.3-2.6-0.5l0,0
			c-1.6-1.3-3.5-0.9-5.4-0.9l0,0c-2.7-0.8-3.8,1.3-5.5,2.2c-0.6-0.2-1.2-0.5-1.8-0.7c0.3-2.3-1.5-2.8-3.7-3l0,0l0,0
			c-3.2-0.6-1.4,1.3-1.7,2.2c-1.8,0.1-1.9,1-1.9,2.2c-2.7-0.6-1.4,2.6-3.6,2.5c-0.3-0.3-0.6-0.6-0.9-0.8c-2.4-3.1-5.2-1-7.7-0.3
			c-1.9,0.6,0.6,1.2,0.5,1.9c-0.1,0.2-0.1,0.4-0.2,0.6c-1.3,0.1-2.8-0.3-3.8,0.7l0,0c-0.2-0.1-0.4-0.1-0.6,0.1
			c-1.7-0.6-3.5-0.5-5.2,0.1l0,0l0,0c-2.2,0.9-2.8-0.8-4-1.6c-1.2-0.6-2.1,0.4-3.2,0.4c-0.7,0-1.1,0.2-0.6,0.8
			c0.2,0.2,0.8,0.2,1.2,0.3c0.3,1.7,0.4,3.3-2.6,3c-0.3,0.5-0.7,1-1,1.4c-1.4,0.7-3.5-1.4-4.5,0.8c-1.6-0.1-2.9-0.5-1.7-2.1
			c-0.9-2.3-3-0.3-4.4-0.8c-0.4,0-0.8,0-1.3,0c-0.2,0-0.5,0-0.7-0.1c0.9-0.5,1.9-0.9,2.8-1.4c0.9-0.3,2.1,0.2,3.1-0.9
			c-1.8,0-3.4,0-5,0c-2.1,0.5-4.2,0.8-6.4,0.7c-2.1,0.6-1.6,2.5-2.7,3.6C69.5,23,69.3,23,69,23l0,0c-0.4-1.4-1-2.6-3.1-2.3
			c-1.9,0.3-3.3-0.7-5-0.8l0,0l0,0l0,0l0,0V20l0,0c-1-1.4-2.5-0.5-3.7-0.5c-0.6-0.1-1.2-0.2-1.8-0.3c-0.3-0.4-0.6-0.8-0.9-1.3
			c0.6-0.1,1.1-0.2,1.7-0.3c-0.6-0.2-1.2-0.5-1.8-0.7C53.3,17,52.2,17,51,17.1c-0.7,0-1.4,0-2.1,0c-3.8,0.1-7.7-0.6-11.8,1.4
			c1.7,1.1,3.2,0.7,4.5,0.8l0,0c0,0.4,0.1,0.8,0.1,1.3c-1.8,0.3-3.9-0.6-5.6,0.6c-1.9,0.6-2.9,1.4-1.6,3.1c0,0.6,0.1,1.2,0.1,1.7
			l0,0c-1.2,0.7-1.3,1.4-1.1,2.1c-0.1,0-0.1,0-0.3,0C30.3,27,28.7,30,26,29.6c-2.2-1.6-3,1.5-4.4,0.4c-2.3-2-4.2-0.6-6.1,0.4
			c-0.7,0.4-1.4,0.9-2.1,1.3l0,0c-4.2,1.2-5.3,4.6-8.5,7c2.4,0.5,4-1.5,5.7,0.2c-1.7,1.7-6,2.9-1.7,5.7c-0.8,1.1-1.6,2.2-1.7,3.3
			c-0.6,0.1-1.1,0.6-1.4,1.5s-1.7,1.7,0.6,1.9c0,0.5,0,0.9,0.1,1.4c-1,0.1-1.7,0.5-1.7,1.4c0,0.1,0.1,0.1,0.1,0.2
			c-0.1,0.1-0.1,0.1-0.2,0.2c0.1,0.1,0.2,0.2,0.4,0.3c0.1,0.3,0.3,0.6,0.4,0.9c1.5,1.8,3.6,0.3,5.4,0.7c-0.1,0.1-0.2,0.2-0.3,0.3
			c-0.4,0.3-1,0.6-1.5,0.8C8,57.7,6.8,58,5.7,58c-0.8,0-1.6,0-1.7,0.9c-0.1,1,0.8,1.2,1.7,1.3c1.2,0,2.4,0,3.6,0
			c1,0.2,2.1-0.2,3.1,0l0,0l0,0l0,0c0,1-0.9,1.2-1.7,1.6c-0.5,0-1,0-1.5,0c-2,0-4-0.6-6.5,0.6c2.4,0.9,4.6,0.9,6.8,0.8
			c0.5,0.1,0.9,0.2,1,0.7c-0.1,0.2-0.2,0.4-0.2,0.5c0,0,0.1,0.1,0.3,0.1c-1.1,0-2.1,0-3.2,0c-0.9,0-1.3,0.7-2.1,0.9
			c-0.5,0-0.7,0.2-1,0.4c-0.8,0.4-1.9,0.3-2.4,1c3,1.3,6,1.2,9,0c0.2,0.1,0.4,0.1,0.5,0.2c-0.2,0.2-0.6,0.2-0.8,0.5
			c-1.2,0.6-2.4,1.1-3.7,1.7c-0.9,0-1.7,0.2-2.2,0.9c-0.4,0.1-0.7,0.2-1.1,0.3c-0.4-0.2-0.9-0.5-1.2-0.2c-0.5,0.5-0.2,0.8,0.1,1
			c-0.2,0.2-0.6,0.3-0.7,0.6c0.5,0,0.7-0.2,1.1-0.3c0.3,0.1,0.6,0.2,0.6,0.5c0,0.3-1.3,0-0.5,0.9c1.5,0.7,3,0.8,4.5,0.7
			c-1,0.4-1.9,0.8-3.1,1.2c2.4,0.6,3.9-0.5,5.6-1.1h0.1c0.8,0,1.7-0.1,2.5,0l0,0c-1.8,1.5-4.5-0.1-6.3,1.3c-0.5,0.1-1,0.2-1.6,0.2
			c1,0.7,2.1,0.2,3.1,0c-1,0.3-2,0.5-3.1,0c-0.6,2.5-0.6,2.5,3.9,3.1c-0.1,1.7-2.5,1-3.2,2c-0.9,1.8,0.7,1.5,1.9,1.6
			c3.5,0.2,7.1,0.4,10.6,0.6c1.1,0.1,2.4-0.3,3.1,0.8c0,1,0,2,0,3c-0.5,0.6-0.4,1-0.2,1.3c-0.7,0.7-1.1,1.5-1.3,2.4
			c-1.2,1.3-0.1,1.5,1.1,1.6c0.5,1.3-2.7,4.3,1.9,3.5c0.1,0.1,0,0.1,0.1,0.2s0.2,0.2,0.3,0.2c-0.1,1.9-3.9,2.6-2.3,5
			c-0.6,0.4-1.8,0.9-0.4,1.4c2.2,0.7,2.2,1.3,0.7,2.6c-0.3,0.3,0.2,1.3,0.4,2c-1.1,1.1-0.6,2.5-0.6,3.7c-1.4,1.3-2.8,2.6-4.2,3.9
			c-0.2,0.2-0.3,0.4-0.3,0.6c-1.8-0.1-3,1-4.4,1.6c-0.6,0.3-2,0.3-1.5,1.4c0.4,0.8,1.3,0.9,2.3,0.9c-1.5,1.2-4.3,1.9-2.6,4.4
			c-0.2,0.6-1.5,1.7,0.6,1.5c1-0.1,1.9-0.5,2.8-0.8c1.2,0.8-0.2,1.7,0.2,2.5c-1.3,0.9-2.7,1.8-4,2.8c2.6-0.3,3.5,2.7,5.7,1.6
			c0.9,1.6-3.1,2.7-0.5,4.5l0,0c-0.4,0.3-0.9,0.5-1.3,0.8c-1.8-0.1-3.2,0.5-5.5,1.5c2.8,0,4.6,0,6.3,0h0.1c-0.2,1.1,0.4,1.5,1.7,1.5
			c0.1,0.2,0.1,0.5,0.2,0.7c-1.2,0.8-2.4,1.5-3.7,2.3c-1.2-0.8-2.4-0.9-3.7-0.1c-1.2,0.1-2.6-0.3-4.3,0.7c1.8,0,3.1,0,4.3,0
			c0.9,0.3,0.1,1.8,1.8,1.5c1.2-0.2,1.7-0.7,1.8-1.6l0,0l0,0c1,0.7,2.3,0.8,3.6,0.8c0.3,0.3-0.5,1.5,1,0.7c0.3,0,0.5,0.1,0.8,0.1
			c0,0.4,0,0.8,0,1.3c-0.5,0.1-1.1,0.2-1.6,0.3c-1.3,0.3-2.6,0.6-4.6,1c2.2,0.3,3.5,0.7,4.5-0.5c1.8,0,3.6,0,5.3,0
			c-0.4-0.6-1.1-0.7-1.8-0.7h0.1c0.4,0.5,1.3,0.3,1.8,0.8c2.2,0.1,3.3,2.4,6.2,1.7c3.6-0.9,7.4-1.1,10.6-2.9c1.6,0,3.1-0.1,4.5-0.8
			c2.2,0,4.3,0.3,6.3-0.8c0.9-0.1,1.7-0.2,2.6-0.3c2.8-0.1,5.6,0.3,8.2-1.1c1.8-0.3,3.6,0.4,5.3-0.3c3-0.3,6.1-0.5,9.1-0.8
			c0.7,0,1.4-0.2,2.1-0.3c0.6,0,1.3-0.1,1.9-0.2c1.2,0.1,2.4,0.3,3.4-0.5c0.5-0.1,1-0.2,1.5-0.2c4.2,0.8,8.3,1.6,12.2-0.7
			c1.3,0,2.7,0.1,4,0.1c4.5,0.1,8.9-0.9,13.3-1.5c0.8-0.1,1.6-0.1,2.4-0.2c1.6-0.3,1.9,1.6,3.5,1.5c1.1-1,3.4,3.4,3.8-0.6
			c7.2-2,14.4-1.8,21.6,0c0.4,0.7-1.2,1.9,0.4,2c1.3,0.1,1.1-1.1,0.8-2c0.8-0.1,1.6-0.1,2.4-0.2c1.5,0.1,3.1,0.1,4.6,0.2
			c1.2-0.3,2.8,0.4,3.7-0.9c2.1,0.2,3.9-0.5,5.6-1.4c1.8,2,2.3,0.8,2.7-0.8c0.5,0.2,1.1,0.3,1.6,0.5c0.3,0.1,0.6,0.1,0.9,0.2
			c0.2,1,0.4,1.8,1.8,0.8c2.2,0.2,1-2.2,2.7-2.4c0.6,0,1.2-0.1,1.8-0.1s1.2,0,1.8,0c1.3,0.5-0.8,1.6,0.7,2.1c1.1-0.9,1.8-2.5,4-2.1
			h0.4l0.4-0.1c0.6,0.3,1.3,0.5,1.9,0.8c0.4,1.8-2.7,0.2-2.5,1.8c1,0.9,2.2,0.4,3.3,0.4c2.4,0.3,4.1-0.5,5.5-2.1
			c1.5-0.8,2.9-1,3.8,0.7c0.2,2.9,3,0.8,4.3,1.6c-0.2,0.6-1,1.8,0.7,1.1c1.3-0.5,2.4-1.4,3.9-1.3c1.5,0,2.6-0.5,3.6-1.3
			c6.2-0.2,12.4-0.2,18.4-2.2c0.4-0.1,0.9-0.1,1.4-0.1c0.2,0,0.3,0,0.5,0c2.6,0.4,5.3,0.9,7.9,1.1c0.2,0,0.9,0.2,1.5,0.1
			c0.4,0.1,0.8,0.1,1.1,0.1c0.3-0.3,0.5-0.6,0.6-1l0,0c-0.3,0.3-0.6,0.6-0.6,1c0.9,0.1,1.8,0.2,2.7,0.3c0.1,0.7-0.4,2.2,1.3,0.7
			c0.4-0.4,1-0.5,1.6-0.6c0.6,0.1,1.1,0.2,1.6,0.6c1.8,1.6,1.2,0,1.3-0.7c0.9-0.1,1.8-0.2,2.7-0.3c0.4,0,0.8-0.1,1.1-0.1
			c0.6,0.1,1.3-0.1,1.5-0.1c2.7-0.2,5.3-0.7,7.9-1.1c0.2,0,0.3,0,0.5,0c0.5,0.1,1,0,1.4,0.1c6,2,12.2,2,18.4,2.2
			c1,0.9,2.2,1.3,3.6,1.3c1.6-0.1,2.6,0.7,3.9,1.3c1.6,0.7,0.9-0.5,0.7-1.1c1.3-0.8,4.2,1.3,4.3-1.6c0.9-1.7,2.2-1.5,3.8-0.7
			c1.3,1.6,3.1,2.4,5.5,2.1c1.1,0,2.4,0.5,3.3-0.4c0.1-1.6-2.9,0-2.5-1.8c0.6-0.3,1.3-0.5,1.9-0.8l0.4,0.1h0.4
			c2.1-0.4,2.9,1.2,4,2.1c1.5-0.6-0.7-1.6,0.7-2.1c0.6,0,1.2,0,1.8,0c0.6,0,1.2,0.1,1.8,0.1c1.8,0.1,0.5,2.6,2.7,2.4
			c1.4,0.9,1.7,0.1,1.8-0.8c0.3-0.1,0.6-0.1,0.9-0.2c0.5-0.2,1.1-0.3,1.6-0.5c0.4,1.5,0.9,2.8,2.7,0.8c1.7,0.9,3.5,1.6,5.7,1.4
			c0.9,1.2,2.4,0.6,3.7,0.9c1.5-0.1,3.1-0.1,4.6-0.2c0.8,0.1,1.6,0.1,2.4,0.2c-0.3,0.8-0.5,2.1,0.8,2c1.6-0.1,0-1.4,0.4-2
			c7.2-1.9,14.4-2,21.6,0c0.4,4,2.7-0.4,3.8,0.6c1.6,0.2,1.8-1.8,3.5-1.5c0.8,0.1,1.6,0.1,2.4,0.2c4.4,0.6,8.8,1.7,13.3,1.5
			c1.3,0,2.7-0.1,4-0.1c3.9,2.3,8,1.6,12.2,0.7c0.5,0.1,1,0.2,1.5,0.2c1,0.8,2.2,0.6,3.4,0.5c0.6,0.1,1.3,0.3,1.9,0.2
			c0.7,0.1,1.4,0.3,2.1,0.3c3,0.3,6.1,0.5,9.1,0.8c1.7,0.7,3.6,0,5.3,0.3c2.5,1.4,5.4,1,8.2,1.1c0.9,0.1,1.7,0.2,2.6,0.3
			c1.9,1.1,4.1,0.8,6.3,0.8c1.4,0.7,2.9,0.8,4.5,0.8c3.2,1.9,7,2,10.6,2.9c2.8,0.7,4-1.5,6.2-1.7l0,0c1.8,0,3.6,0,5.3,0
			c0.9,1.2,2.3,0.8,4.5,0.5c-2.1-0.5-3.3-0.8-4.6-1c-0.5-0.1-1.1-0.2-1.6-0.3c0-0.4,0-0.8,0-1.3c0.3-0.1,0.5-0.1,0.8-0.1
			c1.4,0.8,0.7-0.4,1-0.7c1.3,0,2.6-0.1,3.6-0.8c0.1,0.9,0.6,1.4,1.8,1.6c1.7,0.2,0.9-1.3,1.8-1.5c1.3,0,2.5,0,4.3,0
			c-1.7-1-3.1-0.6-4.3-0.7c-1.3-0.8-2.5-0.7-3.7,0.1c-1.2-0.8-2.4-1.5-3.7-2.3c0.1-0.2,0.1-0.5,0.2-0.7c1.2,0,1.8-0.5,1.7-1.5h0.1
			c1.8,0,3.6,0,6.3,0c-2.3-1-3.7-1.6-5.5-1.5c-0.4-0.3-0.9-0.5-1.3-0.8l0,0c2.6-1.7-1.4-2.9-0.5-4.5c2.2,1.1,3.1-1.9,5.7-1.6
			c-1.3-0.9-2.7-1.8-4-2.8c0.5-0.8-0.9-1.7,0.2-2.5c0.9,0.3,1.9,0.7,2.8,0.8c2.2,0.2,0.8-0.8,0.6-1.5c1.7-2.5-1.1-3.2-2.6-4.4
			c0.9,0,1.9-0.1,2.3-0.9c0.5-1-0.9-1.1-1.5-1.4c-1.4-0.7-2.6-1.7-4.4-1.6c0-0.2-0.2-0.4-0.3-0.6c-1.4-1.3-2.8-2.6-4.2-3.9
			c-0.1-1.3,0.4-2.6-0.6-3.7l0,0c0.2-0.7,0.7-1.7,0.4-2c-1.5-1.3-1.6-1.9,0.7-2.6c1.4-0.4,0.2-1-0.4-1.4c1.5-2.4-2.3-3-2.3-5
			c0.1-0.1,0.2-0.2,0.3-0.2c0.1-0.1,0-0.1,0.1-0.2c4.6,0.8,1.4-2.3,1.9-3.5c1.3-0.1,2.4-0.3,1.1-1.6c-0.2-0.9-0.6-1.7-1.3-2.4
			c0.2-0.3,0.2-0.7-0.2-1.3c0-1,0-2,0-3c0.7-1.1,2-0.8,3.1-0.8c3.5-0.2,7.1-0.4,10.6-0.6c1.1-0.1,2.8,0.2,1.9-1.6
			c-0.8-1-3.1-0.2-3.2-2c4.6-0.6,4.6-0.6,3.9-3.1c-1.1,0.4-2.1,0.2-3.1,0c1,0.3,2,0.7,3.1,0c-0.5-0.1-1-0.2-1.6-0.2
			c-1.8-1.3-4.5,0.2-6.3-1.3c0.8-0.2,1.7-0.1,2.5,0h0.1c1.7,0.6,3.2,1.7,5.6,1.1c-1.2-0.5-2.1-0.8-3.1-1.2c1.6,0,3.1,0,4.5-0.7
			c0.8-0.9-0.4-0.6-0.8-0.8c0-0.2,0.4-0.3,0.7-0.5C479.9,71.7,480.2,71.9,480.7,71.9z M391.1,133.6L391.1,133.6L391.1,133.6
			L391.1,133.6z M91.5,133.5L91.5,133.5L91.5,133.5L91.5,133.5z M144.3,16.8L144.3,16.8c-0.3-0.1-0.6-0.2-0.9-0.4l0,0
			C143.6,16.6,143.8,16.9,144.3,16.8z M24.3,59c0.1,0.1,0.2,0.1,0.3,0.1c-0.1,0.1-0.1,0.3-0.2,0.4C24.3,59.3,24.3,59.2,24.3,59z
			 M132.9,16.8c0.7,0.3,1.5,0,2.2,0l0,0C134.3,16.8,133.6,16.8,132.9,16.8L132.9,16.8z M172.3,18.8c0.1,0.1,0.2,0.2,0.3,0.3
			c-0.1,0-0.2,0-0.4,0C172.3,19,172.3,18.9,172.3,18.8z M54.6,26.4L54.6,26.4c-0.1-0.1,0-0.2,0-0.2l0,0
			C54.7,26.3,54.6,26.3,54.6,26.4z M417.8,32.5c0.1,0,0.1,0,0.2,0.1C417.9,32.5,417.9,32.5,417.8,32.5L417.8,32.5z M428,26.2
			L428,26.2c0,0.1,0.1,0.1,0.1,0.2c0,0,0,0-0.1,0C428,26.3,428,26.3,428,26.2z M338,26c0.3,0.1,0.6,0,0.9,0
			c-0.3,0.1-0.5,0.1-0.8,0.2C338.1,26.1,338.1,26.1,338,26z M419.9,32.5L419.9,32.5L419.9,32.5L419.9,32.5z M144.5,26.2
			c-0.3-0.1-0.5-0.2-0.8-0.2c0.3-0.1,0.6,0.1,0.9,0C144.6,26.1,144.6,26.1,144.5,26.2z M62.8,32.5L62.8,32.5L62.8,32.5L62.8,32.5z
			 M431.6,34L431.6,34L431.6,34L431.6,34L431.6,34z M418.9,29.8c0-0.1,0-0.1,0-0.2l0,0h0.1C418.9,29.6,418.9,29.7,418.9,29.8z
			 M331,25.1C330.9,25.1,330.9,25.1,331,25.1L331,25.1C330.9,25.1,330.9,25.1,331,25.1L331,25.1z M151.8,25.1
			C151.8,25.1,151.7,25.1,151.8,25.1L151.8,25.1C151.7,25.1,151.7,25.1,151.8,25.1L151.8,25.1z M64.8,32.5c-0.1,0-0.1,0-0.2,0
			C64.7,32.5,64.8,32.5,64.8,32.5C64.9,32.5,64.8,32.5,64.8,32.5z M63.8,29.8c0-0.1,0-0.1-0.1-0.2h0.1
			C63.8,29.7,63.8,29.7,63.8,29.8z M51,34L51,34L51,34L51,34L51,34z M392.6,34.8h-0.1c0,0-0.1,0-0.2-0.1
			C392.5,34.8,392.5,34.8,392.6,34.8z M375.1,30.7c-0.1,0-0.2,0-0.3,0l0,0C375,30.7,375.1,30.6,375.1,30.7z M189.4,22.4L189.4,22.4
			C189.5,22.4,189.5,22.4,189.4,22.4C189.5,22.4,189.5,22.4,189.4,22.4z M162.6,19.8L162.6,19.8C162.6,19.9,162.5,19.8,162.6,19.8
			L162.6,19.8z M107.8,30.6c-0.1,0-0.2,0-0.3,0C107.6,30.6,107.7,30.7,107.8,30.6L107.8,30.6z M90,34.8c0.1,0,0.2,0,0.3,0
			c0,0-0.1,0-0.2,0.1C90.1,34.8,90,34.8,90,34.8z M458.3,59.5c-0.1-0.1-0.1-0.3-0.2-0.4c0.1-0.1,0.2-0.1,0.2-0.1
			C458.4,59.2,458.3,59.3,458.3,59.5z M453.7,37L453.7,37L453.7,37L453.7,37z M408,25C408,25,408,25.1,408,25L408,25
			C408,25.1,408,25,408,25z M349.8,16.8c-0.7,0-1.5,0-2.2,0l0,0C348.3,16.9,349.1,17.1,349.8,16.8L349.8,16.8z M345.3,21.8
			c0,0,0.1,0,0.1,0.1L345.3,21.8C345.2,21.8,345.3,21.8,345.3,21.8z M320.1,19.8L320.1,19.8C320.1,19.8,320.1,19.9,320.1,19.8
			L320.1,19.8z M293.2,22.4L293.2,22.4L293.2,22.4L293.2,22.4z M189.4,20.1c0-0.2,0.2-0.1,0.2-0.3h0.1
			C189.7,19.9,189.6,20,189.4,20.1z M137.2,21.9c0,0,0.1,0,0.1-0.1l0,0C137.3,21.8,137.3,21.9,137.2,21.9z M74.6,25.1
			C74.6,25.1,74.6,25,74.6,25.1C74.7,25,74.6,25.1,74.6,25.1L74.6,25.1z M28.9,37L28.9,37L28.9,37L28.9,37z M456.4,47.5
			c0-0.2,0.1-0.2,0.1-0.4c0.7,0,1.2-0.3,1.7-0.5C457.8,47,456.9,46.9,456.4,47.5z M401.7,25.8c-0.1,0-0.1,0-0.1,0s0,0,0-0.1
			C401.6,25.8,401.7,25.8,401.7,25.8z M382.7,22.1c0,0.1,0,0.1,0.1,0.2C382.7,22.2,382.7,22.2,382.7,22.1
			C382.6,22.1,382.7,22.1,382.7,22.1z M354.1,19.8c0.3,0.1,0.4,0.1,0.7,0.2c-0.1,0-0.2,0.1-0.3,0.1C354.4,20,354.2,19.9,354.1,19.8z
			 M325.5,18.4L325.5,18.4c0.1,0,0.1,0,0.1,0l0,0H325.5z M310.5,19.1c-0.1,0-0.2,0-0.4,0c0-0.1,0.2-0.2,0.3-0.3
			C310.4,18.9,310.4,19,310.5,19.1z M310,18.9c0.1,0,0.1,0.1,0.1,0.2H310C310,19,310,19,310,18.9z M293,19.8c0,0.2,0.2,0.1,0.2,0.3
			c-0.1-0.1-0.2-0.2-0.4-0.3C292.9,19.8,292.9,19.8,293,19.8z M291,19.9C291,19.9,290.9,19.9,291,19.9C291,19.8,291,19.8,291,19.9
			L291,19.9z M191.7,19.9C191.7,19.9,191.6,19.9,191.7,19.9C191.7,19.8,191.7,19.8,191.7,19.9L191.7,19.9z M172.6,19.1
			c0.1,0,0.1-0.1,0.1-0.2c0,0.1,0,0.1,0,0.2C172.6,19.1,172.6,19.1,172.6,19.1z M157.2,18.4c-0.1,0-0.1,0-0.2,0l0,0
			C157.1,18.4,157.1,18.4,157.2,18.4L157.2,18.4z M127.9,20c0.2-0.1,0.4-0.1,0.7-0.2c-0.1,0.2-0.2,0.2-0.3,0.3
			C128.1,20.1,128,20,127.9,20z M99.9,22.3c0-0.1,0.1-0.1,0.1-0.2c0,0,0,0,0.1,0C100,22.2,99.9,22.2,99.9,22.3z M81,25.8L81,25.8
			c0.1,0,0.1,0,0.1,0.1C81,25.8,81,25.8,81,25.8z M26.1,47.1c0,0.1,0.2,0.2,0.1,0.4c-0.4-0.6-1.3-0.5-1.9-0.9
			C24.9,46.9,25.4,47.1,26.1,47.1z M466.4,69.3c-0.2-0.2-0.4-0.4-0.3-0.8c2-0.5,3.6,0.7,5.5,0.8C469.8,69.3,468.1,69.3,466.4,69.3z
			 M342.9,12.4c-0.5,0-1.1,0-1.6,0l0,0C341.8,12.5,342.3,12.4,342.9,12.4L342.9,12.4z M331,15.2L331,15.2L331,15.2
			C331,15.3,331,15.3,331,15.2C331,15.3,331,15.2,331,15.2z M273.9,19.8L273.9,19.8h-0.1H273.9z M274.4,23.3
			c0.1,0.1,0.2,0.2,0.3,0.2c-0.1,0-0.2,0-0.3,0C274.5,23.5,274.4,23.4,274.4,23.3z M207.9,23.6c0.1-0.1,0.2-0.2,0.3-0.2
			c0,0.1,0,0.2,0,0.2C208.1,23.6,208,23.6,207.9,23.6z M208.7,19.8h0.1C208.8,19.9,208.8,19.8,208.7,19.8L208.7,19.8z M151.6,15.3
			L151.6,15.3C151.6,15.2,151.6,15.2,151.6,15.3L151.6,15.3L151.6,15.3z M141.4,12.3c-0.5,0-1.1,0-1.6,0l0,0
			C140.3,12.4,140.8,12.5,141.4,12.3L141.4,12.3z M63.6,21.6c0-0.1,0-0.1-0.1-0.2c0.1,0,0.1,0,0.2,0C63.6,21.5,63.6,21.5,63.6,21.6z
			 M16.3,69.3c-1.7,0-3.4,0-5.2,0c1.9-0.1,3.5-1.3,5.5-0.8C16.7,68.9,16.5,69.1,16.3,69.3z M163.2,131.4
			C163.2,131.4,163.2,131.3,163.2,131.4C163.2,131.3,163.2,131.3,163.2,131.4C163.2,131.3,163.2,131.4,163.2,131.4z M319.5,131.3
			C319.5,131.3,319.4,131.4,319.5,131.3C319.4,131.4,319.4,131.3,319.5,131.3C319.4,131.3,319.5,131.3,319.5,131.3z M461.2,142.7
			L461.2,142.7c-0.3,0-0.6,0.1-0.9,0.2l0,0C460.6,142.9,460.9,142.8,461.2,142.7z M476.3,70.7L476.3,70.7L476.3,70.7L476.3,70.7
			L476.3,70.7z M467.4,64.6c-0.1-0.1-0.2-0.1-0.2-0.2s0-0.2,0-0.4c1.5,0.2,3,0.4,4.4,0.5C470.2,64.6,468.8,64.6,467.4,64.6z
			 M474.1,59.1c0-0.1,0-0.2-0.1-0.3c0.7,0,1.3,0,2,0C475.4,59.1,474.7,59,474.1,59.1z M419.2,21.4c0,0.1,0,0.1-0.1,0.2
			c0-0.1-0.1-0.1-0.1-0.1S419.1,21.4,419.2,21.4z M268.4,22.1L268.4,22.1L268.4,22.1L268.4,22.1z M214.3,22.1L214.3,22.1L214.3,22.1
			L214.3,22.1z M8.6,58.8c0,0.1-0.1,0.2-0.1,0.3c-0.6-0.1-1.3,0-1.9-0.3C7.3,58.7,8,58.8,8.6,58.8z M15.5,64.1c0,0.1,0,0.2,0,0.4
			c-0.1,0.1-0.2,0.1-0.2,0.2c-1.4,0-2.8,0-4.2,0C12.5,64.4,14,64.3,15.5,64.1z M461.1,146.2c0.5-0.4,1.3-0.3,1.7-0.8h0.1
			C462.2,145.5,461.5,145.6,461.1,146.2z"/>
		<path class="st0" d="M261.2,137.8c0,0.7,0.8,0.9,1.6,0.9c0.5-0.1,1.2-0.1,1.1-0.8c-0.1-0.5-0.7-0.7-1.3-0.7
			C262,137.2,261.2,137.2,261.2,137.8z"/>
		<path class="st0" d="M14.6,84.7c1.5,0.2,3,0.3,3.9-1c-1.3-0.5-2.6-0.2-3.9-0.1c-0.5,0-1.1,0-1.6-0.1c-1.2,0-2.4-0.1-3.6,0
			c-0.4,0-1.2,0.7-1.1,0.9c0.3,0.8,1.2,0.5,1.9,0.6C11.6,84.9,13.1,84.8,14.6,84.7z"/>
		<path class="st0" d="M90.2,19.5c-0.2-0.1-0.8,0.3-0.9,0.6c-0.2,1,0.7,1.2,1.6,1.2C91,20.6,91.3,19.8,90.2,19.5z"/>
		<path class="st0" d="M90.9,21.3L90.9,21.3C90.9,21.4,90.9,21.4,90.9,21.3C91,21.4,91,21.3,90.9,21.3C91,21.3,91,21.3,90.9,21.3z"
			/>
		<path class="st0" d="M92.3,11.1c0.2-0.6-0.5-0.9-1.1-0.8c-0.3,0-0.6,0.4-0.9,0.6c0.3,0.2,0.5,0.5,0.8,0.8
			C91.6,11.4,92.3,11.3,92.3,11.1z"/>
		<path class="st0" d="M81.4,14.3c0.3,0,0.7-0.2,1-0.4c-0.2-0.2-0.4-0.6-0.7-0.7c-0.3-0.1-0.7,0.1-1.8,0.4
			C80.7,14,81.1,14.3,81.4,14.3z"/>
		<path class="st0" d="M473,147.2c-0.1,0.9,0.8,0.4,1.3,0.5c0.4,0.1,0.8-0.1,1.2-0.2c-0.1-0.2-0.1-0.3-0.2-0.5
			C474.5,147.1,473,147.1,473,147.2z"/>
		<path class="st0" d="M366.9,140.8c-0.8-0.7-1.6-0.9-2.7-0.6C364.9,141.3,365.8,141.1,366.9,140.8z"/>
		<path class="st0" d="M349.5,139.9c-0.7-0.2-1.5-0.5-3.3-1.1C347.8,140.5,348.6,140.5,349.5,139.9z"/>
		<path class="st0" d="M80.2,10.8c0.3-0.5-0.2-0.6-0.6-0.6s-0.7,0.2-1,0.4c-0.1,0.6,0.1,0.8,0.6,0.8C79.6,11.3,80.1,11,80.2,10.8z"
			/>
	</g>
</g>
</svg>
