<?xml version="1.0" encoding="utf-8"?>
<!-- Generator: Adobe Illustrator 25.2.3, SVG Export Plug-In . SVG Version: 6.00 Build 0)  -->
<svg version="1.1" xmlns="http://www.w3.org/2000/svg" xmlns:xlink="http://www.w3.org/1999/xlink" x="0px" y="0px"
	 viewBox="0 0 452 454" style="enable-background:new 0 0 452 454;" xml:space="preserve">
<style type="text/css">
	.st0{fill:#8C5194;}
</style>
<g id="Ebene_1">
</g>
<g id="OBJECTS">
	<g>
		<g>
			<g>
				<path class="st0" d="M404.5,118.2c-22.3,16.1-44.4,32.3-67.9,46.7c-23.6,14.4-47.9,27.5-72.4,40.1
					c-24.7,12.7-49.6,24.8-74.3,37.3c-26,13.2-51.8,26.9-77.1,41.4c-26.2,14.9-51.9,30.5-77.2,46.9c-3.1,2-6.3,4-9.4,6.1
					c-3.3,2.1-0.2,7.5,3.1,5.3c25-16.8,50.6-32.7,76.6-47.9c25.5-14.9,51.6-29.1,77.9-42.6c24.8-12.7,49.7-24.9,74.5-37.5
					c24.6-12.5,49.1-25.5,72.8-39.7c11.8-7.1,23.4-14.5,34.8-22.3c11.3-7.7,22.6-15.8,32.8-24.9c2.5-2.3,5-4.6,7.5-6.9
					C407.1,119.2,405.7,117.3,404.5,118.2L404.5,118.2z"/>
			</g>
		</g>
		<g>
			<g>
				<path class="st0" d="M385.7,95.4c-5.9,3.6-11.3,7.9-16.8,12c-5.4,4-10.9,7.8-16.5,11.6c-11.3,7.7-23,15-34.8,22
					c-23.7,13.9-48.2,26.5-72.9,38.7c-24.7,12.2-49.6,23.9-74.2,36.2c-24.5,12.2-48.7,24.9-72,39.1c-23.4,14.2-45.9,29.9-66.6,47.7
					c-2.6,2.2-5.1,4.4-7.6,6.7c-3.1,2.8,1.5,7.3,4.5,4.5c20.2-18.2,42.1-34.1,65.1-48.6c23.1-14.6,47.1-27.6,71.4-40
					c24.6-12.6,49.4-24.5,74.1-36.8c24.6-12.2,49-24.7,72.8-38.4c11.8-6.8,23.4-14,34.8-21.5c11.3-7.5,22.6-15.4,33-24.1
					c2.6-2.2,5-4.4,7.3-6.9C388.4,96.4,387,94.5,385.7,95.4L385.7,95.4z"/>
			</g>
		</g>
		<g>
			<g>
				<path class="st0" d="M372,72.3c-7.4,4.6-14.2,10-21.3,15.1c-7,5-14.1,9.9-21.2,14.8c-14.3,9.8-28.8,19.2-43.6,28.2
					c-29.4,18-59.7,34.4-90.8,49.3c-13.8,6.6-27.9,12.3-41.8,18.6c-10.6,4.8-20.9,10-31.2,15.4c-21.5,11.3-42.6,23.5-63.5,35.9
					c-11.8,7-23.6,13.9-35.1,21.3c-0.2,0.1-0.3,0.2-0.5,0.3c-3.3,2.1-0.3,7.4,3.1,5.3c9.6-6,19.3-11.9,29.1-17.7
					c20.6-12.3,41.3-24.2,62.3-35.8c10.4-5.8,21-11.4,31.7-16.7c12.2-6.1,24.7-11.4,37-17.1c31.5-14.6,62.1-30.8,91.8-48.7
					c29.6-17.9,58.5-37.3,85.8-58.7c3.2-2.5,6.4-5.1,9.4-8C373.9,73.1,372.9,71.7,372,72.3L372,72.3z"/>
			</g>
		</g>
		<g>
			<g>
				<path class="st0" d="M8.8,252.3c11.5-5.4,22.6-11.9,33.7-18c11.2-6.2,22.4-12.5,33.6-18.8c22.3-12.5,44.6-25.1,66.8-37.7
					c22.1-12.6,44.2-25.2,66.3-37.8c22.2-12.7,44.4-25.3,66.6-38c22.2-12.7,44.4-25.3,66.6-38c2.8-1.6,5.5-3.2,8.3-4.7
					c3.2-1.8,0.3-6.8-2.9-5c-22.2,12.7-44.4,25.4-66.6,38c-22.2,12.7-44.4,25.4-66.6,38c-22.1,12.6-44.2,25.2-66.3,37.9
					c-22.2,12.7-44.3,25.4-66.5,38.2c-22.1,12.8-44.2,25.7-66.2,38.7c-2.7,1.6-5.4,3.4-8,5.2C6.5,251.2,7.5,252.9,8.8,252.3
					L8.8,252.3z"/>
			</g>
		</g>
		<g>
			<g>
				<path class="st0" d="M316.1,41.7c-5.3,1.6-10.3,4.2-15.3,6.6c-5.1,2.4-10.1,4.9-15.1,7.4c-10,5.1-20,10.2-29.9,15.5
					c-19.8,10.6-39.6,21.3-59.2,32.3c-19.6,11-39.1,22.2-58.5,33.6c-19.4,11.4-38.6,23-57.8,34.8C61,183.7,42,195.8,23,208
					c-2.3,1.5-4.6,3-7,4.5c-2.9,1.9-0.2,6.5,2.7,4.6c18.8-12.3,37.8-24.4,56.9-36.2c19.1-11.9,38.3-23.5,57.6-35
					c19.3-11.4,38.6-22.6,58.1-33.6c19.6-11,39.3-21.9,59.1-32.5c19.8-10.6,39.8-20.9,59.4-31.9c2.4-1.4,4.7-2.7,7-4.4
					C317.7,42.9,317.2,41.3,316.1,41.7L316.1,41.7z"/>
			</g>
		</g>
		<g>
			<g>
				<path class="st0" d="M22.8,182.7c4.6-2.8,8.8-6,13.2-9.2c4.4-3.1,8.8-6.2,13.2-9.3c8.8-6.2,17.7-12.2,26.8-17.9
					c18.1-11.5,36.8-22,55.9-31.7c17.5-8.8,35.4-16.7,53.2-24.9c17.5-8,34.9-16.3,51.6-26.1c16.4-9.6,32.1-20.7,45.8-33.9
					c1.7-1.6,3.4-3.3,5-5c2.4-2.5-1.4-6.4-3.9-3.9c-13.1,13.7-28.2,25.1-44.3,34.9c-16.3,10-33.6,18.5-50.9,26.6
					c-17.5,8.2-35.2,16-52.5,24.5c-19.2,9.5-37.9,20-56.1,31.4c-18.1,11.4-35.9,23.6-52.4,37.2c-2,1.7-4,3.4-5.9,5.3
					C20.4,181.8,21.6,183.4,22.8,182.7L22.8,182.7z"/>
			</g>
		</g>
		<g>
			<g>
				<path class="st0" d="M247.6,18.2c-7.7,3.1-15.2,6.8-22.6,10.5c-7.6,3.8-15.1,7.6-22.6,11.5c-14.8,7.8-29.5,15.8-44.1,24
					c-14.7,8.2-29.2,16.6-43.7,25.2c-14.4,8.5-28.7,17.2-43,26c-14.3,8.9-28.5,17.8-42.7,26.9c-1.7,1.1-3.4,2.3-5.1,3.5
					c-1.1,0.8-1.7,2.3-0.9,3.6c0.7,1.2,2.3,1.6,3.6,0.9c3.7-2,7.1-4.4,10.6-6.7c3.5-2.3,7-4.6,10.5-6.8c7-4.5,14.1-9,21.2-13.5
					c14.2-8.9,28.5-17.6,42.9-26.2c14.4-8.6,28.8-17,43.4-25.3c14.5-8.3,29.2-16.4,43.8-24.6c14.7-8.1,29.5-16.1,44.1-24.4
					c1.8-1,3.5-2.2,5.2-3.2C249,19.2,248.5,17.8,247.6,18.2L247.6,18.2z"/>
			</g>
		</g>
		<g>
			<g>
				<path class="st0" d="M56.7,93.5c0.5,0,1.2,0,1.7-0.1c0.6-0.2,1.2-0.5,1.8-0.8c1.2-0.5,2.3-1,3.5-1.5c2.3-1,4.6-2.2,6.8-3.3
					c4.5-2.2,8.9-4.6,13.4-6.9c8.9-4.7,17.8-9.4,26.7-14.2c8.9-4.8,17.7-9.6,26.6-14.3c8.8-4.8,17.6-9.5,26.5-14.3
					c8.9-4.8,17.7-9.5,26.6-14.4c1.1-0.6,2.2-1.2,3.3-1.8c1.2-0.7,1.7-2.4,0.9-3.6c-0.8-1.2-2.3-1.6-3.6-0.9
					c-8.9,4.8-17.7,9.6-26.5,14.4c-8.8,4.8-17.7,9.7-26.5,14.5c-8.8,4.8-17.7,9.7-26.5,14.5c-8.8,4.8-17.6,9.6-26.3,14.5
					c-8.8,5-17.6,9.8-26,15.3c-0.5,0.3-1.1,0.6-1.6,1.1c-0.4,0.4-0.7,0.9-1,1.3C56.2,93.2,56.4,93.6,56.7,93.5L56.7,93.5z"/>
			</g>
		</g>
		<g>
			<g>
				<path class="st0" d="M419.7,146.4c-6.4,2.4-12.4,5.7-18.4,8.8c-6,3.1-12,6.4-17.9,9.7c-12,6.5-24,13.2-36,19.8
					c-23.9,13.3-47.8,26.6-71.6,40.1c-23.8,13.5-47.5,27.1-71.2,40.8c-23.7,13.7-47.3,27.5-70.9,41.4
					c-23.5,13.8-46.9,27.8-70.2,41.8c-3,1.8-5.9,3.6-8.9,5.3c-3.1,1.9-0.3,6.7,2.8,4.9c23.4-14.1,46.9-28.1,70.5-42.1
					c23.5-13.9,47-27.6,70.5-41.3s47.2-27.2,70.9-40.7c23.8-13.5,47.6-27,71.5-40.3c11.9-6.7,23.9-13.3,35.9-19.9
					c12-6.6,24-13.2,35.7-20.2c2.9-1.7,5.7-3.5,8.4-5.5C422,148.2,421.4,145.8,419.7,146.4L419.7,146.4z"/>
			</g>
		</g>
		<g>
			<g>
				<path class="st0" d="M72.7,371.5c24.3-5.5,47.7-15.5,70.1-26.3c22.7-10.9,44.5-23.4,66-36.4c21.6-13.2,42.9-26.9,64.3-40.2
					c22.6-14.1,45.4-27.6,68.8-40.3c24.6-13.4,49.5-26.1,74.5-38.7c3-1.5,6.1-3.1,9.1-4.6c3-1.5,0.4-6.1-2.7-4.6
					c-24.9,12.6-49.8,25.1-74.3,38.3c-23.6,12.7-46.9,26.1-69.7,40.2c-21.5,13.3-42.7,27-64.3,40.3c-21.2,13.1-42.7,25.8-64.9,37.3
					c-22.2,11.5-45.2,21.7-68.9,29.6c-2.9,1-5.8,2.1-8.7,3.1C70.7,369.8,71.2,371.9,72.7,371.5L72.7,371.5z"/>
			</g>
		</g>
		<g>
			<g>
				<path class="st0" d="M432.9,201.6c-5.8,2.6-11.2,5.9-16.6,9c-5.5,3.2-10.9,6.4-16.3,9.6c-10.8,6.5-21.6,13.1-32.4,19.7
					c-21.6,13.2-43.2,26.5-64.8,39.7c-21.6,13.2-43.2,26.4-65,39.4C216,332,194.1,344.7,172,357c-22.1,12.2-44.4,24-67,35.2
					c-2.9,1.4-5.6,2.8-8.2,4.6c-1.9,1.2-0.7,4.7,1.6,3.9c6-2,11.5-5.1,17.1-7.9c5.6-2.8,11.2-5.7,16.8-8.6
					c11.3-5.9,22.5-11.9,33.7-18c22.3-12.2,44.3-24.9,66.2-37.8c21.8-12.9,43.5-26,65-39.4c21.6-13.4,43.2-26.9,64.7-40.4
					c21.5-13.5,43.1-26.8,64.5-40.4c2.6-1.6,5-3.3,7.4-5.2C434.7,202.3,433.7,201.2,432.9,201.6L432.9,201.6z"/>
			</g>
		</g>
		<g>
			<g>
				<path class="st0" d="M121.9,414.8c1.9-1.1,3.8-2.1,5.6-3.1c4.9-2.6,10.4-6.3,15.4-9.4c7.7-4.9,15.5-9.8,23.3-14.7
					c10-6.2,19.9-12.5,29.9-18.6c11.6-7.1,23.1-14.1,34.8-21c12.7-7.6,25.5-15,38.3-22.5c13.2-7.8,26.6-15.4,39.9-23
					c13.3-7.5,26.6-14.9,40-22.1c12.7-6.8,25.5-13.4,38.4-19.8c11.7-5.8,23.5-11.4,35.5-16.5c2.5-1.1,4.9-2.1,7.6-3.2
					c1.4-0.6,2.5-1.9,2-3.6c-0.4-1.4-2.1-2.6-3.6-2c-11.7,4.9-23.3,10.3-34.7,15.9c-12.7,6.2-25.3,12.7-37.8,19.3
					c-13.3,7.1-26.6,14.3-39.7,21.7c-13.4,7.5-26.7,15.2-40,23c-13,7.6-25.8,15.4-38.6,23.2c-11.9,7.3-23.8,14.6-35.7,22.1
					c-10.4,6.5-20.8,13.1-31.2,19.6c-8.4,5.3-16.8,10.7-25.1,16.1c-5.7,3.7-12,7.5-17.2,11.4c-2.6,1.9-5,3.6-7.6,5.7
					c-0.1,0.1-0.2,0.2-0.3,0.2C120.4,414.1,121.1,415.3,121.9,414.8L121.9,414.8z"/>
			</g>
		</g>
		<g>
			<g>
				<path class="st0" d="M424.6,273.8c-9.4,4-18.2,9.2-27.2,14c-9,4.8-17.9,9.8-26.8,14.7c-17.8,9.7-35.7,19.4-53.6,28.8
					c-18,9.5-36.1,18.9-54.3,28.1c-18.1,9.2-36.2,18.2-54.5,27.1c-18.3,8.9-36.7,17.7-55.2,26.3c-2.3,1.1-4.5,2.1-6.8,3.2
					c-1.3,0.6-1.6,2.5-0.9,3.6c0.8,1.3,2.3,1.5,3.6,0.9c18.5-8.6,36.9-17.3,55.2-26.2c18.3-8.8,36.4-17.8,54.5-27
					c18.2-9.2,36.3-18.6,54.3-28.1c17.9-9.5,35.8-19.1,53.5-28.9c8.9-4.9,17.8-10,26.6-15c8.8-5,17.8-10.1,26.2-15.7
					c2.1-1.4,4.2-2.8,6.2-4.3C426.3,274.6,425.6,273.3,424.6,273.8L424.6,273.8z"/>
			</g>
		</g>
		<g>
			<g>
				<path class="st0" d="M201.8,433.7c7.4-3.1,14.5-7.1,21.6-10.9c7-3.8,14-7.6,21-11.5c14.1-7.7,28.2-15.4,42.2-23.1
					c14.1-7.7,28.3-15.5,42.5-23.1c14.1-7.7,28.2-15.4,42.2-23.1c14.1-7.7,28.1-15.4,42.2-23.1c1.8-1,3.5-2,5.1-3.2
					c0.9-0.7,1.4-1.7,0.9-2.8c-0.4-0.9-1.6-1.7-2.6-1.3c-3.9,1.4-7.4,3.5-10.9,5.5c-3.5,1.9-7.1,3.9-10.6,5.8c-7,3.8-14,7.7-21,11.5
					c-14.1,7.7-28.1,15.4-42.2,23.2c-14.1,7.8-28.2,15.6-42.3,23.4c-14.1,7.7-28.1,15.4-42.2,23.2c-14,7.8-28.1,15.4-42,23.4
					c-1.8,1-3.4,2.2-5,3.3C199.4,431.8,200.1,434.4,201.8,433.7L201.8,433.7z"/>
			</g>
		</g>
		<g>
			<g>
				<path class="st0" d="M379.2,361.9c-0.6,0.1-1.2,0.1-1.7,0.3c-0.6,0.2-1.2,0.5-1.8,0.7c-1.1,0.4-2.3,0.9-3.4,1.4
					c-2.3,0.9-4.7,1.9-7,2.9c-4.5,2-8.9,4.1-13.4,6.1c-8.9,4.2-17.7,8.7-26.3,13.3c-8.6,4.6-17.1,9.5-25.6,14.4
					c-8.4,5-16.7,10.2-24.9,15.5c-8.2,5.4-16.3,11-24.3,16.7c-1.1,0.8-2.2,1.6-3.2,2.5c-1,0.9-1,2.5-0.2,3.6
					c0.8,1.1,2.3,1.4,3.5,0.7c2.1-1.2,4.1-2.8,6.1-4.2c2-1.4,4-2.8,6-4.2c4-2.8,8.1-5.6,12.1-8.3c8.1-5.4,16.4-10.7,24.7-15.8
					c8.3-5.1,16.8-10.1,25.3-14.8c8.5-4.8,17.2-9.3,25.9-13.8c8.7-4.5,17.5-8.7,26.2-13.1c0.5-0.3,1-0.5,1.5-0.8
					c0.6-0.3,1.1-0.8,1.6-1.2c0.4-0.3,0.4-1,0.2-1.4C380.2,362,379.7,361.8,379.2,361.9L379.2,361.9z"/>
			</g>
		</g>
	</g>
	<g>
	</g>
	<g>
	</g>
	<g>
	</g>
	<g>
	</g>
	<g>
	</g>
	<g>
	</g>
</g>
</svg>
