<?xml version="1.0" encoding="utf-8"?>
<!-- Generator: Adobe Illustrator 25.2.3, SVG Export Plug-In . SVG Version: 6.00 Build 0)  -->
<svg version="1.1" id="Ebene_1" xmlns="http://www.w3.org/2000/svg" xmlns:xlink="http://www.w3.org/1999/xlink" x="0px" y="0px"
	 viewBox="0 0 210 132" style="enable-background:new 0 0 210 132;" xml:space="preserve">
<style type="text/css">
	.st0{fill:#00A999;}
	.st1{fill:#5C5B5A;}
	.st2{fill:#44079C;}
</style>
<g>
	<path class="st0" d="M177.1,127.9c-1.5,0-2.8-0.4-4.1-1.7c-3.1-2.8-7-5.7-7-11.1v-0.8c0.8-4.2,2-6,2-9.8c0-1.7,1.8-3.1,3.4-3.1
		c1.8,0.3,2.7,1.5,4.3,1.5h0.4c2.7,1,4.9,2.5,6.7,4.5c0.8,1,1.5,2.1,1.5,3.5c-0.3,2.5-0.7,3.8-0.7,6.7c-0.1,2.1-0.4,4.1-1,6.2
		C182,126.8,180.3,127.6,177.1,127.9z M183.8,98.9c-0.6,0-1.1-0.1-1.7-0.6c-2-1.3-4.3-2-5.9-4.1c-1-1.1-3.1-1.3-3.6-2.9
		c-1-2.2-1-3.2-1.8-5.9c1.8-3.5,2.5-7.4,3.2-11.2c1.5-7.4,2.9-15.1,4.9-22.5c1.4-4.9,2.1-10.2,3.6-14.4c2.2-6.3,3.5-12.9,5.5-19.5
		c0.8-2.9,2-5.9,2.2-8.8c0-1.3,1-2.1,2.2-2.2c7.4,0,15,4.2,15,10.1c0,0.6,0,1-0.1,1.4c-1.7,7.1-3.5,14.1-5.5,21.4
		c-3.9,16-4.8,19.3-7.8,33.7c-1.4,6.4-2.8,12.9-3.2,19.5c0,2-0.6,3.1-1.7,3.8C187.3,98.1,186.2,98.7,183.8,98.9z"/>
</g>
<g>
	<path class="st1" d="M93.8,86.5c0,0.8-0.2,1.4-0.7,1.8c-0.5,0.5-1,0.7-1.7,0.7s-1.2-0.2-1.7-0.7S89,87.2,89,86.5
		c0-0.8,0.2-1.4,0.7-1.8c0.5-0.5,1-0.7,1.7-0.7s1.2,0.2,1.7,0.7C93.5,85.1,93.8,85.7,93.8,86.5z M93,120.4h-3.3v-26H93V120.4z"/>
	<path class="st1" d="M104.8,94.4h10.4v2.8h-10.4V111c0,1.5,0.1,2.7,0.4,3.6s0.6,1.6,1.1,2.1s1,0.8,1.7,1s1.4,0.3,2.2,0.3
		c1.4,0,2.5-0.2,3.3-0.5s1.5-0.6,2-0.9l0.8,2.7c-0.5,0.3-1.3,0.6-2.5,1s-2.5,0.6-3.8,0.6c-1.6,0-3-0.2-4.1-0.6s-2-1.1-2.6-1.9
		c-0.7-0.9-1.1-1.9-1.4-3.2c-0.3-1.3-0.4-2.8-0.4-4.5v-24l3.3-0.6V94.4z"/>
</g>
<g>
	<path class="st2" d="M56.1,91.4L56.1,91.4c-16-1-25.2-9.6-26-11.4C25.5,83.2,20,86.5,15,86.5c-1.8,0-3.6-0.4-5.1-1.5
		c-4.4-2.9-5.8-7.9-5.8-13.7c0-10.6,5.1-23.8,8-30.2c0.3-0.5,0.3-1,0.3-1.6c0-0.3-0.1-0.8-0.2-1.1c-0.8-2.7-1.1-5.6-1.1-8.4
		c0-14.1,8.9-29,22.6-29c1.4,0,2.8,0.1,4.3,0.4c13.5,2.9,18.7,13.1,18.7,25.3c0,17-10.1,37.9-22.6,49c6.3,7.9,12.9,10,23.8,11.4
		c0.6,0.1,0.9,0.5,0.9,1C58.8,89.4,57.4,91.4,56.1,91.4z M16.4,80.5c3.5,0,8.5-3,10.3-4.6C22.1,70,17,60,16.7,56.1
		c-1.7,3.3-4.4,11.4-4.4,17.6c0,2,0.3,3.8,1,5.2C14,80,15,80.5,16.4,80.5z M31.1,71.6c3.5-1.3,20.4-27.8,20.4-47.1
		c0-9-3.6-16.4-13.7-19.1C36.6,5.1,35.5,5,34.3,5C24,5.1,15.9,17.2,15.9,25.7c0,1.7,0.3,3.3,1,4.6c0.2,0.3,0.4,0.4,0.7,0.4
		c0.2,0,0.4-0.1,0.5-0.3c1-1.9,2.9-5.8,4.4-6.7h0.2c2.6,0,6.9,3.5,6.9,6.9c0,0.5-0.1,1-0.3,1.5c-1.5,3.2-7.8,14.3-8.4,16.2
		C21.2,52.7,24.9,64.2,31.1,71.6z"/>
	<path class="st2" d="M87.5,72.8l-1-0.1c-5-0.7-6.5-5.5-6.5-10.8c0-4.4,1-9.2,1.7-12.6c-4.3,5.5-8.4,21.4-16.1,21.4
		c-0.4,0-0.8,0-1.2-0.1c-5.7-1.1-7.6-6.1-7.6-12.3c0-9.9,4.7-23.1,5.7-29.6c0.2-1.2,1-1.7,2.2-1.7c2.9,0,7.7,3.2,7.7,5.5V33
		c-2.3,7.3-7,20.1-7,28.8l0.2,2.3c0.2,1.4,0.9,2.1,1.7,2.1c1,0,2.3-1,3.4-3c5.3-9.1,7.7-14,12.4-23.2c0.5-2.1,3.8-14.5,4-15.4
		c0.1-0.7,0.9-1,2-1c2.9,0,7.8,2,7.8,3.9v0.2c-0.3,2.5-9,30.4-9,39c0,1.6,0.3,2.5,1,2.5c6.4,0,14.1-13.7,16.5-19.1
		c0.3-0.5,1-0.9,1.6-0.9c0.3,0,0.6,0.1,0.6,0.4c0,0.1,0,0.3-0.1,0.4C105.6,53.5,96.9,72.8,87.5,72.8z"/>
	<path class="st2" d="M111.9,74.1c-7,0-8.9-8-8.9-12.9v-0.7c1-10.2,6.4-21.3,8-32c0.2-1,1.2-1.9,2.3-1.9l0.4,0.1
		c2.8,0.8,5.1,1.7,7.2,3.8c0.3,0.3,0.4,1,0.4,2c0,6.9-7.4,27.7-8.3,34.6V68c0,1,0.3,1.6,0.9,1.6c3.5,0,16.5-18.7,18.3-20.4
		c0.2-0.2,0.4-0.2,0.9-0.2c0.9,0,2.2,0.3,2.2,1l-0.1,0.3c-2.4,3.8-13.2,16.4-17.5,20.8c-1.1,1.2-2.5,2-4,2.6
		C113.1,74,112.4,74.1,111.9,74.1z M120.9,24c-0.8,0-1.5-0.3-2.1-0.8c-1.2-1.1-2.2-2.3-2.5-3.9c-0.3-1.7-1-2.5-1-3.8l0.2-1l1.3-5.6
		c0.2-1,1-1.5,2.3-1.6c2.6,0.2,5,1.3,6.8,3.7c0.4,0.6,0.7,1.3,0.7,2l-0.1,0.8l-0.2,0.6c-0.7,1.9-0.9,3.8-1,5.8
		C125.2,22.9,124,24,120.9,24z"/>
	<path class="st2" d="M125.8,105c-2.8,0-5-0.8-6.6-2.7c-1.7-2.1-2.4-4.3-2.4-6.9c0-15,27.1-35.6,32.7-37.2c-0.7-0.8-1.5-1.1-2.5-1.1
		c-4.4,0-11.7,6.6-15.4,6.6h-0.4c-4.3-0.9-5.9-2.5-5.9-4.6c0-7.7,21.2-21.3,25.3-25.7v-0.1c0-0.2-0.8-0.3-2-0.3
		c-4,0-12.8,0.9-15.6,1.2c-0.6-0.1-0.9-0.5-0.9-1c0-1.4,1.4-3.6,2.4-3.6h0.1c2.3-0.1,10.9-1.5,17.7-1.5c5,0,9,0.8,9,3.2
		c0,0.8-0.3,1.7-1.2,2.9c-6.1,8.1-16,15.6-23.6,22.9c3.1-1.7,8.1-3.4,12.3-3.4c2.6,0,4.9,0.6,6.4,2.3c3.3-1.9,11.2-5,15.1-6.4
		c1-0.3,1.8-0.5,2.5-0.5c1.7,0,2.8,0.9,2.8,1.3c0,0.1-0.1,0.2-0.2,0.3c-4.4,1.6-14.3,6.5-18,8.3c0.9,3,1.3,5.9,1.3,8.8
		C158.8,88.4,138,105,125.8,105z M127.3,101.9c13.7,0,23.9-21.2,23.9-34.7c0-1.9-0.2-3.7-0.6-5.1c-9.2,1.8-29.8,24.4-29.8,34.7
		c0,2.7,1.3,4.5,4.5,5L127.3,101.9z"/>
</g>
</svg>
