<?xml version="1.0" encoding="utf-8"?>
<!-- Generator: Adobe Illustrator 25.2.3, SVG Export Plug-In . SVG Version: 6.00 Build 0)  -->
<svg version="1.1" xmlns="http://www.w3.org/2000/svg" xmlns:xlink="http://www.w3.org/1999/xlink" x="0px" y="0px"
	 viewBox="0 0 43 707" style="enable-background:new 0 0 43 707;" xml:space="preserve">
<style type="text/css">
	.st0{fill:#49AA99;}
</style>
<g id="Ebene_1">
</g>
<g id="OBJECTS">
	<path class="st0" d="M3.9,97.6c0.2-11.8,0.6-23.5,1-35.2c0.3-8,0.8-15.8,1.6-23.6c0.3-2.8,0.6-5.6,0.9-8.4c0.3-3.2,0.5-5.2,1.4-8.5
		c0.7-2.7,1.5-4.8,2.5-6.4c0.2-0.9,0.4-1.8,0.6-2.7c1.5-6.7,5.2-9.9,8.3-9c3.2,1,6,6.2,6.9,13.5c0,0.4,0.1,0.8,0.2,1.2
		c0.4,1.1,0.8,2.2,1.1,3.5c1.2,4.7,1.4,8.9,1.6,14.2c0.1,2.5,0.2,5,0.3,7.5c0.2,5.5,0.5,10.8,0.6,16.3c0.1,10.5,0.2,21,0.5,31.5
		c0.5,20.6,0.8,41.2,1.5,61.7c1.3,41.7,3.2,83.2,4.6,124.8c1.5,41.1,2.6,82.4,2.2,123.7c-0.4,42.5-2.4,84.7-3.2,127.2
		c-0.4,23.6-0.4,47.2,0.3,70.8c0.6,24,1.7,48,2.8,71.9c0.4,7.9-1.9,17.9-4.2,23.3c-2.5,5.7-6.6,10-10.2,9.6
		c-3.7-0.4-7.6-3.2-10.2-9.6c-0.8-2.2-1.5-4.4-2.3-6.7c-1.3-5.1-2-10.7-2-16.6c-1.9-42.3-3.6-84.7-3.2-127.3
		c0.5-42.5,2.5-84.7,3.3-127.2c1.5-83.7-3.6-166.7-5.8-250.1C4.1,143.9,3.5,120.6,3.9,97.6z"/>
	<g>
	</g>
	<g>
	</g>
	<g>
	</g>
	<g>
	</g>
	<g>
	</g>
	<g>
	</g>
</g>
</svg>
