<?xml version="1.0" encoding="utf-8"?>
<!-- Generator: Adobe Illustrator 25.2.3, SVG Export Plug-In . SVG Version: 6.00 Build 0)  -->
<svg version="1.1" xmlns="http://www.w3.org/2000/svg" xmlns:xlink="http://www.w3.org/1999/xlink" x="0px" y="0px"
	 viewBox="0 0 321 111" style="enable-background:new 0 0 321 111;" xml:space="preserve">
<style type="text/css">
	.st0{fill:#171E37;}
</style>
<g id="Ebene_1">
</g>
<g id="OBJECTS">
	<g>
		<g>
			<path class="st0" d="M305.7,40.7c-5.6-5-11.5-9.7-17.1-14.8c-5.8-5.3-11.3-10.7-16.6-16.5c-1-1-2.7-0.9-3.7,0
				c-10.6,10.3-21.2,20.7-31.7,31.1c-1.3,1.2-2.5,2.5-3.8,3.7c-1,0.9-2.1,2.3-3.5,2.7c-1.2,0.3-2.4-0.8-3.3-1.5
				c-1.5-1.1-3-2.3-4.5-3.5c-5.9-4.5-11.7-8.9-17.6-13.4c-6.6-5-13.2-10.1-19.9-15.1c-0.9-0.7-2.4-0.3-3.2,0.4
				c-11,10.4-22.1,20.9-33.1,31.3c-1.3,1.2-2.6,2.5-4,3.7c-1,0.9-2.2,2.2-3.6,2.4c-1.2,0.2-2.4-0.7-3.3-1.3c-1.4-1-2.7-2.3-4-3.4
				c-5.7-5-11.5-9.9-17.2-14.9c-2.8-2.4-5.6-4.8-8.4-7.2c-2.8-2.4-5.6-5.3-8.7-7.4c-3.1-2-6.3-1.2-8.6,1.6c-2.5,2.9-4.7,6-7.1,9.1
				c-4.6,5.9-9.2,11.8-13.9,17.7c-1.1,1.4-2.2,2.9-3.4,4.3c-0.7,0.8-1.8,2.6-2.9,2.8c-1,0.2-2.3-1.1-3-1.6c-1.7-1.2-3.3-2.4-5-3.6
				c-13.8-10-27.7-19.9-41.5-29.9c-1.2-0.8-3-0.2-3.7,1c-0.8,1.4-0.2,2.8,1,3.7c12.7,9.1,25.3,18.2,38,27.3c3.1,2.2,6.2,4.6,9.4,6.7
				c3.1,2.1,6.4,2.3,9.3-0.2c2.7-2.3,4.7-5.6,6.9-8.4c2.4-3.1,4.8-6.1,7.2-9.2c2.4-3.1,4.8-6.1,7.2-9.2c1.1-1.4,2.2-2.8,3.2-4.1
				c0.6-0.7,1.2-1.5,1.7-2.2c0.3-0.4,1-1.5,1.6-1.6c0,0-0.4,0,0.1,0c0.3,0,0.7,0.4,0.9,0.6c0.6,0.4,1.2,1,1.8,1.5
				c1.5,1.3,3.1,2.7,4.6,4c2.9,2.5,5.9,5.1,8.8,7.6c5.8,5,11.6,10,17.4,15c2.6,2.3,5.3,5.1,8.7,6.3c3.5,1.2,6.7-0.5,9.3-2.7
				c3.2-2.8,6.3-5.9,9.4-8.8c3.2-3,6.4-6,9.6-9c6.4-6,12.7-12.1,19.1-18.1c-1.1,0.1-2.1,0.3-3.2,0.4c12.3,9.4,24.7,18.7,37,28.1
				c2.7,2.1,5.7,5.2,9.2,5.9c3.7,0.7,6.6-1.7,9-4.1c5.6-5.4,11.1-10.9,16.7-16.4c6.3-6.1,12.5-12.3,18.7-18.4c-1.2,0-2.4,0-3.7,0
				c5.4,5.7,11,11.3,16.9,16.5c5.7,5.1,11.6,10.1,18.1,14.1C305.2,44.9,307.4,42.2,305.7,40.7L305.7,40.7z"/>
		</g>
	</g>
	<g>
		<g>
			<path class="st0" d="M305.7,85.5c-5.6-5-11.5-9.7-17.1-14.8c-5.8-5.3-11.3-10.7-16.6-16.5c-1-1-2.7-0.9-3.7,0
				c-10.6,10.3-21.2,20.7-31.7,31.1c-1.3,1.2-2.5,2.5-3.8,3.7c-1,0.9-2.1,2.3-3.5,2.7c-1.2,0.3-2.4-0.8-3.3-1.5
				c-1.5-1.1-3-2.3-4.5-3.5c-5.9-4.5-11.7-8.9-17.6-13.4c-6.6-5-13.2-10.1-19.9-15.1c-0.9-0.7-2.4-0.3-3.2,0.4
				c-11,10.4-22.1,20.9-33.1,31.3c-1.3,1.2-2.6,2.5-4,3.7c-1,0.9-2.2,2.2-3.6,2.4c-1.2,0.2-2.4-0.7-3.3-1.3c-1.4-1-2.7-2.3-4-3.4
				c-5.7-5-11.5-9.9-17.2-14.9c-2.8-2.4-5.6-4.8-8.4-7.2c-2.8-2.4-5.6-5.3-8.7-7.4c-3.1-2-6.3-1.2-8.6,1.6c-2.5,2.9-4.7,6-7.1,9.1
				c-4.6,5.9-9.2,11.8-13.9,17.7c-1.1,1.4-2.2,2.9-3.4,4.3c-0.7,0.8-1.8,2.6-2.9,2.8c-1,0.2-2.3-1.1-3-1.6c-1.7-1.2-3.3-2.4-5-3.6
				c-13.8-10-27.7-19.9-41.5-29.9c-1.2-0.8-3-0.2-3.7,1c-0.8,1.4-0.2,2.8,1,3.7c12.7,9.1,25.3,18.2,38,27.3c3.1,2.2,6.2,4.6,9.4,6.7
				c3.1,2.1,6.4,2.3,9.3-0.2c2.7-2.3,4.7-5.6,6.9-8.4c2.4-3.1,4.8-6.1,7.2-9.2c2.4-3.1,4.8-6.1,7.2-9.2c1.1-1.4,2.2-2.8,3.2-4.1
				c0.6-0.7,1.2-1.5,1.7-2.2c0.3-0.4,1-1.5,1.6-1.6c0,0-0.4,0,0.1,0c0.3,0,0.7,0.4,0.9,0.6c0.6,0.4,1.2,1,1.8,1.5
				c1.5,1.3,3.1,2.7,4.6,4c2.9,2.5,5.9,5.1,8.8,7.6c5.8,5,11.6,10,17.4,15c2.6,2.3,5.3,5.1,8.7,6.3c3.5,1.2,6.7-0.5,9.3-2.7
				c3.2-2.8,6.3-5.9,9.4-8.8c3.2-3,6.4-6,9.6-9c6.4-6,12.7-12.1,19.1-18.1c-1.1,0.1-2.1,0.3-3.2,0.4c12.3,9.4,24.7,18.7,37,28.1
				c2.7,2.1,5.7,5.2,9.2,5.9c3.7,0.7,6.6-1.7,9-4.1c5.6-5.4,11.1-10.9,16.7-16.4c6.3-6.1,12.5-12.3,18.7-18.4c-1.2,0-2.4,0-3.7,0
				c5.4,5.7,11,11.3,16.9,16.5c5.7,5.1,11.6,10.1,18.1,14.1C305.2,89.6,307.4,87,305.7,85.5L305.7,85.5z"/>
		</g>
	</g>
	<g>
	</g>
	<g>
	</g>
	<g>
	</g>
	<g>
	</g>
	<g>
	</g>
	<g>
	</g>
</g>
</svg>
